<svg width="340" height="47" viewBox="0 0 340 47" fill="none" xmlns="http://www.w3.org/2000/svg">
  <g id="journal" fill="#111111">
    <path d="M38.643 15.864C37.461 17.182 36.331 18.352 35.252 19.372C34.173 20.392 33.128 21.252 32.117 21.95C31.106 22.648 30.12 23.178 29.158 23.539C28.196 23.9 27.246 24.081 26.309 24.081C25.079 24.081 24.173 23.722 23.592 23.004C23.011 22.286 22.72 21.283 22.72 19.994C22.72 19.32 22.793 18.566 22.94 17.731C23.087 16.896 23.331 16.049 23.672 15.189C22.959 16.078 22.263 16.883 21.585 17.606C20.907 18.329 20.267 18.946 19.666 19.459C19.065 19.972 18.519 20.37 18.025 20.653C17.531 20.936 17.119 21.078 16.787 21.078C16.533 21.078 16.333 20.978 16.186 20.778C16.039 20.578 15.966 20.307 15.966 19.965C15.966 19.545 16.137 18.91 16.479 18.061C16.821 17.212 17.326 16.188 17.995 14.992C18.664 13.796 19.489 12.448 20.471 10.949C21.453 9.45 22.588 7.841 23.877 6.122C23.516 6.415 23.062 6.825 22.515 7.352C21.968 7.879 21.37 8.473 20.721 9.132C20.072 9.791 19.39 10.494 18.678 11.241C17.966 11.988 17.264 12.73 16.576 13.468C15.888 14.206 15.228 14.916 14.598 15.599C13.968 16.282 13.409 16.893 12.921 17.43C11.964 18.485 11.061 19.42 10.211 20.235C9.361 21.05 8.524 21.736 7.699 22.293C6.874 22.85 6.044 23.272 5.209 23.56C4.374 23.848 3.498 23.992 2.58 23.992C2.238 23.992 1.911 23.95 1.599 23.867C1.287 23.784 1.013 23.659 0.779 23.493C0.545 23.327 0.357 23.124 0.215 22.885C0.073 22.646 0 22.373 0 22.061C0 21.856 0.034 21.639 0.103 21.409C0.172 21.179 0.318 20.865 0.542 20.464C0.728 20.142 0.928 19.878 1.143 19.673C1.358 19.468 1.58 19.312 1.81 19.204C2.04 19.096 2.271 19.023 2.506 18.984C2.741 18.945 2.97 18.925 3.194 18.925C3.448 18.925 3.575 18.974 3.575 19.071C3.575 19.12 3.546 19.161 3.487 19.196C3.428 19.231 3.37 19.257 3.311 19.277C3.028 19.384 2.813 19.47 2.666 19.533C2.519 19.596 2.446 19.682 2.446 19.789C2.446 19.848 2.473 19.906 2.527 19.965C2.581 20.024 2.678 20.08 2.82 20.133C2.962 20.186 3.154 20.228 3.399 20.258C3.644 20.288 3.961 20.302 4.351 20.302C4.966 20.302 5.559 20.234 6.131 20.097C6.703 19.96 7.271 19.738 7.838 19.43C8.405 19.122 8.976 18.724 9.552 18.236C10.128 17.748 10.724 17.147 11.339 16.434C11.944 15.741 12.489 15.018 12.972 14.266C13.455 13.514 13.883 12.762 14.254 12.01C14.625 11.258 14.942 10.521 15.206 9.798C15.47 9.075 15.687 8.389 15.858 7.74C16.029 7.091 16.153 6.495 16.232 5.953C16.311 5.411 16.349 4.945 16.349 4.554C16.349 3.919 16.244 3.404 16.034 3.009C15.824 2.614 15.485 2.255 15.016 1.932C14.655 2.059 14.24 2.279 13.771 2.591C13.302 2.903 12.826 3.27 12.343 3.69C11.86 4.11 11.386 4.562 10.922 5.045C10.458 5.528 10.046 6.009 9.684 6.488C9.322 6.967 9.031 7.422 8.811 7.852C8.591 8.282 8.481 8.648 8.481 8.951C8.481 9.039 8.505 9.112 8.554 9.171C8.603 9.23 8.696 9.259 8.832 9.259C9.086 9.259 9.467 9.122 9.975 8.849C10.102 8.8 10.18 8.776 10.209 8.776C10.229 8.776 10.253 8.783 10.282 8.798C10.311 8.813 10.326 8.844 10.326 8.893C10.326 8.971 10.238 9.11 10.062 9.31C9.886 9.51 9.603 9.781 9.212 10.123C8.48 10.768 7.933 11.09 7.571 11.09C7.434 11.09 7.249 11.017 7.014 10.87C6.779 10.723 6.55 10.54 6.326 10.321C6.102 10.102 5.906 9.864 5.74 9.611C5.574 9.358 5.493 9.126 5.493 8.921C5.493 8.853 5.498 8.809 5.508 8.789C5.615 8.271 5.847 7.695 6.204 7.06C6.561 6.425 7 5.784 7.522 5.134C8.044 4.484 8.628 3.852 9.272 3.237C9.916 2.622 10.578 2.075 11.257 1.596C11.936 1.117 12.607 0.732 13.271 0.439C13.935 0.146 14.556 0 15.132 0C15.786 0 16.377 0.105 16.904 0.315C17.431 0.525 17.878 0.833 18.244 1.238C18.61 1.643 18.891 2.136 19.086 2.717C19.281 3.298 19.379 3.955 19.379 4.687C19.379 5.429 19.254 6.303 19.005 7.309C18.756 8.315 18.324 9.379 17.709 10.502C18.236 9.926 18.8 9.335 19.401 8.73C20.002 8.125 20.602 7.536 21.203 6.965C21.804 6.394 22.39 5.854 22.961 5.346C23.532 4.838 24.055 4.394 24.528 4.013C25.001 3.632 25.409 3.332 25.751 3.112C26.093 2.892 26.332 2.782 26.469 2.782C26.528 2.782 26.586 2.814 26.645 2.877C26.704 2.94 26.757 3.021 26.806 3.119C26.855 3.217 26.894 3.324 26.923 3.441C26.952 3.558 26.967 3.67 26.967 3.778C26.967 3.944 26.938 4.12 26.879 4.305C26.82 4.49 26.752 4.657 26.674 4.803C26.596 4.93 26.469 5.12 26.293 5.374C26.117 5.628 25.932 5.894 25.736 6.172C25.54 6.45 25.35 6.719 25.165 6.978C24.98 7.237 24.843 7.439 24.755 7.586C24.12 8.611 23.517 9.617 22.946 10.604C22.375 11.591 21.847 12.521 21.364 13.395C20.881 14.269 20.453 15.067 20.082 15.79C19.711 16.513 19.408 17.118 19.174 17.606C19.428 17.411 19.804 17.091 20.302 16.647C20.8 16.203 21.354 15.69 21.965 15.109C22.576 14.528 23.21 13.903 23.869 13.234C24.528 12.565 25.146 11.908 25.722 11.264C26.191 10.532 26.723 9.787 27.319 9.03C27.915 8.273 28.564 7.48 29.267 6.65C30.322 5.429 31.33 4.397 32.292 3.552C33.254 2.707 34.15 2.021 34.98 1.494C35.81 0.967 36.555 0.586 37.214 0.351C37.873 0.116 38.423 0 38.862 0C39.458 0 39.929 0.225 40.276 0.674C40.623 1.123 40.796 1.743 40.796 2.534C40.796 2.925 40.752 3.34 40.664 3.779C40.508 4.531 40.21 5.324 39.77 6.159C39.33 6.994 38.818 7.819 38.232 8.635C37.646 9.451 37.019 10.232 36.35 10.979C35.681 11.726 35.037 12.383 34.416 12.949C33.795 13.515 33.237 13.967 32.739 14.304C32.241 14.641 31.865 14.809 31.611 14.809C31.289 14.809 31.035 14.687 30.849 14.443C30.663 14.199 30.571 13.921 30.571 13.608C30.571 13.364 30.661 13.066 30.842 12.714C31.023 12.362 31.25 11.996 31.523 11.615C31.796 11.234 32.094 10.856 32.417 10.48C32.74 10.104 33.049 9.765 33.347 9.462C33.645 9.159 33.906 8.915 34.131 8.73C34.356 8.545 34.502 8.452 34.57 8.452C34.619 8.452 34.643 8.476 34.643 8.525C34.643 8.574 34.626 8.645 34.592 8.737C34.558 8.829 34.521 8.927 34.482 9.03C34.443 9.133 34.406 9.223 34.372 9.301C34.338 9.379 34.321 9.423 34.321 9.433C34.321 9.482 34.345 9.506 34.394 9.506C34.482 9.506 34.643 9.391 34.877 9.162C35.111 8.933 35.385 8.632 35.697 8.261C36.009 7.89 36.339 7.468 36.686 6.994C37.033 6.52 37.36 6.044 37.667 5.566C37.974 5.088 38.241 4.624 38.465 4.174C38.689 3.724 38.836 3.334 38.904 3.002C38.943 2.856 38.963 2.685 38.963 2.489C38.963 1.981 38.758 1.727 38.348 1.727C38.026 1.727 37.623 1.866 37.14 2.144C36.657 2.422 36.124 2.803 35.543 3.287C34.962 3.771 34.347 4.339 33.697 4.994C33.047 5.649 32.403 6.356 31.763 7.118C31.123 7.88 30.503 8.676 29.903 9.506C29.303 10.336 28.756 11.166 28.262 11.996C27.768 12.826 27.344 13.642 26.988 14.442C26.632 15.242 26.38 15.99 26.234 16.683C26.136 17.152 26.063 17.577 26.014 17.957C25.965 18.337 25.941 18.699 25.941 19.041C25.941 19.832 26.09 20.43 26.388 20.835C26.686 21.24 27.186 21.443 27.889 21.443C29.315 21.443 30.919 20.894 32.701 19.795C34.483 18.696 36.463 17.068 38.641 14.91V15.864H38.643Z"/>
    <path d="M45.483 15.542L42.876 17.754C41.636 18.838 40.806 19.38 40.386 19.38C40.005 19.38 39.605 18.943 39.185 18.069C38.765 17.195 38.555 16.431 38.555 15.777C38.555 15.22 38.64 14.749 38.811 14.363C38.982 13.977 39.277 13.477 39.697 12.862C40.293 12.032 40.864 11.329 41.411 10.753C41.958 10.177 42.441 9.73 42.861 9.413C43.281 9.096 43.574 8.937 43.74 8.937C44.004 8.937 44.26 9.074 44.509 9.347C44.758 9.62 44.883 9.904 44.883 10.197C44.883 10.383 44.749 10.68 44.48 11.091C44.211 11.502 43.787 12.021 43.206 12.651C42.625 13.281 41.817 14.035 40.782 14.914L40.504 15.72C40.426 15.876 40.387 16.013 40.387 16.13C40.387 16.394 40.519 16.526 40.783 16.526C41.056 16.526 41.699 16.179 42.709 15.486C43.719 14.793 44.816 13.86 45.998 12.688C46.457 12.229 46.838 11.824 47.141 11.472C47.444 11.12 47.717 10.791 47.961 10.483C48.205 10.175 48.408 9.943 48.569 9.787C48.73 9.631 48.874 9.548 49.001 9.538C49.245 9.509 49.436 9.611 49.572 9.846C49.708 10.081 49.777 10.427 49.777 10.886C49.777 11.15 49.66 11.479 49.425 11.875C49.19 12.271 48.751 12.944 48.107 13.896C47.463 14.848 46.82 15.834 46.181 16.855C45.542 17.876 44.889 19.025 44.225 20.305C44.254 20.276 44.555 19.983 45.126 19.426C45.697 18.869 46.3 18.288 46.935 17.683C47.57 17.078 48.092 16.592 48.502 16.225C48.912 15.858 49.425 15.432 50.04 14.943V15.924C48.722 17.34 47.528 18.683 46.458 19.952C45.388 21.221 44.563 22.237 43.982 22.999C43.401 23.761 43.062 24.205 42.964 24.332C42.7 24.674 42.464 24.994 42.254 25.291C42.044 25.588 41.868 25.818 41.727 25.979C41.586 26.14 41.471 26.221 41.383 26.221C41.178 26.221 40.995 26.018 40.834 25.613C40.673 25.208 40.592 24.849 40.592 24.536C40.592 24.253 40.646 24.004 40.753 23.789C41.455 22.207 43.032 19.458 45.483 15.542Z"/>
    <path d="M49.805 16.201V15.176C51.172 13.692 52.351 12.295 53.343 10.987C54.335 9.679 55.118 8.638 55.694 7.867C56.27 7.096 56.778 6.551 57.217 6.234C57.656 5.917 58.208 5.758 58.872 5.758C59.204 5.758 59.37 5.885 59.37 6.139C59.37 6.344 59.236 6.647 58.967 7.047C58.698 7.447 58.354 7.858 57.934 8.277C57.377 8.824 56.833 9.51 56.301 10.335C55.769 11.16 55.166 12.212 54.492 13.492C55.019 13.082 55.627 12.596 56.316 12.034C57.005 11.472 57.566 11.033 58.001 10.716C58.436 10.399 58.865 10.147 59.29 9.962C59.715 9.777 60.142 9.684 60.572 9.684C60.845 9.684 61.024 9.733 61.107 9.83C61.19 9.927 61.232 10.118 61.232 10.401C61.232 11.143 61.051 11.868 60.69 12.576C60.329 13.284 59.811 14.019 59.137 14.781C58.463 15.543 57.633 16.373 56.647 17.271C56.989 17.398 57.34 17.461 57.702 17.461C58.835 17.461 60.353 16.597 62.258 14.868V15.923C61.516 16.587 60.791 17.212 60.083 17.798C59.375 18.384 58.708 18.853 58.083 19.204C57.458 19.555 56.882 19.731 56.354 19.731C56.159 19.731 55.951 19.709 55.731 19.665C55.511 19.621 55.309 19.567 55.123 19.504C54.937 19.441 54.698 19.35 54.405 19.233C54.112 19.116 53.887 19.033 53.731 18.984C53.418 19.062 53.243 19.101 53.204 19.101C52.862 19.101 52.462 18.964 52.003 18.691C51.681 19.316 51.327 20.124 50.941 21.115C50.555 22.106 50.231 22.895 49.967 23.481C49.703 24.067 49.352 24.628 48.912 25.166C48.668 25.41 48.497 25.532 48.399 25.532C47.979 25.532 47.769 25.161 47.769 24.419C47.769 23.774 47.898 23.103 48.157 22.405C48.416 21.707 48.733 21.045 49.109 20.42C49.485 19.795 49.898 19.163 50.347 18.523C50.796 17.883 51.114 17.407 51.299 17.095C52.842 14.439 54.043 12.178 54.903 10.313C52.656 13.047 50.957 15.01 49.805 16.201ZM55.752 16.919C56.719 15.903 57.439 15.039 57.913 14.326C58.387 13.613 58.623 13.066 58.623 12.685C58.623 12.324 58.442 12.143 58.081 12.143C57.593 12.143 56.907 12.546 56.023 13.351C55.139 14.156 54.229 15.243 53.291 16.61C54.014 16.532 54.497 16.505 54.741 16.529C54.985 16.553 55.322 16.685 55.752 16.919Z"/>
    <path d="M73.301 15.923C72.598 16.616 71.988 17.207 71.47 17.695C70.952 18.183 70.498 18.584 70.108 18.896C69.718 19.208 69.378 19.436 69.09 19.577C68.802 19.718 68.536 19.789 68.292 19.789C67.94 19.789 67.65 19.672 67.42 19.437C67.19 19.202 67.076 18.836 67.076 18.338C67.076 18.123 67.096 17.908 67.135 17.693C67.174 17.478 67.242 17.241 67.34 16.983C67.438 16.725 67.569 16.434 67.736 16.111C67.903 15.788 68.112 15.413 68.366 14.983C67.897 15.081 67.411 15.256 66.908 15.51C66.405 15.764 65.905 16.069 65.407 16.426C64.909 16.783 64.416 17.173 63.928 17.598C63.44 18.023 62.971 18.455 62.522 18.894C62.444 18.972 62.332 19.043 62.185 19.106C62.038 19.169 61.892 19.201 61.746 19.201C61.551 19.201 61.385 19.145 61.248 19.033C61.111 18.921 61.043 18.708 61.043 18.396C61.043 18.259 61.067 18.069 61.116 17.825C61.165 17.581 61.233 17.307 61.321 17.005C61.409 16.703 61.514 16.382 61.636 16.046C61.758 15.71 61.887 15.375 62.024 15.043C62.161 14.711 62.307 14.394 62.463 14.091C62.619 13.788 62.771 13.52 62.917 13.285C63.249 12.767 63.557 12.321 63.84 11.945C64.123 11.569 64.392 11.257 64.646 11.007C64.9 10.757 65.142 10.575 65.371 10.458C65.6 10.341 65.828 10.282 66.052 10.282C66.335 10.282 66.577 10.331 66.777 10.428C66.977 10.525 67.077 10.687 67.077 10.911C67.077 11.009 67.067 11.092 67.048 11.16C67.029 11.228 66.989 11.299 66.931 11.372C66.873 11.445 66.797 11.536 66.704 11.643C66.611 11.75 66.492 11.887 66.345 12.053C65.906 12.551 65.542 12.978 65.254 13.335C64.966 13.692 64.719 14.026 64.514 14.338C64.309 14.65 64.128 14.958 63.972 15.261C63.816 15.564 63.65 15.91 63.474 16.301C63.757 15.969 64.089 15.634 64.47 15.298C64.851 14.962 65.285 14.639 65.774 14.331C66.263 14.023 66.809 13.735 67.415 13.467C68.021 13.199 68.689 12.967 69.422 12.771C69.803 11.951 70.12 11.328 70.374 10.903C70.628 10.478 70.833 10.153 70.989 9.929C71.23 9.57 71.538 9.39 71.909 9.39C72.036 9.39 72.148 9.444 72.246 9.551C72.344 9.658 72.429 9.795 72.502 9.961C72.575 10.127 72.634 10.313 72.678 10.518C72.722 10.723 72.754 10.923 72.773 11.119C72.773 11.197 72.736 11.292 72.663 11.405C72.59 11.518 72.497 11.644 72.385 11.786C72.273 11.928 72.151 12.077 72.019 12.233C71.887 12.389 71.768 12.541 71.66 12.687C71.66 13.029 71.621 13.317 71.543 13.551C71.514 13.619 71.48 13.685 71.44 13.749C71.4 13.813 71.34 13.878 71.257 13.947C71.174 14.016 71.062 14.091 70.92 14.174C70.778 14.257 70.59 14.352 70.356 14.46C70.327 14.528 70.266 14.631 70.173 14.768C70.08 14.905 69.987 15.061 69.895 15.237C69.803 15.413 69.719 15.598 69.646 15.794C69.573 15.99 69.536 16.18 69.536 16.365C69.536 16.56 69.585 16.707 69.682 16.804C69.779 16.901 69.907 16.95 70.063 16.95C70.209 16.95 70.368 16.916 70.539 16.847C70.71 16.778 70.917 16.664 71.162 16.503C71.407 16.342 71.702 16.132 72.048 15.873C72.394 15.614 72.812 15.294 73.3 14.914V15.923H73.301Z"/>
    <path d="M74.897 12.349C76.381 11.001 77.822 10 79.218 9.34601C80.614 8.69201 81.694 8.36501 82.455 8.36501C82.66 8.36501 82.851 8.45001 83.026 8.62101C83.201 8.79201 83.341 8.99001 83.443 9.21401C83.545 9.43801 83.597 9.60501 83.597 9.71201C83.597 9.88801 83.529 10.017 83.392 10.1C83.255 10.183 83.016 10.283 82.674 10.4C82.742 10.556 82.83 10.756 82.938 11.001C83.046 11.246 83.128 11.443 83.187 11.594C83.246 11.745 83.275 11.88 83.275 11.997C83.275 12.231 83.038 12.668 82.565 13.308C82.092 13.948 81.759 14.419 81.569 14.722C81.379 15.025 81.283 15.396 81.283 15.835C81.283 16.558 81.615 16.919 82.279 16.919C82.963 16.919 84.032 16.279 85.487 15V15.894C83.016 18.638 81.249 20.01 80.184 20.01C79.803 20.01 79.532 19.885 79.371 19.636C79.21 19.387 79.129 19.018 79.129 18.53C79.129 17.759 79.407 16.64 79.964 15.176C78.538 16.758 77.479 17.884 76.785 18.552C76.091 19.22 75.52 19.555 75.071 19.555C74.856 19.555 74.588 19.369 74.265 18.998C73.942 18.627 73.657 18.146 73.408 17.555C73.159 16.964 73.034 16.351 73.034 15.717C73.034 15.258 73.078 14.875 73.166 14.567C73.254 14.259 73.425 13.944 73.679 13.622C73.933 13.3 74.341 12.876 74.897 12.349ZM81.914 10.737C79.375 11.899 77.566 12.885 76.487 13.696C75.408 14.507 74.868 15.342 74.868 16.201C74.868 16.514 74.922 16.77 75.029 16.97C75.136 17.17 75.283 17.27 75.468 17.27C75.575 17.27 75.766 17.202 76.039 17.065C77.064 16.46 78.002 15.671 78.852 14.699C79.702 13.727 80.723 12.407 81.914 10.737Z"/>
    <path d="M97.998 15.923C97.295 16.616 96.685 17.207 96.167 17.695C95.649 18.183 95.195 18.584 94.805 18.896C94.415 19.208 94.075 19.436 93.787 19.577C93.499 19.718 93.233 19.789 92.989 19.789C92.637 19.789 92.347 19.672 92.117 19.437C91.887 19.202 91.773 18.836 91.773 18.338C91.773 18.074 91.81 17.789 91.883 17.481C91.956 17.173 92.103 16.795 92.322 16.346C92.541 15.897 92.859 15.352 93.274 14.713C93.689 14.074 94.238 13.295 94.922 12.377C94.824 12.201 94.675 12.018 94.475 11.828C94.275 11.638 94.077 11.489 93.882 11.381C93.56 11.752 93.169 12.211 92.71 12.758C92.251 13.305 91.765 13.874 91.252 14.465C90.739 15.056 90.227 15.639 89.714 16.215C89.201 16.791 88.73 17.294 88.3 17.724C88.046 17.978 87.826 18.193 87.641 18.369C87.456 18.545 87.292 18.686 87.15 18.794C87.008 18.902 86.881 18.98 86.769 19.028C86.657 19.076 86.552 19.101 86.454 19.101C86.298 19.101 86.144 19.008 85.993 18.823C85.842 18.638 85.707 18.391 85.59 18.083C85.473 17.775 85.378 17.431 85.304 17.05C85.23 16.669 85.194 16.279 85.194 15.878C85.194 15.565 85.233 15.263 85.311 14.97C85.389 14.677 85.501 14.418 85.648 14.194C85.795 13.97 85.978 13.789 86.197 13.652C86.416 13.515 86.668 13.447 86.951 13.447C87.234 13.447 87.473 13.496 87.669 13.593C87.865 13.69 87.962 13.847 87.962 14.062C87.962 14.16 87.925 14.262 87.852 14.37C87.779 14.478 87.698 14.582 87.61 14.685C87.522 14.788 87.439 14.888 87.361 14.985C87.283 15.082 87.239 15.171 87.229 15.249C87.219 15.259 87.214 15.308 87.214 15.395C87.214 15.561 87.265 15.676 87.368 15.739C87.471 15.802 87.561 15.834 87.639 15.834C87.707 15.834 87.898 15.68 88.21 15.373C88.522 15.066 88.913 14.66 89.382 14.157C89.851 13.654 90.373 13.073 90.949 12.414C91.525 11.755 92.116 11.074 92.721 10.371C92.428 10.098 92.282 9.917 92.282 9.829C92.282 9.751 92.316 9.661 92.385 9.558C92.454 9.455 92.536 9.353 92.634 9.25C92.732 9.147 92.834 9.05 92.942 8.957C93.05 8.864 93.147 8.789 93.235 8.73C93.372 8.642 93.494 8.571 93.601 8.518C93.708 8.465 93.83 8.437 93.967 8.437C94.074 8.437 94.206 8.459 94.363 8.503C94.52 8.547 94.71 8.613 94.934 8.701C95.012 8.73 95.176 8.813 95.425 8.95C95.674 9.087 95.933 9.25 96.201 9.441C96.469 9.632 96.709 9.839 96.919 10.064C97.129 10.289 97.234 10.508 97.234 10.723C97.234 10.84 97.2 10.967 97.131 11.104C97.062 11.241 96.989 11.392 96.911 11.558C96.657 12.056 96.384 12.537 96.091 13.001C95.798 13.465 95.522 13.892 95.263 14.283C95.004 14.674 94.784 15.02 94.604 15.323C94.424 15.626 94.313 15.87 94.274 16.055C94.245 16.172 94.23 16.275 94.23 16.363C94.23 16.558 94.279 16.705 94.376 16.802C94.473 16.899 94.601 16.948 94.757 16.948C94.903 16.948 95.062 16.914 95.233 16.845C95.404 16.776 95.611 16.662 95.856 16.501C96.101 16.34 96.396 16.13 96.742 15.871C97.088 15.612 97.506 15.292 97.994 14.912V15.923H97.998Z"/>
  </g>
  <g id="chinese-studies" fill="#9B0C23">
    <path d="M19.7026 41.3932L20.4738 41.6224V42.873H17.1806C15.5539 42.873 14.0323 35.7021 11.9697 35.7021H10.9892V41.3932L12.8443 41.6433V42.873H6.362V41.6224L7.96694 41.3932V28.9488L6.362 28.6779V27.3856H12.5733V28.6779L10.9892 28.9488V34.5357H12.5108L16.2417 28.9488L14.6785 28.6779V27.3856H20.1811V28.6779L18.4511 28.9488L14.3033 34.5974C16.9304 35.2861 18.6187 41.0597 19.7026 41.3932Z"/>
    <path d="M27.9348 27.3856V28.6779L26.0172 28.9488V38.6627L27.4137 36.3282L32.7297 29.4491V28.9488L30.978 28.6779V27.3856H37.3569V28.6779L35.7519 28.9488V41.414L37.4194 41.6224V42.873H30.978V41.6224L32.7297 41.414V31.5751L31.4791 33.8262L26.0172 40.7679V41.414L27.8723 41.6224V42.873H21.3683V41.6224L23.0149 41.414V28.9488L21.41 28.6779V27.3856H27.9348V27.3856Z"/>
    <path d="M44.1301 28.7612L41.1495 28.8654L40.3366 33.4093H38.5849L38.9392 27.3847H52.384L52.6342 33.4093H50.9875L50.1746 28.8654L47.2357 28.7612V41.414L50.1538 41.6224V42.873H41.4613V41.6224L44.1292 41.414V28.7612H44.1301Z"/>
    <path d="M58.7829 27.3022H61.972L66.7868 41.4148L67.9957 41.6233V42.8739H61.8469V41.6233L63.4102 41.4148L62.5973 38.7052H57.1989L56.386 41.4357L58.0743 41.6233V42.8739H52.7592L52.7384 41.6233L53.989 41.4148L58.7829 27.3022ZM60.2203 30.8256L59.8451 29.1998L59.4491 30.8464L57.594 37.2462H62.1795L60.2203 30.8256Z"/>
    <path d="M75.6452 43.1032C70.9346 43.1032 68.3292 39.8933 68.3292 35.2027C68.3292 30.3254 71.5391 27.2197 76.2297 27.2197C78.2515 27.2197 79.8147 27.7616 80.7735 27.8867L80.5859 31.8469H78.585L78.043 29.1373C77.6887 28.8246 77.2718 28.5328 76.0004 28.5328C73.6243 28.5328 71.9359 30.4304 71.7683 34.2239L78.0014 34.0363V35.9539L71.7892 35.7872C71.9976 39.0596 73.3733 41.7701 75.8753 41.7701C77.2927 41.7701 77.8554 41.4366 78.2306 41.1031L79.106 38.8312L80.836 38.8937L80.5851 42.3111C79.4387 42.3936 78.3548 43.1032 75.6452 43.1032Z"/>
    <path d="M87.6093 27.2188C91.236 27.2188 93.3203 28.3652 93.3203 30.7622C93.3203 33.1592 91.4861 34.3472 89.6936 34.7024C92.3615 34.7858 93.7589 36.2449 93.7589 38.2667C93.7589 41.1439 92.1748 42.999 87.4842 42.999C85.1497 42.999 83.7741 42.332 82.8561 42.1444L83.2938 38.3083H84.7737L85.4198 41.143C85.8575 41.4348 86.5871 41.7266 87.796 41.7266C89.4634 41.7266 90.2763 40.5386 90.2763 38.4334C90.2763 37.0577 89.6927 35.5362 87.3157 35.5362H85.94V34.1188H87.0864C88.6288 34.1188 90.1296 33.2017 90.1087 30.9506C90.1087 29.1998 89.004 28.4903 87.4825 28.4903C86.3152 28.4903 85.6274 28.8446 85.3981 29.2198L84.9813 31.2416H83.2721L82.9803 27.865C83.8566 27.8024 86.0451 27.2188 87.6093 27.2188Z"/>
    <path d="M97.0921 28.9488L95.5497 28.6779V27.3856H101.887V28.6779L100.135 28.9488V34.1805H106.472V28.9488L104.868 28.6779V27.3856H111.121V28.6779L109.537 28.9488V41.414L111.121 41.6224V42.873H104.847V41.6224L106.472 41.414V35.7655H100.135V41.414L101.887 41.6224V42.873H95.508V41.6224L97.0921 41.414V28.9488Z"/>
    <path d="M117.706 27.3022H120.895L125.71 41.4148L126.919 41.6233V42.8739H120.769V41.6233L122.332 41.4148L121.52 38.7052H116.121L115.308 41.4357L116.997 41.6233V42.8739H111.681L111.66 41.6233L112.91 41.4148L117.706 27.3022ZM119.144 30.8256L118.769 29.1998L118.373 30.8464L116.518 37.2462H121.104L119.144 30.8256Z"/>
    <path d="M129.107 28.9488L127.481 28.6779V27.3856H130.587C131.88 27.3856 132.88 27.2397 133.943 27.2397C138.362 27.2397 139.612 28.5945 139.612 30.7622C139.612 32.8465 138.237 34.3064 136.257 34.5982C138.987 34.5774 140.675 35.9114 140.675 38.2041C140.675 40.8095 139.175 42.999 134.068 42.999C132.651 42.999 132.025 42.8739 130.608 42.8739H127.46V41.6233L129.107 41.4149V28.9488ZM134.047 34.1605C135.777 34.1605 136.569 33.0141 136.569 31.1382C136.569 29.3457 135.798 28.512 133.776 28.512C133.255 28.512 132.442 28.5745 132.13 28.5954V34.1405C132.588 34.1814 133.547 34.1605 134.047 34.1605ZM133.964 41.685C136.423 41.685 137.32 40.4344 137.32 38.4334C137.32 36.3899 136.382 35.5978 134.318 35.5978C133.672 35.5978 132.567 35.5978 132.129 35.6395V41.4974C132.505 41.6441 133.359 41.685 133.964 41.685Z"/>
    <path d="M147.053 37.162C144.114 37.162 142.716 36.0781 142.716 32.4514V28.9705L141.507 28.6996V27.3864H147.324V28.6996L145.76 28.9497V31.7427C145.76 35.0985 146.281 35.4528 148.262 35.4528C149.241 35.4528 150.388 35.161 150.888 34.8067V28.9488L149.179 28.6779V27.3856H155.62V28.6779L153.932 28.9488V41.414L155.641 41.6433V42.873H148.678V41.6224L150.888 41.414V36.2865C149.888 36.8702 148.262 37.162 147.053 37.162Z"/>
    <path d="M159.142 28.9488L157.37 28.6779V27.3856H164.041V28.6779L162.207 28.9488V41.414L164.041 41.6433V42.873H157.37V41.6224L159.142 41.414V28.9488Z"/>
    <path d="M184.467 46.98H182.779C182.758 46.3964 182.362 43.1648 182.174 42.873H173.003C172.773 43.144 172.127 46.2496 172.002 47H170.272C170.293 46.4997 170.397 42.5604 170.481 41.3923H171.981C172.732 40.3709 174.525 36.8693 174.525 29.9484V28.9479L172.356 28.677V27.3847H184.926V28.677L182.925 28.9479V41.3923H184.884C184.884 42.2903 184.53 46.7507 184.467 46.98ZM174.066 41.3931H179.903L179.923 28.8029H176.047V30.0743C176.087 36.2865 174.753 40.1434 174.066 41.3931Z"/>
    <path d="M186.342 35.1818C186.342 30.3045 189.219 27.1771 193.451 27.198C198.161 27.198 200.288 30.2203 200.288 34.9109C200.288 39.7891 197.391 43.0615 193.201 43.1032C188.468 43.1449 186.342 39.9133 186.342 35.1818ZM189.698 35.161C189.698 39.5798 191.011 41.8317 193.283 41.8317C195.493 41.8317 196.889 39.4556 196.889 34.9109C196.889 30.4921 195.576 28.4694 193.325 28.4694C191.095 28.4694 189.698 30.6371 189.698 35.161Z"/>
    <path d="M201.495 35.2027C201.495 30.2837 204.768 27.2197 209.125 27.2197C211.126 27.2197 213.064 27.6991 213.877 27.7825L213.648 32.0762H211.73L211.084 29.0956C210.813 28.8246 210.105 28.5745 208.854 28.5745C206.56 28.5745 204.935 30.7005 204.935 34.9534C204.935 38.7678 206.227 41.7492 208.936 41.7492C210.312 41.7492 210.854 41.4366 211.251 41.0614L212.168 38.9145L213.919 39.0813L213.502 42.312C212.189 42.4162 211.354 43.104 208.791 43.104C203.955 43.1032 201.495 39.9758 201.495 35.2027Z"/>
    <path d="M219.316 41.4557C218.753 42.4978 217.982 42.9981 216.919 42.9981C216.231 42.9981 215.668 42.9564 215.314 42.873L215.126 40.9971C215.543 41.0388 215.96 41.0805 216.71 41.0805C217.231 41.0805 217.627 40.8929 217.961 40.2259C218.794 38.7669 219.357 35.9114 219.357 30.1994V28.9488L216.856 28.6779V27.3856H229.759V28.6779L227.841 28.9488V41.414L229.863 41.6224V42.873H222.671V41.6224L224.819 41.3932L224.84 28.9488H220.879V30.5954C220.88 35.1193 220.442 39.413 219.316 41.4557Z"/>
    <path d="M233.051 28.9488L231.28 28.6779V27.3856H237.95V28.6779L236.116 28.9488V41.414L237.95 41.6433V42.873H231.28V41.6224L233.051 41.414V28.9488Z"/>
    <path d="M253.437 46.98H251.749C251.728 46.3964 251.332 43.1648 251.144 42.873H241.972C241.743 43.144 241.097 46.2496 240.972 47H239.242C239.263 46.4997 239.367 42.5604 239.45 41.3923H240.951C241.701 40.3709 243.495 36.8693 243.495 29.9484V28.9479L241.326 28.677V27.3847H253.896V28.677L251.895 28.9479V41.3923H253.854C253.854 42.2903 253.5 46.7507 253.437 46.98ZM243.035 41.3931H248.872L248.893 28.8029H245.016V30.0743C245.058 36.2865 243.723 40.1434 243.035 41.3931Z"/>
    <path d="M275.907 41.3932L276.699 41.6224V42.873H273.364C271.759 42.873 270.175 35.7021 268.09 35.7021H267.173V41.3932L269.028 41.6433V42.873H262.482V41.6224L264.255 41.414V35.7021H263.317C261.253 35.7021 259.607 42.873 257.96 42.873H254.749V41.6224L255.5 41.3932C256.583 41.0597 258.293 35.4519 260.899 34.6182L256.792 28.9488L255.083 28.6779V27.3856H260.524V28.6779L259.022 28.9488L262.691 34.5357H264.255V28.9488L262.545 28.6779V27.3856H268.904V28.6779L267.174 28.9488V34.5357H268.737L272.385 28.9488L270.884 28.6779V27.3856H276.366V28.6779L274.636 28.9488L270.509 34.639C273.135 35.4528 274.823 41.0597 275.907 41.3932Z"/>
    <path d="M279.198 28.9488L277.531 28.6779V27.3856H288.641L288.912 30.8873H287.453L286.765 28.8238L282.262 28.6362V34.2439L285.16 34.1814L285.493 32.4722H286.827V37.5172H285.493L285.16 35.7246L282.262 35.6621V41.5408L287.307 41.2907L288.516 38.6227L290.079 39.0604L289.538 42.8756H277.552V41.625L279.198 41.4166V28.9488V28.9488Z"/>
    <path d="M292.872 28.9488L291.329 28.6779V27.3856H297.666V28.6779L295.915 28.9488V34.1805H302.252V28.9488L300.647 28.6779V27.3856H306.901V28.6779L305.317 28.9488V41.414L306.901 41.6224V42.873H300.626V41.6224L302.252 41.414V35.7655H295.915V41.414L297.666 41.6224V42.873H291.288V41.6224L292.872 41.414V28.9488Z"/>
    <path d="M310.276 28.9488L308.733 28.6779V27.3856H315.071V28.6779L313.319 28.9488V34.1805H319.656V28.9488L318.051 28.6779V27.3856H324.305V28.6779L322.721 28.9488V41.414L324.305 41.6224V42.873H318.03V41.6224L319.656 41.414V35.7655H313.319V41.414L315.071 41.6224V42.873H308.692V41.6224L310.276 41.414V28.9488Z"/>
    <path d="M332.182 36.224C330.702 37.1411 329.639 42.8739 328.701 42.8739H325.179V41.6441L325.929 41.4148C326.971 41.1439 327.827 36.6617 329.931 35.7455C327.93 35.2244 326.888 33.5152 326.888 31.5759C326.888 28.3244 328.931 27.2405 332.746 27.2405C334.163 27.2405 334.934 27.3864 336.164 27.3864H339.416V28.6787L337.749 28.9497V41.4148L339.541 41.6441V42.8739H332.807V41.6441L334.704 41.4148V36.224H332.182V36.224ZM332.953 28.5319C331.244 28.5319 330.077 29.1572 330.077 31.5134C330.077 33.8062 331.098 34.9526 332.974 34.9526C333.704 34.9526 334.412 34.9317 334.704 34.8692V28.657C334.287 28.6153 333.933 28.5319 332.953 28.5319Z"/>
  </g>
</svg>
