<svg width="230" height="47" viewBox="0 0 230 47" xmlns="http://www.w3.org/2000/svg">
  <g id="journal" fill="#111111">
    <path d="M13.0131 16.3154L9.00674 18.6133C8.12313 20.1351 7.23451 21.57 6.34086 22.9181C5.45726 24.2765 4.66904 25.3948 3.97622 26.2731C3.29343 27.1616 2.70102 27.8357 2.19897 28.2953C1.69692 28.7651 1.32541 29 1.08442 29C0.763113 29 0.502048 28.8877 0.301229 28.663C0.10041 28.4485 0 28.1932 0 27.897C0 26.794 0.607478 25.4101 1.82243 23.7454C3.04743 22.0909 4.98031 20.3291 7.62109 18.4601C8.76576 16.2235 9.7096 14.1911 10.4526 12.3629C11.1957 10.5348 11.763 8.97218 12.1546 7.67512C12.5462 6.37806 12.8173 5.33633 12.9679 4.54992C13.1286 3.76351 13.2089 3.26307 13.2089 3.0486C13.2089 2.60944 13.0432 2.38986 12.7119 2.38986C12.4407 2.38986 12.0391 2.54816 11.5069 2.86477C10.9848 3.18137 10.4175 3.65628 9.80499 4.28949C9.1925 4.91248 8.62016 5.63761 8.08799 6.46487C7.55582 7.28192 7.06883 8.20109 6.62703 9.2224C6.19527 10.2335 5.8589 11.168 5.61792 12.0259C5.38697 12.8838 5.2715 13.5732 5.2715 14.094C5.2715 14.2268 5.29158 14.5179 5.33175 14.9672C5.42212 14.8243 5.53257 14.6506 5.6631 14.4464C5.79363 14.2421 5.95931 14.0328 6.16013 13.8183C6.36095 13.6038 6.57181 13.4251 6.79271 13.2821C6.92324 13.18 7.07887 13.0983 7.25961 13.037C7.44035 12.9655 7.53072 12.9706 7.53072 13.0523C7.53072 13.1136 7.24455 13.5017 6.67222 14.2166C6.09988 14.9213 5.60285 15.5596 5.18113 16.1315C4.94015 16.4584 4.61884 16.7647 4.2172 17.0507C3.81556 17.3367 3.48923 17.4797 3.23821 17.4797C2.93698 17.4797 2.73616 17.3367 2.63575 17.0507C2.54538 16.7647 2.5002 16.3103 2.5002 15.6873C2.5002 14.1859 2.75122 12.5161 3.25327 10.6778C3.76536 8.83941 4.44814 7.22574 5.30163 5.83677C5.99445 4.73376 6.84291 3.73798 7.84701 2.84945C8.8511 1.9507 9.82508 1.2511 10.7689 0.75066C11.7228 0.25022 12.4709 0 13.0131 0C13.6758 0 14.1879 0.214474 14.5493 0.643423C14.9108 1.06216 15.0916 1.6443 15.0916 2.38986C15.0916 2.75753 15.0464 3.17116 14.956 3.63075C14.8757 4.09033 14.7702 4.55503 14.6397 5.02483C14.5092 5.49463 14.2833 6.2504 13.962 7.29213C13.6406 8.33386 13.4298 9.02324 13.3294 9.36028C13.0181 10.4122 12.6064 11.4948 12.0943 12.608C11.5923 13.711 10.8744 15.1766 9.94055 17.0048L13.0131 15.3196V16.3154Z"/>
    <path d="M22.7277 15.197V16.2235C22.065 16.8362 21.5328 17.2448 21.1312 17.449C20.7296 17.6533 20.1522 17.735 19.3991 17.6941C18.0938 19.2669 16.9441 20.0534 15.9501 20.0534C15.3878 20.0534 14.8757 19.8644 14.4138 19.4865C13.9519 19.1086 13.5804 18.5929 13.2992 17.9393C13.0281 17.2856 12.8926 16.5554 12.8926 15.7485C12.8926 15.0949 13.1034 14.3698 13.5252 13.5732C13.9569 12.7765 14.5092 12.0361 15.1819 11.3518C15.8647 10.6573 16.5927 10.1007 17.3658 9.68199C18.139 9.25304 18.8569 9.03856 19.5196 9.03856C19.9915 9.03856 20.3631 9.11516 20.6342 9.26836C20.9053 9.41134 21.0408 9.6156 21.0408 9.88114C21.0408 10.0854 20.9254 10.3203 20.6944 10.5858C21.076 10.6675 21.337 10.8054 21.4776 10.9995C21.6182 11.1833 21.6885 11.5254 21.6885 12.0259C21.6885 12.5161 21.573 13.134 21.3421 13.8796C21.1212 14.6251 20.8149 15.3247 20.4233 15.9783L20.6944 16.2541H20.9203C21.091 16.2541 21.2567 16.2132 21.4174 16.1315C21.5881 16.0396 21.7387 15.9477 21.8692 15.8558C21.9997 15.7537 22.2859 15.5341 22.7277 15.197ZM19.625 11.168C18.7917 11.6786 18.0787 12.1433 17.4863 12.5621C16.8939 12.9706 16.3919 13.3893 15.9802 13.8183C15.5685 14.237 15.2924 14.6609 15.1518 15.0898C14.9008 16.2337 14.7753 16.8516 14.7753 16.9435C14.7753 17.6175 15.2372 17.9546 16.1609 17.9546C16.5927 17.9546 17.3156 17.5767 18.3298 16.8209C18.1591 16.3409 18.0737 15.8813 18.0737 15.4422C18.0737 14.7987 18.2043 14.1451 18.4653 13.4812C18.7264 12.8072 19.113 12.0361 19.625 11.168Z"/>
    <path d="M29.8066 14.1859C28.3506 16.1469 27.2411 17.5409 26.478 18.3682C25.7249 19.1955 25.1074 19.6091 24.6254 19.6091C24.2439 19.6091 23.8925 19.4508 23.5711 19.1342C23.2498 18.8074 22.9988 18.3733 22.8181 17.832C22.6474 17.2805 22.562 16.6933 22.562 16.0703C22.562 15.6617 22.5972 15.2941 22.6675 14.9672C22.7478 14.6404 22.8934 14.283 23.1042 13.8949C23.3151 13.4966 23.5912 13.0676 23.9326 12.608C24.2841 12.1484 24.7108 11.6276 25.2128 11.0454C25.5141 10.688 25.7651 10.3867 25.9659 10.1416C26.1768 9.89646 26.3776 9.73305 26.5684 9.65135C26.7692 9.55943 27.0905 9.51347 27.5323 9.51347C27.8536 9.51347 28.1599 9.55943 28.4511 9.65135C28.7422 9.73305 28.8878 9.81986 28.8878 9.91178C28.8878 10.0956 28.7372 10.4275 28.436 10.9076C28.1448 11.3876 27.6679 11.9748 27.0052 12.6693C26.3525 13.3536 25.5944 14.0276 24.7309 14.6915C24.5401 15.2941 24.4447 15.7537 24.4447 16.0703C24.4447 16.5094 24.6104 16.729 24.9417 16.729C25.0622 16.729 25.263 16.6269 25.5442 16.4226C25.8253 16.2081 26.2973 15.8047 26.96 15.2124C27.6327 14.6098 28.2352 14.0787 28.7673 13.6191C29.1589 13.2719 29.6108 12.7561 30.1229 12.0718C30.645 11.3774 31.0667 10.8565 31.388 10.5092C32.1311 9.71263 32.6381 9.19687 32.9092 8.96197C33.1803 8.71685 33.4414 8.5943 33.6924 8.5943C33.9334 8.5943 34.0941 8.67089 34.1744 8.82409C34.2648 8.97729 34.3099 9.28878 34.3099 9.75858C34.3099 9.97306 34.2899 10.1467 34.2497 10.2795C34.2095 10.4122 34.1242 10.5858 33.9937 10.8003C33.8732 11.0046 33.6221 11.3876 33.2406 11.9493C32.859 12.511 32.4072 13.1749 31.8851 13.9408C31.6039 14.3494 31.3579 14.7987 31.147 15.289C30.9362 15.769 30.8308 16.1315 30.8308 16.3767C30.8308 16.9077 31.0366 17.1733 31.4483 17.1733C31.7897 17.1733 32.1863 17.0303 32.6381 16.7443C33.09 16.4584 33.7828 15.9426 34.7166 15.197V16.2235C33.5418 17.3265 32.6733 18.1282 32.111 18.6286C31.5487 19.1291 31.0617 19.507 30.65 19.7623C30.2383 20.0176 29.8467 20.1453 29.4752 20.1453C28.6318 20.1453 28.2101 19.6346 28.2101 18.6133C28.2101 18.2252 28.3356 17.7044 28.5866 17.0507C28.8376 16.3869 29.2443 15.4319 29.8066 14.1859Z"/>
    <path d="M34.4304 16.4073V15.4115C34.9727 14.7579 35.3843 14.2013 35.6655 13.7417C35.3442 13.6293 35.1082 13.4915 34.9576 13.3281C34.817 13.1646 34.7467 12.9195 34.7467 12.5927C34.7467 12.225 34.8973 11.7603 35.1986 11.1986C35.4998 10.6369 35.8713 10.1109 36.3131 9.62071C36.7549 9.13048 37.1566 8.81388 37.518 8.67089C37.6586 8.5994 37.7942 8.56366 37.9247 8.56366C38.1255 8.56366 38.2259 8.66068 38.2259 8.85473C38.2259 9.02835 38.0703 9.3807 37.759 9.91178C39.8275 9.58496 41.1328 9.42155 41.675 9.42155C41.8859 9.42155 42.0314 9.44198 42.1118 9.48283C42.2825 9.57475 42.423 9.78922 42.5335 10.1263C42.6439 10.4633 42.6992 10.8003 42.6992 11.1373C42.6992 11.3518 42.6038 11.5867 42.413 11.8421C42.2323 12.0872 41.916 12.4497 41.4641 12.9297C40.932 13.5119 40.4851 14.1451 40.1237 14.8294C39.7622 15.5136 39.5815 16.0294 39.5815 16.3767C39.5815 16.8567 39.8726 17.0967 40.455 17.0967C41.0675 17.0967 42.1319 16.4635 43.648 15.197V16.2235C42.8146 17.112 42.1268 17.8116 41.5846 18.3222C41.0424 18.8329 40.5404 19.2414 40.0785 19.5478C39.6166 19.844 39.2049 19.9921 38.8434 19.9921C38.4217 19.9921 38.0703 19.798 37.7891 19.4099C37.508 19.0116 37.3674 18.4397 37.3674 17.6941C37.3674 17.255 37.4779 16.7545 37.6988 16.1928C37.9197 15.6311 38.241 15.0234 38.6627 14.3698C39.0945 13.7059 39.5764 13.0472 40.1086 12.3936C39.8275 12.4548 39.5112 12.5212 39.1597 12.5927C38.8083 12.654 38.4368 12.7204 38.0452 12.7919C37.6536 12.8634 37.3524 12.9195 37.1415 12.9604C36.519 14.2268 35.6153 15.3758 34.4304 16.4073Z"/>
    <path d="M53.7392 12.4548C51.972 14.4566 51.0884 15.8507 51.0884 16.6371C51.0884 17.0762 51.2641 17.2958 51.6155 17.2958C51.9067 17.2958 52.2833 17.1426 52.7451 16.8362C53.2171 16.5196 53.9501 15.963 54.9441 15.1664V16.2235C53.5183 17.6533 52.4238 18.6848 51.6607 19.318C50.8976 19.9512 50.2751 20.2678 49.7931 20.2678C48.9697 20.2678 48.5581 19.7163 48.5581 18.6133C48.5581 18.2865 48.6083 17.9648 48.7087 17.6482C48.8091 17.3316 48.9446 17.0048 49.1153 16.6677C49.2961 16.3205 49.5672 15.8303 49.9287 15.197C50.2901 14.5536 50.7068 13.8285 51.1788 13.0217C50.6064 13.3178 49.8885 13.9051 49.025 14.7834C48.4627 15.3349 47.9857 15.8609 47.5941 16.3613C47.2025 16.8516 46.7808 17.4031 46.329 18.0158C45.8872 18.6184 45.5608 19.0269 45.35 19.2414C45.1492 19.4457 44.9433 19.5478 44.7325 19.5478C44.4112 19.5478 44.1149 19.2057 43.8438 18.5214C43.5727 17.8371 43.4372 17.0405 43.4372 16.1315C43.4372 15.5698 43.4974 15.1307 43.6179 14.8141C43.7484 14.4974 43.9995 14.0481 44.371 13.4659C45.0638 12.3833 45.6612 11.5918 46.1633 11.0914C46.6653 10.5807 47.1473 10.3254 47.6092 10.3254C47.9305 10.3254 48.1866 10.3816 48.3773 10.4939C48.5781 10.6063 48.6786 10.7799 48.6786 11.0148C48.6786 11.1169 48.6484 11.2242 48.5882 11.3365C48.5279 11.4488 48.4577 11.551 48.3773 11.6429C48.307 11.7348 48.1514 11.9135 47.9104 12.1791C46.324 13.9664 45.5307 15.1256 45.5307 15.6566C45.5307 15.9528 45.6261 16.1009 45.8169 16.1009C45.9374 16.1009 46.1683 15.9069 46.5097 15.5188C46.8611 15.1204 47.308 14.6047 47.8502 13.9715C48.4024 13.3281 49.0501 12.6591 49.7931 11.9646C50.5462 11.2701 51.3997 10.6012 52.3535 9.95774C52.8857 9.57986 53.3275 9.39091 53.679 9.39091C53.8396 9.39091 53.9952 9.6156 54.1459 10.065C54.3065 10.5144 54.3868 10.9688 54.3868 11.4284C54.3868 11.6531 54.171 11.9952 53.7392 12.4548Z"/>
    <path d="M56.6159 12.4855C58.1422 11.0761 59.6232 10.0292 61.0591 9.34496C62.4949 8.66068 63.6044 8.31854 64.3876 8.31854C64.5985 8.31854 64.7943 8.41046 64.975 8.5943C65.1558 8.76792 65.2963 8.97218 65.3968 9.20708C65.5072 9.44198 65.5624 9.6156 65.5624 9.72795C65.5624 9.91178 65.4921 10.0497 65.3516 10.1416C65.211 10.2233 64.965 10.3254 64.6136 10.448C64.6838 10.6114 64.7742 10.8207 64.8847 11.0761C64.9951 11.3314 65.0805 11.5408 65.1407 11.7042C65.201 11.8574 65.2311 11.9952 65.2311 12.1178C65.2311 12.3629 64.9851 12.8225 64.4931 13.4966C64.0111 14.1604 63.6697 14.6506 63.4689 14.9672C63.2781 15.2839 63.1827 15.6719 63.1827 16.1315C63.1827 16.8873 63.5241 17.2652 64.2069 17.2652C64.9098 17.2652 66.0092 16.5962 67.5054 15.2583V16.1928C64.965 19.0627 63.1476 20.4976 62.0531 20.4976C61.6615 20.4976 61.3804 20.3649 61.2097 20.0993C61.049 19.844 60.9687 19.461 60.9687 18.9503C60.9687 18.1435 61.2549 16.9741 61.8272 15.4422C60.3612 17.0967 59.2718 18.2763 58.5589 18.981C57.846 19.6755 57.2586 20.0227 56.7967 20.0227C56.5758 20.0227 56.2996 19.8287 55.9683 19.4406C55.6369 19.0525 55.3407 18.552 55.0797 17.9393C54.8286 17.3163 54.7031 16.6728 54.7031 16.009C54.7031 15.529 54.7483 15.1307 54.8387 14.8141C54.9291 14.4872 55.1048 14.1553 55.3658 13.8183C55.6269 13.4812 56.0436 13.037 56.6159 12.4855ZM63.8304 10.8003C61.2197 12.0157 59.3571 13.0472 58.2426 13.8949C57.1381 14.7426 56.5858 15.6158 56.5858 16.5145C56.5858 16.8413 56.641 17.112 56.7515 17.3265C56.8619 17.5307 57.0126 17.6329 57.2033 17.6329C57.3138 17.6329 57.5096 17.5614 57.7907 17.4184C58.845 16.7852 59.809 15.963 60.6825 14.9519C61.5561 13.9306 62.6054 12.5468 63.8304 10.8003Z"/>
    <path d="M74.5842 15.0592V16.1928C72.4857 19.0218 70.7787 20.4363 69.4633 20.4363C68.7504 20.4363 68.1881 20.0431 67.7765 19.2567C67.3748 18.4601 67.174 17.4184 67.174 16.1315C67.174 15.0898 67.415 13.854 67.8969 12.4242C68.3789 10.9842 69.0215 9.52879 69.8248 8.05811C70.6381 6.57721 71.4765 5.29037 72.3401 4.19757C73.2136 3.09456 74.0219 2.32347 74.765 1.88431C75.0662 1.70048 75.3022 1.60856 75.4728 1.60856C75.6837 1.60856 75.8243 1.70558 75.8946 1.89963C75.9649 2.08347 76 2.40518 76 2.86477C76 4.28438 75.4327 6.03082 74.2981 8.10407C73.1634 10.1671 71.582 12.2761 69.5537 14.4311C69.4533 14.9621 69.4031 15.3707 69.4031 15.6566C69.4031 16.3103 69.5386 16.8413 69.8098 17.2499C70.0909 17.6584 70.4775 17.8627 70.9695 17.8627C71.2205 17.8627 71.4916 17.7656 71.7828 17.5716C72.074 17.3673 72.3802 17.1171 72.7015 16.8209C73.0229 16.5247 73.6504 15.9375 74.5842 15.0592ZM70.0809 12.3016C70.603 11.7808 71.105 11.1884 71.587 10.5246C72.079 9.86072 72.5409 9.15091 72.9727 8.39514C73.4044 7.63937 73.7408 6.9602 73.9818 6.35763C74.2328 5.75506 74.3583 5.30058 74.3583 4.99419C74.3583 4.75929 74.278 4.64184 74.1173 4.64184C74.0571 4.64184 73.9416 4.69801 73.7709 4.81035C73.1584 5.32101 72.4706 6.32189 71.7075 7.813C70.9444 9.29389 70.4022 10.7901 70.0809 12.3016Z"/>
  </g>
  <g id="chinese-studies" fill="#9B0C23">
    <path d="M14.4417 47C17.4084 47 18.3732 46.2215 19.8927 46.1035L20.3751 42.4469L18.3491 42.2582L17.2878 44.6881C16.8295 45.1127 16.2024 45.4666 14.6106 45.4666C11.4751 45.4666 9.97968 42.0931 9.97968 37.7759C9.97968 32.9633 11.861 30.557 14.5141 30.557C15.9613 30.557 16.7813 30.8401 17.0949 31.1468L17.8426 34.5203H20.0615L20.3268 29.6606C19.3862 29.5662 17.1431 29.0236 14.8276 29.0236C9.78672 29.0236 6 32.4915 6 38.059C6 43.4613 8.84607 47 14.4417 47Z"/>
    <path d="M24.0461 45.0891L22.213 45.325V46.7405H29.5935V45.325L27.5675 45.0891V38.6959H34.8998V45.0891L33.0185 45.325V46.7405H40.2784V45.325L38.4453 45.0891V30.9817L40.2784 30.675V29.2123H33.0426V30.675L34.8998 30.9817V36.903H27.5675V30.9817L29.5935 30.675V29.2123H22.2613V30.675L24.0461 30.9817V45.0891Z"/>
    <path d="M44.4742 45.0891L42.424 45.325V46.7405H50.1422V45.3486L48.0197 45.0891V30.9817L50.1422 30.675V29.2123H42.424V30.675L44.4742 30.9817V45.0891Z"/>
    <path d="M54.1009 45.0891L52.1955 45.325V46.7405H58.5871V45.325L56.1511 45.0891V32.4679L57.8394 35.5819L65.3405 46.7405H68.2589V30.9817L70.1161 30.675V29.2123H64.1346V30.675L66.2088 30.9817V42.5177L64.8581 39.8283L57.6706 29.2123H52.1955V30.675L54.1009 30.9817V45.0891Z"/>
    <path d="M73.4382 45.0891L71.5328 45.325V46.7405H85.4013L86.0284 42.4233L84.2195 41.9279L82.8206 44.9476L76.9837 45.2307V38.578L80.3363 38.6488L80.7222 40.6776H82.2658V34.9685H80.7222L80.3363 36.903L76.9837 36.9738V30.6278L82.1935 30.8401L82.9894 33.1756H84.6777L84.3642 29.2123H71.5086V30.675L73.4382 30.9817V45.0891Z"/>
    <path d="M93.5602 47C98.5529 47 100.241 44.1455 100.241 41.7864C100.241 38.9318 97.5881 37.5872 95.5621 36.6435C93.1984 35.5111 91.2689 34.6855 91.2689 32.8218C91.2689 31.4299 92.1854 30.4391 94.1873 30.4391C95.3451 30.4391 96.2616 30.7929 96.5028 31.0524L97.0093 33.9541H98.9388L99.0835 29.8257C98.3841 29.7785 96.6957 29 94.0909 29C89.9665 29 87.9163 31.1468 87.9163 33.7182C87.9163 36.9266 90.6659 38.3657 92.5472 39.2149C95.0315 40.3001 96.6716 41.1258 96.6716 42.848C96.6716 44.4522 95.6345 45.4902 93.4396 45.4902C91.9684 45.4902 90.8589 45.0419 90.473 44.6409L89.9423 41.5976H87.9887L87.7716 45.962C88.5675 46.0092 90.6659 47 93.5602 47Z"/>
    <path d="M103.776 45.0891L101.87 45.325V46.7405H115.739L116.366 42.4233L114.557 41.9279L113.158 44.9476L107.321 45.2307V38.578L110.674 38.6488L111.06 40.6776H112.603V34.9685H111.06L110.674 36.903L107.321 36.9738V30.6278L112.531 30.8401L113.327 33.1756H115.015L114.702 29.2123H101.846V30.675L103.776 30.9817V45.0891Z"/>
    <path d="M129.621 47C134.614 47 136.302 44.1455 136.302 41.7864C136.302 38.9318 133.649 37.5872 131.623 36.6435C129.26 35.5111 127.33 34.6855 127.33 32.8218C127.33 31.4299 128.247 30.4391 130.248 30.4391C131.406 30.4391 132.323 30.7929 132.564 31.0524L133.07 33.9541H135L135.145 29.8257C134.445 29.7785 132.757 29 130.152 29C126.028 29 123.977 31.1468 123.977 33.7182C123.977 36.9266 126.727 38.3657 128.608 39.2149C131.093 40.3001 132.733 41.1258 132.733 42.848C132.733 44.4522 131.696 45.4902 129.501 45.4902C128.029 45.4902 126.92 45.0419 126.534 44.6409L126.003 41.5976H124.05L123.833 45.962C124.629 46.0092 126.727 47 129.621 47Z"/>
    <path d="M143.792 45.0891L140.705 45.325V46.7405H150.763V45.325L147.386 45.0891V30.7693L150.787 30.8873L151.728 36.0301H153.633L153.344 29.2123H137.787L137.377 36.0301H139.403L140.343 30.8873L143.792 30.7693V45.0891Z"/>
    <path d="M163.447 46.9292C167.331 46.9292 170.177 44.8296 170.177 39.7104V30.9817L171.817 30.675V29.2123H165.787V30.675L167.861 31.0052V39.8991C167.861 43.249 166.679 45.4194 163.93 45.4194C161.277 45.4194 159.854 43.6501 159.854 39.8047V31.0052L161.904 30.675V29.2123H154.62V30.675L156.212 30.9817V39.498C156.212 44.6645 158.599 46.9292 163.447 46.9292Z"/>
    <path d="M174.932 45.0891L173.027 45.325V46.7405H176.693C177.754 46.7405 179.298 46.882 180.552 46.9292C186.172 47.0472 189.741 43.0131 189.741 37.3748C189.741 32.1848 186.944 29.0472 180.89 29.0472C179.394 29.0472 178.188 29.2123 176.645 29.2123H173.123V30.675L174.932 30.9817V45.0891ZM178.429 45.1599V30.7221C178.815 30.6986 179.442 30.557 180.335 30.557C184.242 30.557 185.882 33.3879 185.882 37.9174C185.882 43.0131 183.808 45.325 180.721 45.3722C179.901 45.3722 179.153 45.3486 178.429 45.1599Z"/>
    <path d="M193.594 45.0891L191.544 45.325V46.7405H199.262V45.3486L197.14 45.0891V30.9817L199.262 30.675V29.2123H191.544V30.675L193.594 30.9817V45.0891Z"/>
    <path d="M203.197 45.0891L201.292 45.325V46.7405H215.16L215.787 42.4233L213.978 41.9279L212.579 44.9476L206.742 45.2307V38.578L210.095 38.6488L210.481 40.6776H212.025V34.9685H210.481L210.095 36.903L206.742 36.9738V30.6278L211.952 30.8401L212.748 33.1756H214.436L214.123 29.2123H201.267V30.675L203.197 30.9817V45.0891Z"/>
    <path d="M223.319 47C228.312 47 230 44.1455 230 41.7864C230 38.9318 227.347 37.5872 225.321 36.6435C222.957 35.5111 221.028 34.6855 221.028 32.8218C221.028 31.4299 221.944 30.4391 223.946 30.4391C225.104 30.4391 226.02 30.7929 226.262 31.0524L226.768 33.9541H228.698L228.842 29.8257C228.143 29.7785 226.454 29 223.85 29C219.725 29 217.675 31.1468 217.675 33.7182C217.675 36.9266 220.425 38.3657 222.306 39.2149C224.79 40.3001 226.43 41.1258 226.43 42.848C226.43 44.4522 225.393 45.4902 223.198 45.4902C221.727 45.4902 220.618 45.0419 220.232 44.6409L219.701 41.5976H217.747L217.53 45.962C218.326 46.0092 220.425 47 223.319 47Z"/>
  </g>
</svg>
