<svg width="300" height="50" viewBox="0 0 300 50" fill="none" xmlns="http://www.w3.org/2000/svg">
<path d="M54.169 23.2381L50.0228 27.1782C47.2026 24.2068 44.0298 22.721 40.5043 22.721C37.5287 22.721 35.0221 23.7351 32.9839 25.7626C30.9468 27.7912 29.9274 30.2904 29.9274 33.2618C29.9274 35.3315 30.3789 37.1704 31.282 38.7757C32.184 40.3806 33.4597 41.6418 35.1104 42.5567C36.76 43.4717 38.5941 43.9297 40.6101 43.9297C42.33 43.9297 43.9034 43.6098 45.3267 42.9683C46.7506 42.328 48.3161 41.1617 50.0228 39.4735L54.0426 43.653C51.7422 45.8918 49.5681 47.4429 47.522 48.3089C45.4753 49.1748 43.1389 49.607 40.5139 49.607C35.6729 49.607 31.7097 48.0775 28.6262 45.017C25.5417 41.9564 24 38.0347 24 33.2513C24 30.156 24.7016 27.4048 26.1069 24.9989C27.5107 22.594 29.5224 20.6593 32.1406 19.1957C34.7583 17.7321 37.5779 17 40.5984 17C43.1664 17 45.6403 17.5413 48.0184 18.6228C50.3971 19.7053 52.4475 21.2437 54.169 23.2381Z" fill="#9D0032"/>
<path d="M56.6825 24.9146H61.8607L65.3735 29.7428L68.8678 24.9146H73.9587L67.9256 33.2508L74.7481 42.6289H69.5699L65.3428 36.8183L61.1374 42.6289H56.0459L62.7907 33.3103L56.6825 24.9146Z" fill="#9D0032"/>
<path d="M78.7579 17.6198C79.5398 17.6198 80.2097 17.9028 80.7691 18.4668C81.3285 19.0307 81.6082 19.7148 81.6082 20.5185C81.6082 21.3112 81.3317 21.9863 80.7776 22.5455C80.224 23.1047 79.5615 23.3846 78.7907 23.3846C77.9981 23.3846 77.3219 23.0994 76.7625 22.5292C76.2031 21.96 75.924 21.2674 75.924 20.4537C75.924 19.6721 76.2005 19.0049 76.7546 18.4509C77.3081 17.897 77.9754 17.6198 78.7579 17.6198ZM76.5283 24.9146H80.9875V42.6295H76.5283V24.9146Z" fill="#9D0032"/>
<path d="M87.341 42.6295V45.7074H83.372V38.868H86.0467L92.1825 24.9146H95.0576L101.278 38.868H104.002V45.7074H99.7552V42.6295H87.341ZM96.5401 38.868L93.6216 31.3961L90.6058 38.868H96.5401Z" fill="#9D0032"/>
<path d="M111.254 31.297H117.918V24.9146H122.378V42.6295H117.918V35.2857H111.254V42.6295H106.795V24.9146H111.254V31.297Z" fill="#9D0032"/>
<path d="M129.237 42.6295H126.869V24.9146H131.214V35.3189L140.312 24.9146H142.452V42.6295H138.107V32.437L129.237 42.6295Z" fill="#9D0032"/>
<path d="M149.312 42.6295H146.944V24.9146H151.288V35.3189L160.387 24.9146H162.526V42.6295H158.181V32.437L149.312 42.6295ZM148.201 17.0991H151.811C152.094 17.545 152.489 17.8786 152.995 18.1005C153.501 18.3229 154.119 18.4341 154.849 18.4341C155.589 18.4341 156.259 18.3044 156.858 18.0436C157.25 17.8702 157.593 17.555 157.887 17.0991H161.497C161.29 18.4778 160.628 19.5852 159.512 20.421C158.396 21.2569 156.836 21.6749 154.832 21.6749C153.482 21.6749 152.352 21.4878 151.443 21.113C150.533 20.7383 149.802 20.2039 149.247 19.5093C148.691 18.8146 148.343 18.0114 148.201 17.0991Z" fill="#9D0032"/>
<path d="M206.514 23.3213L202.368 27.2615C199.548 24.29 196.375 22.8043 192.85 22.8043C189.874 22.8043 187.367 23.8188 185.329 25.8464C183.292 27.875 182.273 30.3737 182.273 33.3456C182.273 35.4153 182.724 37.2542 183.627 38.8585C184.529 40.4644 185.805 41.7245 187.455 42.6405C189.105 43.5555 190.939 44.0135 192.955 44.0135C194.675 44.0135 196.248 43.6935 197.672 43.0521C199.096 42.4118 200.661 41.2455 202.368 39.5573L206.387 43.7368C204.086 45.9746 201.913 47.5267 199.867 48.3916C197.821 49.2586 195.484 49.6907 192.859 49.6907C188.018 49.6907 184.055 48.1613 180.972 45.1008C177.887 42.0402 176.345 38.1185 176.345 33.3351C176.345 30.2398 177.047 27.4881 178.452 25.0827C179.855 22.6773 181.867 20.743 184.485 19.2789C187.104 17.8159 189.923 17.0838 192.943 17.0838C195.512 17.0838 197.985 17.6251 200.364 18.706C202.742 19.7891 204.792 21.327 206.514 23.3213Z" fill="#9D0032"/>
<path d="M209.1 42.6295V24.9146H216.238C218.579 24.9146 220.169 25.3731 221.007 26.2902C221.845 27.2072 222.265 28.247 222.265 29.4081C222.265 31.1342 221.404 32.3775 219.684 33.1369C222.036 33.9401 223.212 35.4543 223.212 37.68C223.212 38.8843 222.902 39.8809 222.281 40.6673C221.66 41.4547 220.874 41.9775 219.921 42.2389C218.968 42.4993 217.637 42.6289 215.927 42.6289H209.1V42.6295ZM213.559 31.8836H215.281C216.014 31.8836 216.58 31.7018 216.979 31.3381C217.378 30.975 217.578 30.5708 217.578 30.1249C217.578 29.4629 217.386 28.9475 217.004 28.578C216.621 28.2091 216.167 28.0246 215.643 28.0246L215.068 28.0405H213.559V31.8836ZM213.559 39.21H215.805C216.679 39.21 217.294 39.0071 217.649 38.5997C218.004 38.1934 218.182 37.7939 218.182 37.4033C218.182 36.8278 217.982 36.3018 217.583 35.8233C217.184 35.3468 216.466 35.107 215.428 35.107H213.559V39.21Z" fill="#9D0032"/>
<path d="M228.742 17.6198C229.524 17.6198 230.194 17.9028 230.753 18.4668C231.313 19.0307 231.592 19.7148 231.592 20.5185C231.592 21.3112 231.316 21.9863 230.762 22.5455C230.208 23.1047 229.546 23.3846 228.775 23.3846C227.982 23.3846 227.306 23.0994 226.747 22.5292C226.187 21.96 225.908 21.2674 225.908 20.4537C225.908 19.6721 226.185 19.0049 226.739 18.4509C227.292 17.897 227.959 17.6198 228.742 17.6198ZM226.512 24.9146H230.972V42.6295H226.512V24.9146Z" fill="#9D0032"/>
<path d="M250 24.9146V29.1478H244.087V42.6295H239.628V29.1478H233.437V24.9146H250Z" fill="#9D0032"/>
<path d="M19.4951 4.95706C17.9144 6.18405 16.966 7.16564 16.6498 8.02454C16.5445 8.39264 16.5445 8.51534 16.6498 8.63804C16.8606 8.76074 17.1767 8.76073 17.7036 8.51534C18.2305 8.39264 18.9682 8.02454 19.8112 7.53374L19.6004 7.04295C22.1295 4.83436 23.4995 3.36196 23.921 2.38037C24.0263 2.13497 24.0263 1.88957 23.921 1.64417C23.8156 1.39877 23.7102 1.27607 23.4995 1.15337C23.1833 1.03068 22.6564 1.03068 21.8134 1.27607C21.2865 1.39877 19.1789 2.38037 18.9682 2.50307C17.809 3.11657 14.9638 4.95706 14.9638 4.95706C14.753 5.07976 14.4369 5.20245 14.2261 5.44785L15.9122 2.38037C16.1229 2.13497 16.5445 0.785276 16.3337 0.294478C16.1229 -0.196319 15.2799 -0.0736188 15.0692 0.662578C14.8584 1.39877 14.8584 2.38037 14.8584 2.62577C14.8584 2.74847 14.1207 3.85276 13.067 5.57055C12.6454 4.46626 12.3293 3.60736 12.2239 3.36196C11.5917 1.64417 11.3809 1.27607 10.7486 1.15337C10.1164 1.15337 6.63886 1.52147 4.32053 3.73006C3.89901 4.22086 3.4775 4.83436 3.26674 5.57055C3.05598 6.30675 2.84522 6.92025 2.84522 7.41104C2.84522 7.65644 2.9506 7.65644 3.05598 7.65644C3.16136 7.65644 3.4775 7.53374 4.00439 7.41104C4.53128 7.16564 5.16355 6.92024 5.79583 6.67484C5.79583 6.67484 5.79583 6.67485 5.90121 6.55215C6.00659 6.42945 6.00659 6.42945 6.00659 6.42945C6.00659 6.42945 5.90121 6.30675 5.79583 6.30675C5.58507 6.30675 5.37431 6.30675 5.26893 6.30675C5.16355 6.30675 5.05818 6.30675 4.9528 6.30675C4.74204 6.30675 4.63666 6.30675 4.63666 6.18405C4.63666 6.06135 4.84742 5.93865 5.16356 5.57055C5.47969 5.20245 5.90121 4.95706 6.4281 4.58896C6.955 4.22086 9.80022 2.50307 10.4325 2.87117C11.0648 3.23926 12.0132 6.30675 12.0132 6.30675L4.00439 11.4601C4.00439 11.4601 2.10757 11.3374 0.843029 12.8098C0.316135 13.4233 0 14.2822 0 14.773C0 15.1411 0.105378 15.3865 0.316135 15.3865C1.79144 15.0184 6.00658 11.8282 6.84961 11.092C7.37651 10.6012 9.9056 9.00613 11.3809 8.14724C9.27333 11.3374 6.955 14.8957 6.955 14.8957C6.84962 15.1411 6.74424 15.3865 6.74424 15.5092C6.74424 15.6319 6.74424 15.7546 6.84961 15.8773C6.95499 16 7.06037 16 7.16575 16C7.37651 16 7.69264 15.8773 7.9034 15.6319C8.21954 15.3865 8.53567 15.0184 8.95719 14.5276C9.16795 14.2822 9.27333 14.1595 9.27333 14.0368C9.27333 13.9141 9.3787 13.7914 9.3787 13.546L11.0648 10.8466L12.2239 8.88344L12.7508 7.90184C13.2777 9.37423 14.2261 12.8098 14.3315 12.9325C14.6476 14.0368 14.8584 15.1411 15.7014 15.3865C16.2283 15.5092 16.6498 15.1411 17.2821 14.6503C17.9144 14.1595 18.0198 13.9141 18.5467 13.3006C18.9682 12.6871 19.2843 12.1963 19.2843 12.0736C19.2843 11.9509 19.1789 11.8282 19.0735 11.8282C18.9682 11.8282 18.9682 11.8282 18.9682 11.8282C18.3359 12.319 17.9144 12.6871 17.4929 12.9325C17.0714 13.1779 16.8606 13.3006 16.6498 13.3006C16.4391 13.3006 16.3337 13.3006 16.3337 13.1779C16.3337 13.0552 14.9638 9.61963 13.91 6.79755C15.596 5.69325 18.8628 3.73006 19.8112 3.36196C20.9704 2.74847 21.6026 2.50307 21.708 2.62577C21.8134 2.62577 21.8134 2.74847 21.8134 2.87117C21.6026 3.23926 20.865 3.85276 19.4951 4.95706Z" fill="#1D1D1B"/>
<path d="M19.4951 4.95706C17.9144 6.18405 16.966 7.16565 16.6498 8.02454C16.5445 8.39264 16.5445 8.51534 16.6498 8.63804C16.8606 8.76074 17.1767 8.76073 17.7036 8.51534C18.2305 8.39264 18.9682 8.02454 19.8112 7.53374L19.6004 7.04295C22.1295 4.83436 23.4995 3.36196 23.921 2.38037C24.0263 2.13497 24.0263 1.88957 23.921 1.64417C23.8156 1.39877 23.7102 1.27607 23.4995 1.15337C23.1833 1.03068 22.6564 1.03068 21.8134 1.27607C21.2865 1.39877 19.1789 2.38037 18.9682 2.50307C17.809 3.11657 14.9638 4.95706 14.9638 4.95706C14.753 5.07976 14.4369 5.20245 14.2261 5.44785L15.9122 2.38037C16.1229 2.13497 16.5445 0.785276 16.3337 0.294478C16.1229 -0.196319 15.2799 -0.0736187 15.0692 0.662578C14.8584 1.39877 14.8584 2.38037 14.8584 2.62577C14.8584 2.74847 14.1207 3.85276 13.067 5.57055C12.6454 4.46626 12.3293 3.60736 12.2239 3.36196C11.5917 1.64417 11.3809 1.27607 10.7486 1.15337C10.1164 1.15337 6.63886 1.52147 4.32053 3.73006C3.89901 4.22086 3.4775 4.83436 3.26674 5.57055C3.05598 6.30675 2.84522 6.92025 2.84522 7.41104C2.84522 7.65644 2.9506 7.65644 3.05598 7.65644C3.16136 7.65644 3.4775 7.53374 4.00439 7.41104C4.53128 7.16564 5.16355 6.92024 5.79583 6.67484C5.79583 6.67484 5.79583 6.67485 5.90121 6.55215C6.00659 6.42945 6.00659 6.42945 6.00659 6.42945C6.00659 6.42945 5.90121 6.30675 5.79583 6.30675C5.58507 6.30675 5.37431 6.30675 5.26893 6.30675C5.16356 6.30675 5.05818 6.30675 4.9528 6.30675C4.74204 6.30675 4.63666 6.30675 4.63666 6.18405C4.63666 6.06135 4.84742 5.93865 5.16356 5.57055C5.47969 5.20245 5.90121 4.95706 6.4281 4.58896C6.955 4.22086 9.80022 2.50307 10.4325 2.87117C11.0648 3.23926 12.0132 6.30675 12.0132 6.30675L4.00439 11.4601C4.00439 11.4601 2.10757 11.3374 0.843029 12.8098C0.316135 13.4233 0 14.2822 0 14.773C0 15.1411 0.105378 15.3865 0.316135 15.3865C1.79144 15.0184 6.00658 11.8282 6.84961 11.092C7.37651 10.6012 9.9056 9.00613 11.3809 8.14724C9.27333 11.3374 6.955 14.8957 6.955 14.8957C6.84962 15.1411 6.74424 15.3865 6.74424 15.5092C6.74424 15.6319 6.74424 15.7546 6.84961 15.8773C6.95499 16 7.06037 16 7.16575 16C7.37651 16 7.69264 15.8773 7.9034 15.6319C8.21954 15.3865 8.53567 15.0184 8.95719 14.5276C9.16795 14.2822 9.27333 14.1595 9.27333 14.0368C9.27333 13.9141 9.37871 13.7914 9.37871 13.546L11.0648 10.8466L12.2239 8.88344L12.7508 7.90184C13.2777 9.37423 14.2261 12.8098 14.3315 12.9325C14.6476 14.0368 14.8584 15.1411 15.7014 15.3865C16.2283 15.5092 16.6498 15.1411 17.2821 14.6503C17.9144 14.1595 18.0198 13.9141 18.5467 13.3006C19.0735 12.6871 19.8112 11.9526 19.8112 11.8299C19.8112 11.7072 22 9.5 22 8.88344C22 8.26687 19.6004 11.092 19.6004 11.092C18.6004 12.092 17.9144 12.6871 17.4929 12.9325C17.0714 13.1779 16.8606 13.3006 16.6498 13.3006C16.4391 13.3006 16.3337 13.3006 16.3337 13.1779C16.3337 13.0552 14.9638 9.61963 13.91 6.79755C15.596 5.69325 18.8628 3.73006 19.8112 3.36196C20.9704 2.74847 21.6026 2.50307 21.708 2.62577C21.8134 2.62577 21.8134 2.74847 21.8134 2.87117C21.6026 3.23926 20.865 3.85276 19.4951 4.95706Z" fill="#1D1D1B"/>
<path d="M63.3995 9.73111C62.9782 9.83643 62.3464 10.6789 62.0304 10.8896C61.7145 11.1002 61.5038 11.2055 61.2932 11.2055C61.0826 11.2055 60.9773 11.1002 60.8719 10.9949C60.7666 10.8896 60.6613 10.6789 60.6613 10.5736C60.6613 10.2577 60.7666 9.94174 60.9773 9.62579C61.1879 9.30985 61.5038 8.88859 62.0304 8.36202C62.4517 7.83544 62.7676 7.5195 62.7676 7.41419C62.7676 7.20356 62.6623 6.88762 62.557 6.57167C62.4517 6.25573 62.0304 6.0451 61.8198 6.0451C61.5038 6.0451 61.0826 6.25573 60.556 6.67698C60.0294 7.09824 59.5029 7.5195 58.871 8.15139C58.2391 8.78328 57.7125 9.30985 57.1859 9.83642C56.6594 10.363 56.3434 10.5736 56.2381 10.5736C56.1328 10.5736 56.0275 10.4683 56.0275 10.2577C56.0275 10.1524 56.1328 9.94174 56.3434 9.62579C56.554 9.30985 56.7647 9.09922 56.9753 8.88859C57.3966 8.57265 56.0275 7.5195 55.2903 8.46733C55.0796 8.78328 54.7637 9.6258 54.6584 10.2577C53.7106 11.1002 52.9734 11.5215 52.4468 11.5215C51.9202 11.5215 51.7096 11.2055 51.7096 10.6789C51.7096 10.363 51.8149 10.0471 51.9202 9.83642C52.0255 9.62579 52.3415 9.30985 52.6574 8.78328C52.9733 8.36202 53.184 7.94076 53.184 7.83544C53.184 7.73013 53.184 7.62482 53.0787 7.5195C53.0787 7.41419 52.9734 7.30887 52.868 7.09824C52.7627 6.88762 52.7627 6.7823 52.6574 6.67698C52.868 6.57167 53.0787 6.46635 53.184 6.46635C53.2893 6.36104 53.2893 6.36104 53.2893 6.15041C53.2893 6.0451 53.2893 5.93978 53.184 5.83447C53.0787 5.62384 52.9734 5.51852 52.868 5.41321C52.7627 5.30789 52.5521 5.20258 52.4468 5.20258C51.9202 5.20258 51.0777 5.41321 50.0245 5.93978C48.9714 6.46635 47.9182 7.20356 46.8651 8.15139C46.4438 8.57265 46.1279 8.88859 45.9173 9.09922C45.7066 9.30985 45.812 9.52048 45.7066 9.83642C45.7066 9.94174 45.6013 10.0471 45.6013 10.1524C44.9694 10.6789 44.4429 10.9949 44.1269 11.2055C43.811 11.4161 43.495 11.5215 43.2844 11.5215C43.0738 11.5215 42.8631 11.4161 42.8631 11.1002C42.8631 10.5736 43.495 9.52048 44.7588 8.15139C45.0747 7.83545 45.1801 7.62482 45.1801 7.41419C45.1801 7.09824 45.0748 6.7823 44.9694 6.46635C44.8641 6.15041 44.7588 5.93978 44.6535 5.93978C44.5482 5.93978 43.811 6.88761 43.3897 7.73013C42.7578 8.36202 41.7047 9.20454 40.5462 9.20454C40.125 9.20454 39.809 9.20454 39.4931 9.09922C39.809 8.78328 40.0196 8.36202 40.4409 7.94076C40.6515 7.73013 40.7569 7.62482 40.7569 7.5195C40.8622 7.41419 40.8622 7.41419 40.8622 7.30887C40.8622 7.20356 40.9675 7.20356 40.9675 7.09824C40.9675 6.88762 40.8622 6.7823 40.7569 6.7823C40.9675 6.67698 40.7568 6.67698 40.5462 6.67698C40.2303 6.67698 39.9143 6.88761 39.4931 7.20356C39.1771 7.5195 38.7559 8.15139 38.2293 8.88859C37.9134 9.30985 37.808 9.62579 37.7027 9.83642C37.7027 9.83642 37.5974 10.0471 37.5974 10.1524C36.2283 11.3108 35.1752 11.9427 34.3327 11.9427C34.0167 11.9427 33.8061 11.9427 33.5955 11.8374C34.3327 11.2055 34.9645 10.5736 35.3858 10.0471C35.9124 9.52048 36.2283 8.99391 36.5443 8.46733C36.8602 7.94076 36.9655 7.41419 36.9655 6.88761C36.9655 6.67699 36.9655 6.57167 36.8602 6.46635C36.7549 6.36104 36.6496 6.36104 36.4389 6.36104C36.123 6.36104 35.8071 6.46636 35.4911 6.57167C35.1752 6.67699 34.8592 6.88762 34.5433 7.09824C34.2273 7.30887 33.8061 7.62482 33.2795 8.04607C32.7529 8.46733 32.3317 8.78328 31.9104 9.09922C32.437 8.15139 32.8582 7.41419 33.2795 6.7823C33.7008 6.15041 34.122 5.62384 34.438 5.30789C34.7539 4.99195 34.9645 4.676 35.1752 4.36006C35.3858 4.04412 35.4911 3.83349 35.4911 3.72817C35.4911 3.51755 35.3858 3.41223 35.1752 3.41223C34.6486 3.41223 34.2273 3.51755 33.9114 3.72817C33.5955 3.9388 33.1742 4.36006 32.7529 4.88663C32.3317 5.41321 31.6998 6.25573 31.0679 7.20356C30.3307 8.15139 29.4882 9.09922 28.5403 10.1524C28.1191 10.4683 27.8031 10.7843 27.4872 10.9949C27.1713 11.3108 26.75 11.6268 26.3287 12.048C25.9075 12.4693 25.3809 12.8905 24.9596 13.3118C24.6437 13.7331 24.4331 14.049 24.4331 14.049C24.9596 13.1012 25.3809 12.2587 25.9075 11.5215C26.3287 10.7843 26.8553 10.0471 27.2766 9.30985C27.8031 8.57265 28.1191 8.15139 28.2244 7.83544C28.435 7.5195 28.435 7.30887 28.435 7.09824C28.435 6.7823 28.435 6.46636 28.3297 6.36104C28.2244 6.25573 28.1191 6.15041 27.9085 6.15041C27.8031 6.15041 27.6978 6.25573 27.5925 6.36104C27.4872 6.46636 27.2766 6.67699 27.1713 6.88761C26.9606 7.09824 26.75 7.30887 26.5394 7.62482C26.3287 7.94076 26.0128 8.15139 25.6969 8.57265C24.8543 9.41516 24.0118 10.1524 23.2746 10.6789C22.5374 11.2055 22.0108 11.4161 21.9055 11.4161C21.6949 11.4161 21.5896 11.3108 21.5896 11.1002C21.5896 10.9949 21.5896 10.8896 21.6949 10.7843L21.9055 10.1524C22.6427 9.52048 23.2746 8.99391 23.6959 8.46733C24.1171 8.04608 24.4331 7.62481 24.6437 7.30887C24.8543 6.99293 24.9596 6.7823 24.9596 6.67698C24.9596 6.46635 24.8543 6.25573 24.6437 6.0451C24.4331 5.83447 24.2224 5.72915 24.1171 5.72915C24.0118 5.72915 23.8012 5.83447 23.4852 6.0451C23.1693 6.25573 22.8534 6.57167 22.4321 6.99293C22.0108 7.41419 21.5896 7.94076 21.1683 8.57265C20.8524 8.99391 20.6417 9.41517 20.5364 9.73111C20.4311 10.0471 20.3258 10.363 20.3258 10.7843C20.3258 11.3108 20.4311 11.8374 20.7471 12.4693C21.063 13.1012 21.3789 13.4171 21.5896 13.4171C21.9055 13.4171 22.5374 12.9959 23.3799 12.2587L25.2756 10.6789C23.4852 13.5224 22.3268 15.6287 21.8002 16.7872C21.6949 16.9978 21.6949 17.1031 21.6949 17.3138C21.6949 17.5244 21.8002 17.8403 21.9055 18.1563C22.0108 18.4722 22.1162 18.5775 22.3268 18.5775C22.4321 18.5775 22.4321 18.4722 22.5374 18.3669C22.6427 18.2616 22.748 18.051 22.9587 17.8403C23.064 17.6297 23.2746 17.4191 23.4852 17.1031C23.5906 16.9978 23.8012 16.6819 24.2224 16.1553C24.6437 15.6287 25.2756 14.8915 26.0128 13.9437C26.75 13.1012 27.5925 12.1533 28.435 11.2055C29.2775 10.363 30.5413 8.88859 32.2264 6.88761C31.5945 8.2567 30.752 9.94174 29.5935 11.8374C29.4882 12.048 29.1722 12.4693 28.8563 12.8906C28.5403 13.3118 28.2244 13.8384 27.9085 14.2596C27.5925 14.6809 27.3819 15.2075 27.1713 15.734C26.9606 16.2606 26.8553 16.7872 26.8553 17.2085C26.8553 17.735 26.9606 18.051 27.2766 18.051C27.3819 18.051 27.4872 17.9457 27.6978 17.735C28.0138 17.3138 28.3297 16.8925 28.435 16.4712C28.6457 16.05 28.8563 15.4181 29.1722 14.6809C29.4882 13.9437 29.6988 13.3118 29.9094 12.8906C31.4892 13.6278 32.9636 13.6278 33.0689 13.6278C33.4901 13.6278 33.9114 13.5224 34.3327 13.2065C34.7539 12.8906 35.2805 12.5746 35.8071 12.1533C36.123 11.8374 36.5443 11.5215 36.9655 11.2055C36.7549 11.9427 36.6496 12.5746 36.7549 12.8906C36.9655 13.4171 38.0187 13.2065 38.2293 13.2065C38.3346 13.2065 38.6506 11.6268 38.7559 10.8896C39.809 11.1002 41.2834 10.363 42.1259 9.83642C42.0206 9.94174 42.0206 10.0471 41.9153 10.1524C41.7047 10.5736 41.4941 10.9949 41.3887 11.2055C41.2834 11.4161 41.1781 11.6268 41.0728 11.9427C40.9675 12.2587 40.9675 12.364 40.9675 12.5746C40.9675 13.3118 41.2834 13.7331 41.81 13.7331C42.1259 13.7331 42.6525 13.5224 43.1791 13.1012C43.7057 12.6799 44.4429 11.9427 45.3907 11.1002C45.3907 11.4161 45.496 11.8374 45.6013 12.1533C45.812 12.5746 46.0226 12.9959 46.2332 13.2065C46.4438 13.4171 46.6545 13.6278 46.8651 13.6278C47.181 13.6278 47.6023 13.4171 48.1289 12.8906C48.6555 12.364 49.3927 11.5215 50.4458 10.363C50.0245 11.4161 49.8139 12.2587 49.8139 12.7852C49.8139 13.1012 49.9192 13.4171 50.0245 13.6278C50.1299 13.8384 50.3405 13.9437 50.6564 13.9437C51.3936 13.9437 52.6574 12.9959 54.3424 11.2055C54.3424 11.7321 54.4478 12.2587 54.6584 12.6799C54.869 13.1012 55.0796 13.4171 55.3956 13.4171C55.5009 13.4171 55.6062 13.3118 55.8168 13.2065C56.0275 13.1012 56.1328 12.7852 56.4487 12.364C56.7647 11.9427 56.9753 11.6268 57.2912 11.3108C58.1338 10.363 58.7657 9.73111 58.9763 9.41516C59.2922 9.09922 59.5029 8.99391 59.7135 8.99391C59.8188 8.99391 59.9241 9.09922 59.9241 9.20454C59.9241 9.30985 59.9241 9.41517 59.8188 9.52048C59.2922 10.363 58.2391 12.5746 58.2391 12.7852C58.2391 13.3118 59.0816 13.5224 59.2922 13.5224C59.5029 13.5224 59.8188 13.4171 60.2401 13.2065C60.6613 12.9959 61.0826 12.6799 61.6091 12.2587C62.1357 11.8374 63.2942 11.3108 63.7154 10.8896C64.1367 10.4683 64.1367 9.6258 63.3995 9.73111ZM32.9636 11.5215C32.6476 11.3108 31.6998 11.2055 31.1732 11.3108C31.9104 10.2577 32.5423 9.52048 33.1742 8.88859C33.8061 8.2567 34.3327 8.04607 34.6486 8.04607C34.9645 8.04607 35.0699 8.15139 35.0699 8.46733C35.0699 8.78328 34.8592 9.09922 34.5433 9.62579C34.122 10.1524 33.5955 10.7843 32.9636 11.5215ZM49.9192 9.94174C49.2873 10.6789 48.5501 11.2055 47.8129 11.7321C47.6023 11.8374 47.497 11.8374 47.3917 11.8374C47.2864 11.8374 47.181 11.7321 47.0757 11.6268C46.9704 11.5215 46.9704 11.3108 46.9704 11.1002C46.9704 10.4683 47.3917 9.83643 48.1289 9.20454C48.9714 8.57265 50.2352 7.83544 52.1308 6.99293C51.2883 8.15139 50.5511 9.20453 49.9192 9.94174Z" fill="#1D1D1B"/>
</svg>
