<svg width="754" height="113" viewBox="0 0 754 113" fill="none" xmlns="http://www.w3.org/2000/svg">
<g id="&#208;&#161;&#209;&#133;&#209;&#150;&#208;&#180;&#208;&#189;&#208;&#184;&#209;&#134; &#209;&#129;&#208;&#178;&#209;&#150;&#209;&#130;. Logo. work">
<path id="Vector" d="M100.618 21.4673L86.79 35.0267C77.3844 24.8009 66.8026 19.688 55.0446 19.688C45.1205 19.688 36.7604 23.1776 29.9627 30.155C23.1685 37.136 19.7689 45.7367 19.7689 55.9625C19.7689 63.085 21.2747 69.4131 24.2865 74.9377C27.2948 80.4605 31.5497 84.8008 37.0549 87.9494C42.5565 91.0981 48.6736 92.6742 55.3972 92.6742C61.1334 92.6742 66.3811 91.5732 71.128 89.3659C75.8767 87.1622 81.098 83.1485 86.79 77.3391L100.197 91.722C92.5244 99.4267 85.2736 104.764 78.4494 107.744C71.6235 110.724 63.8313 112.212 55.0763 112.212C38.9311 112.212 25.7131 106.948 15.4293 96.4159C5.14191 85.8836 0 72.3877 0 55.9263C0 45.2743 2.33993 35.8066 7.0269 27.5269C11.7086 19.2509 18.4181 12.5927 27.1502 7.55601C35.8805 2.51929 45.2844 0 55.3584 0C63.923 0 72.1737 1.86271 80.1052 5.58448C88.0385 9.30987 94.8767 14.6042 100.618 21.4673Z" fill="#9D0032"/>
<path id="Vector_2" d="M109.001 27.2368H126.271L137.987 43.8523L149.641 27.2368H166.62L146.499 55.9245L169.253 88.1979H151.983L137.885 68.2016L123.859 88.1979H106.878L129.373 56.1295L109.001 27.2368Z" fill="#9D0032"/>
<path id="Vector_3" d="M182.626 2.13293C185.234 2.13293 187.468 3.1069 189.334 5.04758C191.199 6.98827 192.132 9.3425 192.132 12.1084C192.132 14.8363 191.21 17.1596 189.362 19.084C187.516 21.0083 185.306 21.9714 182.735 21.9714C180.092 21.9714 177.837 20.9902 175.971 19.0278C174.106 17.069 173.175 14.6857 173.175 11.8853C173.175 9.19555 174.097 6.8994 175.945 4.99317C177.791 3.08695 180.016 2.13293 182.626 2.13293ZM175.19 27.2367H190.062V88.1997H175.19V27.2367Z" fill="#9D0032"/>
<path id="Vector_4" d="M211.252 88.1998V98.7919H198.015V75.2552H206.936L227.399 27.2368H236.988L257.736 75.2552H266.819V98.7919H252.656V88.1998H211.252ZM241.933 75.2552L232.199 49.542L222.141 75.2552H241.933Z" fill="#9D0032"/>
<path id="Vector_5" d="M291.007 49.201H313.232V27.2368H328.106V88.1997H313.232V62.9273H291.007V88.1997H276.135V27.2368H291.007V49.201Z" fill="#9D0032"/>
<path id="Vector_6" d="M350.983 88.1997H343.085V27.2368H357.576V63.0416L387.92 27.2368H395.056V88.1997H380.565V53.1241L350.983 88.1997Z" fill="#9D0032"/>
<path id="Vector_7" d="M417.934 88.1997H410.036V27.2368H424.527V63.0416L454.871 27.2368H462.007V88.1997H447.516V53.1241L417.934 88.1997ZM414.231 0.341064H426.269C427.213 1.87548 428.53 3.02355 430.219 3.78713C431.907 4.55252 433.968 4.93521 436.401 4.93521C438.87 4.93521 441.104 4.48904 443.102 3.59125C444.41 2.99453 445.555 1.90994 446.534 0.341064H458.574C457.882 5.08577 455.676 8.89642 451.954 11.773C448.232 14.6496 443.028 16.0878 436.347 16.0878C431.841 16.0878 428.075 15.4439 425.042 14.1544C422.009 12.8648 419.568 11.0257 417.717 8.63523C415.864 6.24474 414.702 3.48062 414.231 0.341064Z" fill="#9D0032"/>
<path id="Vector_8" d="M608.714 21.7539L594.886 35.3133C585.48 25.0875 574.898 19.9746 563.14 19.9746C553.216 19.9746 544.856 23.466 538.057 30.4434C531.262 37.4245 527.864 46.0233 527.864 56.2509C527.864 63.3734 529.37 69.7015 532.38 75.2225C535.39 80.7489 539.645 85.0856 545.149 88.2378C550.652 91.3865 556.769 92.9626 563.493 92.9626C569.229 92.9626 574.473 91.8616 579.224 89.6543C583.972 87.4506 589.193 83.4369 594.886 77.6275L608.289 92.0104C600.616 99.7115 593.369 105.053 586.543 108.029C579.719 111.013 571.927 112.5 563.172 112.5C547.025 112.5 533.807 107.237 523.525 96.7043C513.237 86.172 508.095 72.6761 508.095 56.2147C508.095 45.5627 510.435 36.0932 515.121 27.8154C519.802 19.5375 526.512 12.8811 535.244 7.84258C543.976 2.80768 553.378 0.288452 563.452 0.288452C572.018 0.288452 580.267 2.1511 588.201 5.87105C596.134 9.59826 602.969 14.8907 608.714 21.7539Z" fill="#9D0032"/>
<path id="Vector_9" d="M617.338 88.1997V27.2368H641.143C648.951 27.2368 654.254 28.8147 657.05 31.9706C659.845 35.1265 661.244 38.7049 661.244 42.7006C661.244 48.6405 658.375 52.9191 652.637 55.5327C660.482 58.2968 664.404 63.5076 664.404 71.167C664.404 75.3114 663.369 78.7411 661.298 81.4472C659.228 84.1569 656.604 85.9561 653.427 86.8557C650.247 87.7517 645.809 88.1979 640.106 88.1979H617.338V88.1997ZM632.21 51.2197H637.953C640.397 51.2197 642.284 50.5939 643.615 49.3425C644.947 48.0928 645.612 46.7017 645.612 45.1673C645.612 42.8892 644.973 41.1154 643.698 39.844C642.42 38.5744 640.907 37.9396 639.158 37.9396L637.243 37.994H632.21V51.2197V51.2197ZM632.21 76.4323H639.699C642.614 76.4323 644.665 75.734 645.85 74.3319C647.035 72.9336 647.627 71.5588 647.627 70.2148C647.627 68.2342 646.961 66.4242 645.631 64.7773C644.3 63.1377 641.905 62.3124 638.442 62.3124H632.21V76.4323V76.4323Z" fill="#9D0032"/>
<path id="Vector_10" d="M682.846 2.13293C685.454 2.13293 687.689 3.1069 689.554 5.04758C691.42 6.98827 692.353 9.3425 692.353 12.1084C692.353 14.8363 691.43 17.1596 689.582 19.084C687.736 21.0083 685.527 21.9714 682.956 21.9714C680.313 21.9714 678.057 20.9902 676.192 19.0278C674.326 17.069 673.395 14.6857 673.395 11.8853C673.395 9.19555 674.317 6.8994 676.165 4.99317C678.01 3.08695 680.237 2.13293 682.846 2.13293ZM675.41 27.2367H690.283V88.1997H675.41V27.2367Z" fill="#9D0032"/>
<path id="Vector_11" d="M698.507 27.2368H753.745V41.8046H734.024V88.1997H719.152V41.8046H698.505V27.2368H698.507Z" fill="#9D0032"/>
</g>
</svg>
