<svg width="240" height="36" viewBox="0 0 240 36" fill="none" xmlns="http://www.w3.org/2000/svg">
<path d="M32.4775 7.2031L28.0928 11.3699C25.1104 8.22751 21.7551 6.65632 18.0268 6.65632C14.8801 6.65632 12.2292 7.72867 10.0738 9.87282C7.91948 12.0181 6.84149 14.6611 6.84149 17.8035C6.84149 19.9922 7.31898 21.9368 8.27397 23.6345C9.22784 25.3317 10.577 26.6654 12.3226 27.633C14.0671 28.6006 16.0067 29.0849 18.1386 29.0849C19.9575 29.0849 21.6214 28.7466 23.1266 28.0683C24.6323 27.3911 26.2879 26.1577 28.0928 24.3725L32.3438 28.7923C29.9111 31.16 27.6119 32.8003 25.4481 33.716C23.2837 34.6318 20.8129 35.0888 18.0369 35.0888C12.9175 35.0888 8.72631 33.4713 5.46548 30.2348C2.20353 26.9982 0.57312 22.8509 0.57312 17.7923C0.57312 14.519 1.31507 11.6095 2.80123 9.06521C4.28572 6.52199 6.4132 4.47594 9.182 2.92816C11.9502 1.38038 14.9321 0.606201 18.1263 0.606201C20.842 0.606201 23.4582 1.17861 25.9731 2.32231C28.4886 3.46712 30.6569 5.09406 32.4775 7.2031Z" fill="#9D0032"/>
<path d="M35.1356 8.97605H40.6116L44.3265 14.082L48.0218 8.97605H53.4056L47.0254 17.7918L54.2404 27.7094H48.7643L44.2941 21.5645L39.8468 27.7094H34.4624L41.5951 17.8547L35.1356 8.97605Z" fill="#9D0032"/>
<path d="M58.4808 1.26166C59.3077 1.26166 60.0162 1.56096 60.6077 2.15733C61.1993 2.7537 61.4951 3.47715 61.4951 4.32712C61.4951 5.16539 61.2026 5.87935 60.6166 6.4707C60.0312 7.06206 59.3307 7.35802 58.5155 7.35802C57.6773 7.35802 56.9622 7.0565 56.3706 6.45344C55.7791 5.85149 55.4839 5.11912 55.4839 4.25856C55.4839 3.432 55.7763 2.72639 56.3622 2.14061C56.9477 1.55483 57.6533 1.26166 58.4808 1.26166ZM56.123 8.97604H60.8386V27.7099H56.123V8.97604Z" fill="#9D0032"/>
<path d="M67.5576 27.7099V30.9649H63.3603V23.7321H66.1889L72.6776 8.97605H75.7181L82.2968 23.7321H85.1769V30.9649H80.686V27.7099H67.5576ZM77.2859 23.7321L74.1995 15.8304L71.0102 23.7321H77.2859Z" fill="#9D0032"/>
<path d="M92.8464 15.7256H99.8937V8.97605H104.61V27.7099H99.8937V19.9437H92.8464V27.7099H88.1308V8.97605H92.8464V15.7256Z" fill="#9D0032"/>
<path d="M111.864 27.7099H109.36V8.97605H113.955V19.9788L123.576 8.97605H125.839V27.7099H121.244V16.9312L111.864 27.7099Z" fill="#9D0032"/>
<path d="M133.093 27.7099H130.589V8.97605H135.184V19.9788L144.805 8.97605H147.068V27.7099H142.473V16.9312L133.093 27.7099ZM131.919 0.711002H135.736C136.035 1.18253 136.453 1.53533 136.988 1.76998C137.523 2.00518 138.177 2.12278 138.949 2.12278C139.731 2.12278 140.44 1.98567 141.073 1.70978C141.488 1.52641 141.851 1.19312 142.161 0.711002H145.979C145.76 2.16905 145.06 3.34006 143.88 4.22403C142.7 5.108 141.05 5.54998 138.931 5.54998C137.503 5.54998 136.308 5.35211 135.347 4.95583C134.385 4.55955 133.611 3.99439 133.024 3.25979C132.437 2.5252 132.068 1.67579 131.919 0.711002Z" fill="#9D0032"/>
<path d="M193.586 7.29115L189.201 11.4579C186.219 8.31556 182.864 6.74437 179.135 6.74437C175.989 6.74437 173.338 7.81728 171.182 9.96144C169.027 12.1067 167.95 14.7491 167.95 17.8921C167.95 20.0808 168.428 22.0254 169.382 23.722C170.336 25.4203 171.686 26.7529 173.431 27.7216C175.176 28.6892 177.115 29.1735 179.247 29.1735C181.066 29.1735 182.729 28.8352 184.235 28.1569C185.741 27.4797 187.396 26.2463 189.201 24.4611L193.451 28.8809C191.019 31.2475 188.721 32.8889 186.556 33.8035C184.392 34.7204 181.922 35.1774 179.145 35.1774C174.026 35.1774 169.834 33.5599 166.574 30.3234C163.312 27.0868 161.682 22.9395 161.682 17.8809C161.682 14.6076 162.424 11.6976 163.909 9.15384C165.394 6.61006 167.521 4.56455 170.29 3.01621C173.059 1.46899 176.04 0.694831 179.234 0.694831C181.951 0.694831 184.566 1.26722 187.082 2.41036C189.597 3.55573 191.764 5.18211 193.586 7.29115Z" fill="#9D0032"/>
<path d="M196.321 27.7099V8.97605H203.869C206.345 8.97605 208.026 9.46094 208.913 10.4307C209.799 11.4005 210.242 12.5002 210.242 13.7281C210.242 15.5534 209.333 16.8682 207.513 17.6714C210.001 18.5208 211.244 20.1221 211.244 22.4758C211.244 23.7493 210.916 24.8033 210.26 25.6349C209.603 26.4676 208.771 27.0205 207.764 27.2969C206.756 27.5722 205.348 27.7094 203.54 27.7094H196.321V27.7099ZM201.036 16.346H202.857C203.632 16.346 204.231 16.1537 204.653 15.7691C205.075 15.3851 205.286 14.9576 205.286 14.4861C205.286 13.786 205.083 13.2409 204.679 12.8502C204.274 12.4601 203.794 12.265 203.239 12.265L202.632 12.2817H201.036V16.346ZM201.036 24.0938H203.411C204.335 24.0938 204.986 23.8792 205.361 23.4484C205.737 23.0186 205.925 22.5962 205.925 22.1832C205.925 21.5745 205.713 21.0183 205.292 20.5122C204.87 20.0084 204.11 19.7548 203.012 19.7548H201.036V24.0938Z" fill="#9D0032"/>
<path d="M217.092 1.26166C217.919 1.26166 218.628 1.56096 219.219 2.15733C219.811 2.7537 220.107 3.47715 220.107 4.32712C220.107 5.16539 219.814 5.87935 219.228 6.4707C218.643 7.06206 217.942 7.35802 217.127 7.35802C216.289 7.35802 215.574 7.0565 214.982 6.45344C214.391 5.85149 214.095 5.11912 214.095 4.25856C214.095 3.432 214.388 2.72639 214.974 2.14061C215.559 1.55483 216.265 1.26166 217.092 1.26166ZM214.734 8.97604H219.45V27.7099H214.734V8.97604Z" fill="#9D0032"/>
<path d="M239.573 8.97605V13.4527H233.32V27.7099H228.604V13.4527H222.057V8.97605H239.573Z" fill="#9D0032"/>
</svg>
