<svg width="300" height="50" viewBox="0 0 300 50" fill="none" xmlns="http://www.w3.org/2000/svg">
<path d="M57.4775 21.203L53.0928 25.3698C50.1104 22.2274 46.7551 20.6562 43.0268 20.6562C39.8801 20.6562 37.2292 21.7285 35.0738 23.8727C32.9195 26.018 31.8415 28.661 31.8415 31.8033C31.8415 33.9921 32.319 35.9367 33.274 37.6344C34.2278 39.3316 35.577 40.6653 37.3226 41.6329C39.0671 42.6005 41.0067 43.0848 43.1386 43.0848C44.9575 43.0848 46.6214 42.7465 48.1266 42.0682C49.6323 41.391 51.2879 40.1576 53.0928 38.3724L57.3438 42.7922C54.9111 45.1598 52.6119 46.8002 50.4481 47.7159C48.2837 48.6316 45.8129 49.0887 43.0369 49.0887C37.9175 49.0887 33.7263 47.4712 30.4655 44.2346C27.2035 40.9981 25.5731 36.8508 25.5731 31.7922C25.5731 28.5188 26.3151 25.6094 27.8012 23.0651C29.2857 20.5219 31.4132 18.4758 34.182 16.928C36.9502 15.3803 39.9321 14.6061 43.1263 14.6061C45.842 14.6061 48.4582 15.1785 50.9731 16.3222C53.4886 17.467 55.6569 19.0939 57.4775 21.203Z" fill="#9D0032"/>
<path d="M60.1356 22.9759H65.6116L69.3265 28.0819L73.0218 22.9759H78.4056L72.0254 31.7916L79.2404 41.7092H73.7643L69.2941 35.5644L64.8468 41.7092H59.4624L66.5951 31.8546L60.1356 22.9759Z" fill="#9D0032"/>
<path d="M83.4808 15.2615C84.3077 15.2615 85.0162 15.5608 85.6077 16.1572C86.1993 16.7536 86.4951 17.477 86.4951 18.327C86.4951 19.1653 86.2026 19.8792 85.6166 20.4706C85.0312 21.0619 84.3307 21.3579 83.5155 21.3579C82.6773 21.3579 81.9622 21.0564 81.3706 20.4533C80.7791 19.8514 80.4839 19.119 80.4839 18.2584C80.4839 17.4319 80.7763 16.7263 81.3622 16.1405C81.9477 15.5547 82.6533 15.2615 83.4808 15.2615ZM81.123 22.9759H85.8386V41.7098H81.123V22.9759Z" fill="#9D0032"/>
<path d="M92.5576 41.7098V44.9648H88.3603V37.7319H91.1889L97.6776 22.9759H100.718L107.297 37.7319H110.177V44.9648H105.686V41.7098H92.5576ZM102.286 37.7319L99.1995 29.8303L96.0102 37.7319H102.286Z" fill="#9D0032"/>
<path d="M117.846 29.7255H124.894V22.9759H129.61V41.7098H124.894V33.9436H117.846V41.7098H113.131V22.9759H117.846V29.7255Z" fill="#9D0032"/>
<path d="M136.864 41.7098H134.36V22.9759H138.955V33.9787L148.576 22.9759H150.839V41.7098H146.244V30.9311L136.864 41.7098Z" fill="#9D0032"/>
<path d="M158.093 41.7098H155.589V22.9759H160.184V33.9787L169.805 22.9759H172.068V41.7098H167.473V30.9311L158.093 41.7098ZM156.919 14.7109H160.736C161.035 15.1824 161.453 15.5352 161.988 15.7699C162.523 16.0051 163.177 16.1227 163.949 16.1227C164.731 16.1227 165.44 15.9856 166.073 15.7097C166.488 15.5263 166.851 15.193 167.161 14.7109H170.979C170.76 16.1689 170.06 17.3399 168.88 18.2239C167.7 19.1079 166.05 19.5499 163.931 19.5499C162.503 19.5499 161.308 19.352 160.347 18.9557C159.385 18.5594 158.611 17.9943 158.024 17.2597C157.437 16.5251 157.068 15.6757 156.919 14.7109Z" fill="#9D0032"/>
<path d="M218.586 21.291L214.201 25.4578C211.219 22.3154 207.864 20.7442 204.135 20.7442C200.989 20.7442 198.338 21.8172 196.182 23.9613C194.027 26.1066 192.95 28.749 192.95 31.892C192.95 34.0807 193.428 36.0253 194.382 37.7219C195.336 39.4202 196.686 40.7528 198.431 41.7215C200.176 42.6891 202.115 43.1734 204.247 43.1734C206.066 43.1734 207.729 42.8351 209.235 42.1568C210.741 41.4796 212.396 40.2462 214.201 38.461L218.451 42.8808C216.019 45.2473 213.721 46.8888 211.556 47.8034C209.392 48.7202 206.922 49.1773 204.145 49.1773C199.026 49.1773 194.834 47.5598 191.574 44.3232C188.312 41.0867 186.682 36.9394 186.682 31.8808C186.682 28.6075 187.424 25.6975 188.909 23.1537C190.394 20.6099 192.521 18.5644 195.29 17.0161C198.059 15.4689 201.04 14.6947 204.234 14.6947C206.951 14.6947 209.566 15.2671 212.082 16.4102C214.597 17.5556 216.764 19.182 218.586 21.291Z" fill="#9D0032"/>
<path d="M221.321 41.7098V22.9759H228.869C231.345 22.9759 233.026 23.4608 233.913 24.4306C234.799 25.4004 235.242 26.5001 235.242 27.7279C235.242 29.5533 234.333 30.8681 232.513 31.6712C235.001 32.5207 236.244 34.1219 236.244 36.4757C236.244 37.7492 235.916 38.8032 235.26 39.6348C234.603 40.4674 233.771 41.0203 232.764 41.2968C231.756 41.5721 230.348 41.7092 228.54 41.7092H221.321V41.7098ZM226.036 30.3459H227.857C228.632 30.3459 229.231 30.1536 229.653 29.769C230.075 29.385 230.286 28.9575 230.286 28.4859C230.286 27.7859 230.083 27.2408 229.679 26.8501C229.274 26.46 228.794 26.2649 228.239 26.2649L227.632 26.2816H226.036V30.3459ZM226.036 38.0937H228.411C229.335 38.0937 229.986 37.8791 230.361 37.4482C230.737 37.0185 230.925 36.5961 230.925 36.183C230.925 35.5744 230.713 35.0182 230.292 34.5121C229.87 34.0082 229.11 33.7546 228.012 33.7546H226.036V38.0937Z" fill="#9D0032"/>
<path d="M242.092 15.2615C242.919 15.2615 243.628 15.5608 244.219 16.1572C244.811 16.7536 245.107 17.477 245.107 18.327C245.107 19.1653 244.814 19.8792 244.228 20.4706C243.643 21.0619 242.942 21.3579 242.127 21.3579C241.289 21.3579 240.574 21.0564 239.982 20.4533C239.391 19.8514 239.095 19.119 239.095 18.2584C239.095 17.4319 239.388 16.7263 239.974 16.1405C240.559 15.5547 241.265 15.2615 242.092 15.2615ZM239.734 22.9759H244.45V41.7098H239.734V22.9759Z" fill="#9D0032"/>
<path d="M264.573 22.9759V27.4526H258.32V41.7098H253.604V27.4526H247.057V22.9759H264.573Z" fill="#9D0032"/>
<path d="M1.93122 11.4786C1.47947 11.4786 1.04466 11.4063 0.626799 11.2617C0.208933 11.1171 0 10.9503 0 10.7612C0 10.6722 0.0282342 10.6111 0.0847025 10.5777C0.129877 10.5443 0.180699 10.5221 0.237167 10.5109C0.293635 10.4887 0.33881 10.472 0.372691 10.4609C1.09549 10.2051 1.70534 9.86583 2.20227 9.44317C2.69919 9.02051 3.25822 8.45325 3.87938 7.7414C4.3763 7.17414 4.89016 6.67918 5.42096 6.25652C5.96306 5.83385 6.56162 5.47793 7.21666 5.18874C7.22795 5.18874 7.25054 5.18318 7.28442 5.17205C7.32959 5.14981 7.35218 5.12756 7.35218 5.10532C7.35218 5.08307 7.33524 5.0497 7.30136 5.00521C7.12066 4.77164 6.99078 4.54362 6.91173 4.32117C6.83267 4.09871 6.7762 3.7984 6.74232 3.42023C6.70844 3.01981 6.66891 2.72506 6.62374 2.53598C6.57856 2.33577 6.49386 2.19117 6.36963 2.10219C6.25669 2.01321 6.076 1.96872 5.82753 1.96872C5.74848 1.96872 5.64119 1.97984 5.50566 2.00209C5.38143 2.02433 5.28544 2.04101 5.21768 2.05214C5.01439 2.10775 4.8224 2.13556 4.6417 2.13556C4.38194 2.13556 4.1956 2.09107 4.08266 2.00209C3.98102 1.90198 3.9302 1.7129 3.9302 1.43483C3.9302 1.21237 4.02055 0.995481 4.20125 0.78415C4.38194 0.572819 4.61346 0.405978 4.89581 0.283628C5.17815 0.150156 5.46049 0.0834201 5.74283 0.0834201C6.18329 0.0834201 6.51645 0.183524 6.74232 0.383733C6.97949 0.572818 7.14325 0.845324 7.2336 1.20125C7.33524 1.54605 7.41994 2.04101 7.4877 2.68613C7.56676 3.42023 7.65711 3.95412 7.75875 4.2878C7.8604 4.62148 8.0298 4.86062 8.26697 5.00521C8.50413 5.14981 8.87683 5.22211 9.38504 5.22211C9.53186 5.22211 9.62785 5.13312 9.67303 4.95516L10.6048 1.9854C10.6612 1.76295 10.6895 1.60167 10.6895 1.50156C10.6895 1.33472 10.6273 1.20681 10.5031 1.11783C10.3789 1.01773 10.1587 0.928745 9.84244 0.850886C9.63915 0.795273 9.56009 0.678484 9.60527 0.500521C9.62785 0.433785 9.67868 0.378171 9.75773 0.333681C9.84808 0.278067 9.93278 0.25026 10.0118 0.25026C10.4184 0.25026 10.8419 0.266945 11.2824 0.300313C11.8019 0.322558 12.1746 0.333681 12.4005 0.333681C12.6037 0.333681 12.999 0.322558 13.5863 0.300313C14.1736 0.278067 14.6027 0.266944 14.8738 0.266944C14.9641 0.266944 15.0319 0.28919 15.0771 0.333681C15.1222 0.367049 15.1392 0.422662 15.1279 0.500521C15.094 0.600625 15.0432 0.678484 14.9754 0.734097C14.9076 0.778588 14.8004 0.817518 14.6535 0.850886C14.1679 0.973236 13.8291 1.11227 13.6371 1.26799C13.4451 1.41258 13.2927 1.65728 13.1797 2.00209L12.2988 4.83837C12.2649 4.93848 12.248 5.01634 12.248 5.07195C12.248 5.14981 12.2649 5.1943 12.2988 5.20542C12.344 5.21654 12.4174 5.22211 12.519 5.22211C12.9369 5.22211 13.3661 5.02746 13.8065 4.63816C14.247 4.23775 14.7495 3.63712 15.3142 2.83629C15.8337 2.11331 16.2516 1.56274 16.5678 1.18457C16.884 0.806395 17.2172 0.517205 17.5673 0.316997C17.9287 0.105666 18.3353 0 18.787 0C19.1484 0 19.4195 0.0834201 19.6002 0.25026C19.7922 0.417101 19.8882 0.633993 19.8882 0.900938C19.8882 1.2235 19.7978 1.50713 19.6171 1.75183C19.4477 1.99652 19.2162 2.11887 18.9225 2.11887C18.708 2.11887 18.4595 2.09107 18.1772 2.03545C17.8384 1.99096 17.6125 1.96872 17.4995 1.96872C16.9687 1.96872 16.4323 2.36913 15.8902 3.16997C15.6417 3.53702 15.4215 3.83733 15.2295 4.07091C15.0488 4.30448 14.8173 4.57699 14.535 4.88843C14.4785 4.96628 14.4446 5.0219 14.4333 5.05527C14.422 5.07751 14.4333 5.10532 14.4672 5.13869C14.7269 5.45012 14.9415 5.80049 15.1109 6.18978C15.2916 6.57908 15.4723 7.04623 15.653 7.59124L15.8563 8.14181C16.0709 8.76469 16.3194 9.26521 16.6017 9.64338C16.8953 10.0104 17.2963 10.2829 17.8045 10.4609C17.9852 10.5276 18.0755 10.6166 18.0755 10.7278C18.0755 10.8279 17.9908 10.9392 17.8214 11.0615C17.6633 11.1727 17.4431 11.2673 17.1607 11.3452C16.8897 11.4341 16.5904 11.4786 16.2629 11.4786C15.4272 11.4786 14.8004 11.195 14.3825 10.6277C13.9646 10.0605 13.6202 9.28745 13.3491 8.30865L13.2305 7.87487C13.0611 7.26312 12.92 6.81821 12.807 6.54015C12.6941 6.25096 12.5473 6.06187 12.3666 5.97289C12.2875 5.93952 12.1915 5.92284 12.0786 5.92284C11.9882 5.92284 11.9148 6.01182 11.8584 6.18978L10.8419 9.54327C10.7855 9.74348 10.7572 9.8992 10.7572 10.0104C10.7572 10.1661 10.8137 10.2941 10.9266 10.3942C11.0509 10.4831 11.2541 10.5666 11.5365 10.6444C11.6607 10.6889 11.7511 10.7334 11.8075 10.7779C11.864 10.8224 11.8809 10.8891 11.8584 10.9781C11.8358 11.056 11.768 11.1227 11.6551 11.1783C11.5421 11.2228 11.4235 11.245 11.2993 11.245C10.8927 11.245 10.4297 11.2228 9.9102 11.1783C9.60527 11.1449 9.30598 11.1283 9.01235 11.1283C8.84294 11.1283 8.54366 11.1505 8.1145 11.195C7.45947 11.2506 6.97384 11.2784 6.65762 11.2784C6.55598 11.2784 6.46563 11.2506 6.38657 11.195C6.30752 11.1394 6.27363 11.0726 6.28493 10.9948C6.3301 10.8168 6.51645 10.7 6.84396 10.6444C7.29571 10.5666 7.61193 10.4553 7.79263 10.3107C7.97333 10.1661 8.12015 9.91588 8.23309 9.55996L9.30034 6.15641L9.33422 6.00626C9.33422 5.93952 9.30034 5.90615 9.23258 5.90615H9.11399C9.01235 5.90615 8.93329 5.91727 8.87683 5.93952C8.58319 6.05075 8.3065 6.25096 8.04674 6.54015C7.78699 6.82934 7.43124 7.27981 6.97949 7.89155C6.75362 8.21411 6.55033 8.49218 6.36963 8.72576C5.7146 9.57108 5.04262 10.244 4.35371 10.7445C3.6648 11.2339 2.8573 11.4786 1.93122 11.4786Z" fill="black"/>
<path d="M16.6353 16C16.2965 16 16.0029 15.9055 15.7544 15.7164C15.5059 15.5384 15.3817 15.2826 15.3817 14.9489C15.3817 14.6486 15.489 14.365 15.7036 14.098C15.9069 13.8422 16.1384 13.7143 16.3981 13.7143C16.5676 13.7143 16.8273 13.8422 17.1774 14.098C17.3468 14.2204 17.4993 14.3149 17.6348 14.3816C17.7816 14.4484 17.9397 14.4818 18.1091 14.4818C18.4479 14.4818 18.7811 14.3149 19.1086 13.9812C19.4474 13.6587 19.7354 13.2249 19.9726 12.6799C20.3792 11.7678 20.5824 10.5888 20.5824 9.14286C20.5824 8.28641 20.5316 7.58012 20.43 7.02398C20.3396 6.45673 20.2211 6.04519 20.0742 5.78936C19.9387 5.53354 19.8088 5.40563 19.6846 5.40563C19.5491 5.40563 19.391 5.53354 19.2103 5.78936C19.0296 6.04519 18.8828 6.28988 18.7698 6.52346C18.6569 6.77928 18.5496 6.90719 18.4479 6.90719C18.4141 6.90719 18.3802 6.8627 18.3463 6.77372C18.3124 6.68474 18.2955 6.57351 18.2955 6.44004C18.2955 6.05075 18.4254 5.65589 18.6851 5.25547C18.9449 4.84393 19.2611 4.51025 19.6338 4.25443C20.0065 3.98749 20.3566 3.85401 20.6841 3.85401C21.0003 3.85401 21.2601 3.95968 21.4634 4.17101C21.6666 4.38234 21.8417 4.7049 21.9885 5.13869C22.3273 6.25096 22.4967 7.50782 22.4967 8.90928C22.4967 9.28745 22.4911 9.5822 22.4798 9.79353V9.86027C22.4798 10.0049 22.5024 10.0772 22.5475 10.0772C22.604 10.0772 22.6661 9.9993 22.7339 9.84359C23.1179 9.13173 23.3889 8.32534 23.547 7.4244C23.7052 6.52346 23.7729 5.46681 23.7503 4.25443C23.7503 4.16545 23.8181 4.07647 23.9536 3.98749C24.1004 3.88738 24.219 3.83733 24.3094 3.83733C24.411 3.83733 24.5522 3.89294 24.7329 4.00417C24.9136 4.10427 25.0717 4.23775 25.2072 4.40459C25.3427 4.56031 25.4105 4.73271 25.4105 4.92179C25.4105 5.94508 24.9757 7.21863 24.1061 8.74244C23.2365 10.2662 22.0845 11.8012 20.6502 13.3472C19.9387 14.1147 19.2159 14.7487 18.4818 15.2492C17.759 15.7497 17.1435 16 16.6353 16Z" fill="black"/>
<path d="M23.9099 15.9333C23.8535 15.9333 23.8083 15.9166 23.7744 15.8832C23.7292 15.8498 23.7123 15.8054 23.7236 15.7497C23.7349 15.6051 23.8591 15.4995 24.0963 15.4327C24.469 15.3438 24.7287 15.2492 24.8755 15.1491C25.0224 15.0601 25.1409 14.8877 25.2313 14.6319L28.1112 5.97289C28.1225 5.9284 28.1451 5.8561 28.1789 5.756C28.2128 5.65589 28.2298 5.57803 28.2298 5.52242C28.2298 5.40007 28.1451 5.35558 27.9757 5.38895C27.6368 5.47793 27.2303 5.60584 26.7559 5.77268C26.6204 5.80605 26.547 5.82273 26.5357 5.82273C26.4792 5.82273 26.4284 5.80605 26.3833 5.77268C26.3494 5.72819 26.3324 5.67258 26.3324 5.60584C26.3324 5.41675 26.4792 5.26104 26.7729 5.13869C26.7616 5.13869 26.9366 5.06639 27.298 4.92179C27.7837 4.69934 28.1451 4.54362 28.3822 4.45464C28.4613 4.42127 28.5347 4.3601 28.6025 4.27112C28.6702 4.17101 28.738 4.02086 28.8057 3.82065C28.9751 3.29788 29.2067 2.90859 29.5003 2.65276C29.7939 2.39694 30.1215 2.26903 30.4829 2.26903C30.8217 2.26903 30.9911 2.42475 30.9911 2.73618C30.9911 2.82516 30.9741 2.93639 30.9402 3.06986L30.7539 3.72054C30.7313 3.83177 30.72 3.90407 30.72 3.93743C30.72 3.98193 30.7257 4.02085 30.737 4.05422C30.7595 4.07647 30.7821 4.08203 30.8047 4.07091C31.1435 3.99305 31.4485 3.95412 31.7195 3.95412C32.5891 3.95412 33.2611 4.16545 33.7354 4.58811C34.2098 4.99965 34.4469 5.54466 34.4469 6.22315C34.4469 7.00174 34.2154 7.79701 33.7524 8.60897C33.3006 9.42092 32.7021 10.0938 31.9567 10.6277C31.2226 11.1505 30.449 11.4119 29.6358 11.4119C29.3535 11.4119 29.0429 11.3007 28.7041 11.0782C28.5799 10.9892 28.4895 10.9447 28.4331 10.9447C28.3766 10.9447 28.3258 10.9725 28.2806 11.0282C28.2467 11.0726 28.2072 11.1616 28.162 11.2951L27.2472 14.4651C27.2246 14.5763 27.2133 14.6486 27.2133 14.682C27.2133 14.8377 27.2811 14.9711 27.4166 15.0824C27.5634 15.1936 27.8006 15.2881 28.1281 15.366C28.3427 15.4105 28.45 15.5217 28.45 15.6997C28.45 15.7553 28.4105 15.7998 28.3314 15.8332C28.2636 15.8776 28.1789 15.8999 28.0773 15.8999C27.6933 15.8999 27.394 15.8943 27.1795 15.8832L26.18 15.8665L25.2313 15.8999C24.6214 15.9221 24.181 15.9333 23.9099 15.9333ZM29.6358 10.7779C29.9182 10.7779 30.2739 10.5666 30.7031 10.1439C31.1322 9.72124 31.4993 9.18179 31.8042 8.52555C32.1204 7.85819 32.2785 7.1797 32.2785 6.49009C32.2785 5.38895 31.8212 4.83837 30.9064 4.83837C30.7144 4.83837 30.5676 4.8495 30.4659 4.87174L29.009 9.34307C28.9526 9.50991 28.9243 9.66006 28.9243 9.79353C28.9243 9.94925 28.9582 10.105 29.026 10.2607C29.0937 10.4498 29.1671 10.5832 29.2462 10.6611C29.3253 10.739 29.4551 10.7779 29.6358 10.7779Z" fill="black"/>
<path d="M36.4005 11.4119C36.1295 11.4119 35.8641 11.2951 35.6043 11.0615C35.3559 10.8279 35.2373 10.5944 35.2486 10.3608C35.2486 10.2607 35.2824 10.1105 35.3502 9.91032L37.0951 5.756C37.129 5.66701 37.1459 5.59472 37.1459 5.5391C37.1459 5.42788 37.0781 5.37226 36.9426 5.37226C36.8184 5.37226 36.6377 5.42788 36.4005 5.5391C36.1633 5.63921 35.9262 5.77824 35.689 5.9562C35.6213 6.0007 35.5591 6.02294 35.5027 6.02294C35.4123 6.02294 35.3671 5.98401 35.3671 5.90615C35.3671 5.70594 35.5591 5.45012 35.9431 5.13869C36.3271 4.82725 36.7789 4.55474 37.2984 4.32117C37.8292 4.07647 38.2866 3.95412 38.6705 3.95412C38.8738 3.95412 39.0432 4.04866 39.1788 4.23775C39.3256 4.41571 39.399 4.62148 39.399 4.85506C39.399 4.98853 39.3764 5.10532 39.3312 5.20542L38.6536 6.94056C38.6423 6.96281 38.6367 6.99062 38.6367 7.02398C38.6367 7.10184 38.6875 7.14077 38.7891 7.14077L40.2121 7.12409C40.2912 7.12409 40.3533 7.1074 40.3985 7.07404C40.4549 7.04067 40.5058 6.97393 40.5509 6.87383L41.4149 4.88843C41.494 4.69934 41.6521 4.53806 41.8892 4.40459C42.1377 4.25999 42.3975 4.14877 42.6685 4.07091C42.9396 3.99305 43.1428 3.95412 43.2784 3.95412C43.4139 3.95412 43.5155 4.00417 43.5833 4.10427C43.6623 4.19326 43.6962 4.32117 43.6849 4.48801C43.6849 4.52138 43.6341 4.6326 43.5325 4.82169C43.4308 5.01077 43.3122 5.27216 43.1767 5.60584L41.7537 9.3097C41.6747 9.45429 41.6577 9.54884 41.7029 9.59333L41.7537 9.61001C41.7989 9.61001 41.861 9.59333 41.9401 9.55996C42.0304 9.51547 42.0869 9.48766 42.1095 9.47654C42.1998 9.46542 42.3862 9.36531 42.6685 9.17623C42.9621 8.98714 43.1993 8.80361 43.38 8.62565C43.4139 8.59228 43.4478 8.58672 43.4816 8.60897C43.5268 8.62009 43.5664 8.65346 43.6002 8.70907C43.6341 8.75356 43.6454 8.80361 43.6341 8.85923C43.5551 9.1373 43.2897 9.4821 42.8379 9.89364C42.3862 10.3052 41.8836 10.6611 41.3302 10.9614C40.7881 11.2617 40.3364 11.4119 39.975 11.4119C39.7491 11.4119 39.5515 11.3229 39.382 11.1449C39.2239 10.967 39.1449 10.7668 39.1449 10.5443C39.1449 10.4442 39.1618 10.3441 39.1957 10.244L40.0935 8.10845L40.1274 7.97497C40.1274 7.90824 40.071 7.87487 39.958 7.87487L38.5011 7.89155C38.343 7.89155 38.2357 7.95273 38.1793 8.07508L37.0443 11.0448C36.9991 11.1672 36.9144 11.2562 36.7901 11.3118C36.6772 11.3785 36.5473 11.4119 36.4005 11.4119Z" fill="black"/>
<path d="M44.9915 11.4119C44.7543 11.4119 44.5228 11.3173 44.2969 11.1283C44.0597 10.9392 43.9412 10.7501 43.9412 10.561C43.9412 10.0716 44.1727 9.47654 44.6357 8.77581C45.0988 8.07508 45.9288 7.0796 47.126 5.78936C47.6229 5.2666 48.0803 4.84393 48.4982 4.52138C48.9273 4.19882 49.2492 4.03754 49.4638 4.03754C49.7574 4.03754 50.0906 4.18213 50.4633 4.47132C50.5536 4.57143 50.6044 4.62148 50.6157 4.62148H50.6496C50.6722 4.62148 50.6891 4.61036 50.7004 4.58811C50.7117 4.55474 50.723 4.52694 50.7343 4.50469C50.8811 4.22662 50.9658 4.04866 50.9884 3.9708C51.0562 3.84845 51.1973 3.78728 51.4119 3.78728C51.6604 3.78728 51.9314 3.8707 52.2251 4.03754C52.5187 4.20438 52.6655 4.3601 52.6655 4.50469C52.6655 4.54918 52.6542 4.6048 52.6316 4.67153L50.9376 9.20959C50.9037 9.28745 50.8868 9.35419 50.8868 9.4098C50.8868 9.56552 50.9658 9.64338 51.1239 9.64338C51.2482 9.64338 51.4402 9.54884 51.6999 9.35975C51.971 9.17066 52.2477 8.93153 52.53 8.64234C52.5639 8.60897 52.5921 8.59228 52.6147 8.59228C52.6712 8.59228 52.7163 8.62009 52.7502 8.6757C52.7841 8.72019 52.801 8.78137 52.801 8.85923C52.801 9.01495 52.6938 9.23184 52.4792 9.50991C52.2759 9.77685 52.0048 10.0494 51.666 10.3274C51.2482 10.6611 50.8416 10.928 50.4463 11.1283C50.051 11.3173 49.7235 11.4119 49.4638 11.4119C49.204 11.4119 48.9499 11.3118 48.7014 11.1116C48.4643 10.9114 48.3457 10.7056 48.3457 10.4943C48.3457 10.4275 48.3739 10.2996 48.4304 10.1105C48.453 10.0215 48.5094 9.87695 48.5998 9.67675C48.6901 9.46541 48.7579 9.30414 48.8031 9.19291L49.0064 8.72576C49.0177 8.71463 49.0233 8.69239 49.0233 8.65902C49.0233 8.61453 49.0064 8.58672 48.9725 8.5756C48.9499 8.56448 48.9273 8.57004 48.9047 8.59228C48.0238 9.57108 47.2728 10.2885 46.6516 10.7445C46.0305 11.1894 45.4771 11.4119 44.9915 11.4119ZM46.7702 9.64338C46.9622 9.64338 47.2671 9.46541 47.685 9.10949C48.1029 8.75356 48.5264 8.31422 48.9556 7.79145C49.3169 7.35766 49.6049 6.97393 49.8195 6.64025C50.0341 6.29545 50.1414 6.05075 50.1414 5.90615C50.1414 5.80605 50.0284 5.66145 49.8026 5.47237C49.5428 5.27216 49.3339 5.17205 49.1758 5.17205C49.0064 5.17205 48.7692 5.27216 48.4643 5.47237C48.1593 5.67258 47.8714 5.90615 47.6003 6.1731C47.2389 6.52902 46.9227 6.99061 46.6516 7.55787C46.3919 8.12513 46.262 8.62565 46.262 9.05944C46.262 9.24852 46.3072 9.39312 46.3975 9.49322C46.4879 9.59333 46.6121 9.64338 46.7702 9.64338Z" fill="black"/>
<path d="M53.8855 11.4119C53.4676 11.4119 53.174 11.2784 53.0046 11.0115C52.8239 10.7445 52.7448 10.4553 52.7674 10.1439C52.8126 9.83246 52.9086 9.67675 53.0554 9.67675C53.1458 9.67675 53.2587 9.69899 53.3942 9.74348C53.5297 9.77685 53.6257 9.80466 53.6822 9.8269C53.9533 9.91588 54.1961 9.96037 54.4107 9.96037C54.693 9.96037 54.9132 9.92145 55.0713 9.84359C55.2407 9.76573 55.4045 9.59333 55.5626 9.32638L57.5277 6.05631C58.3747 4.65485 59.3516 3.95412 60.4584 3.95412C60.6504 3.95412 60.8593 4.02642 61.0852 4.17101C61.3224 4.31561 61.441 4.46576 61.441 4.62148C61.441 4.74383 61.4014 4.97185 61.3224 5.30553L60.1027 9.32638L60.0688 9.54327C60.0688 9.63226 60.1027 9.67675 60.1704 9.67675C60.2834 9.67675 60.5092 9.5544 60.848 9.3097C61.1869 9.065 61.4748 8.83142 61.712 8.60897C61.7572 8.56448 61.7854 8.54223 61.7967 8.54223C61.8532 8.54223 61.8984 8.57004 61.9322 8.62565C61.9774 8.68126 62 8.74244 62 8.80918C61.9887 8.96489 61.8871 9.17066 61.6951 9.42649C61.3111 9.89364 60.7803 10.3441 60.1027 10.7779C59.4363 11.2006 58.8942 11.4119 58.4764 11.4119C58.2166 11.4119 57.9907 11.3118 57.7988 11.1116C57.6181 10.9002 57.5277 10.6889 57.5277 10.4776C57.5277 10.3997 57.5334 10.3441 57.5447 10.3107L59.1709 5.67258C59.1935 5.61696 59.2048 5.54466 59.2048 5.45568C59.2048 5.33333 59.1483 5.27216 59.0354 5.27216C58.9225 5.27216 58.8095 5.33889 58.6966 5.47237C58.595 5.60584 58.4933 5.75043 58.3917 5.90615C58.3013 6.05075 58.2392 6.14529 58.2053 6.18978C58.1376 6.28988 58.0585 6.4178 57.9682 6.57351C57.8778 6.72923 57.7818 6.89051 57.6802 7.05735C57.172 7.94717 56.7089 8.72019 56.2911 9.37643C55.8845 10.0327 55.5344 10.5054 55.2407 10.7946C54.8568 11.2061 54.405 11.4119 53.8855 11.4119Z" fill="black"/>
</svg>
