<svg width="685" height="100" viewBox="0 0 685 100" fill="none" xmlns="http://www.w3.org/2000/svg">
<g id="oriental-world-logo-ua">
<g id="Group">
<path id="Vector" d="M91.9361 19.4974L79.38 31.4296C70.8395 22.4309 61.231 17.9316 50.5545 17.9316C41.5433 17.9316 33.9522 21.0024 27.7798 27.1426C21.6106 33.2859 18.5236 40.8545 18.5236 49.8532C18.5236 56.121 19.8909 61.6897 22.6257 66.5514C25.3572 71.4114 29.2208 75.2309 34.2196 78.0016C39.2152 80.7724 44.7696 82.1594 50.8747 82.1594C56.0833 82.1594 60.8483 81.1906 65.1586 79.2481C69.4705 77.3089 74.2115 73.7768 79.38 68.6646L91.5535 81.3215C84.5869 88.1016 78.003 92.7989 71.8065 95.4213C65.6085 98.0436 58.533 99.3524 50.5833 99.3524C35.9232 99.3524 23.9211 94.7206 14.5832 85.4521C5.24207 76.1837 0.57312 64.3073 0.57312 49.8213C0.57312 40.4475 2.69782 32.1159 6.95367 24.8298C11.2047 17.5469 17.2971 11.6877 25.226 7.25543C33.1533 2.82312 41.6922 0.60614 50.8395 0.60614C58.6163 0.60614 66.108 2.24533 73.31 5.52048C80.5136 8.79883 86.7228 13.4578 91.9361 19.4974Z" fill="#9D0032"/>
<path id="Vector_2" d="M99.548 24.5745H115.23L125.868 39.1962L136.45 24.5745H151.867L133.596 49.8197L154.258 78.2203H138.576L125.775 60.6236L113.039 78.2203H97.6202L118.046 50.0001L99.548 24.5745Z" fill="#9D0032"/>
<path id="Vector_3" d="M166.401 2.48315C168.769 2.48315 170.798 3.34024 172.492 5.04804C174.186 6.75585 175.033 8.82757 175.033 11.2616C175.033 13.6621 174.195 15.7066 172.517 17.4001C170.841 19.0935 168.834 19.941 166.5 19.941C164.1 19.941 162.052 19.0776 160.358 17.3506C158.664 15.6269 157.819 13.5296 157.819 11.0652C157.819 8.69826 158.656 6.67764 160.334 5.00016C162.01 3.32269 164.031 2.48315 166.401 2.48315ZM159.649 24.5745H173.153V78.2219H159.649V24.5745Z" fill="#9D0032"/>
<path id="Vector_4" d="M192.394 78.2219V87.543H180.374V66.8307H188.474L207.056 24.5745H215.763L234.602 66.8307H242.849V87.543H229.989V78.2219H192.394ZM220.252 66.8307L211.414 44.2031L202.281 66.8307H220.252Z" fill="#9D0032"/>
<path id="Vector_5" d="M264.812 43.903H284.993V24.5745H298.499V78.2219H284.993V55.9821H264.812V78.2219H251.308V24.5745H264.812V43.903Z" fill="#9D0032"/>
<path id="Vector_6" d="M319.272 78.2219H312.1V24.5745H325.259V56.0827L352.811 24.5745H359.291V78.2219H346.133V47.3553L319.272 78.2219Z" fill="#9D0032"/>
<path id="Vector_7" d="M380.064 78.2219H372.893V24.5745H386.051V56.0827L413.604 24.5745H420.083V78.2219H406.925V47.3553L380.064 78.2219ZM376.702 0.90625H387.633C388.49 2.25653 389.686 3.26684 391.219 3.93879C392.752 4.61234 394.624 4.9491 396.833 4.9491C399.075 4.9491 401.103 4.55647 402.918 3.76641C404.106 3.2413 405.145 2.28686 406.033 0.90625H416.966C416.338 5.08159 414.335 8.43497 410.955 10.9663C407.575 13.4977 402.85 14.7634 396.784 14.7634C392.693 14.7634 389.273 14.1968 386.519 13.062C383.765 11.9272 381.549 10.3087 379.867 8.20512C378.185 6.10148 377.129 3.66906 376.702 0.90625Z" fill="#9D0032"/>
<path id="Vector_8" d="M553.296 19.7495L540.739 31.6818C532.199 22.6831 522.59 18.1837 511.914 18.1837C502.903 18.1837 495.312 21.2562 489.138 27.3963C482.968 33.5396 479.883 41.1066 479.883 50.1069C479.883 56.3747 481.25 61.9434 483.984 66.8019C486.717 71.6651 490.58 75.4814 495.577 78.2554C500.575 81.0262 506.129 82.4131 512.234 82.4131C517.443 82.4131 522.205 81.4443 526.518 79.5019C530.83 77.5626 535.571 74.0305 540.739 68.9183L552.91 81.5752C545.943 88.3522 539.363 93.0526 533.164 95.6718C526.968 98.2973 519.893 99.6061 511.943 99.6061C497.281 99.6061 485.279 94.9743 475.943 85.7059C466.602 76.4374 461.933 64.561 461.933 50.075C461.933 40.7012 464.057 32.3681 468.312 25.0836C472.563 17.7991 478.655 11.9415 486.584 7.50756C494.513 3.07684 503.05 0.859924 512.197 0.859924C519.976 0.859924 527.466 2.49905 534.67 5.77261C541.873 9.05255 548.079 13.7099 553.296 19.7495Z" fill="#9D0032"/>
<path id="Vector_9" d="M561.127 78.2219V24.5745H582.742C589.832 24.5745 594.647 25.9631 597.186 28.7403C599.724 31.5174 600.994 34.6665 600.994 38.1826C600.994 43.4098 598.389 47.175 593.179 49.4749C600.302 51.9073 603.863 56.4929 603.863 63.2331C603.863 66.8802 602.923 69.8983 601.043 72.2797C599.164 74.6642 596.781 76.2475 593.896 77.0392C591.009 77.8277 586.979 78.2203 581.801 78.2203H561.127V78.2219ZM574.631 45.6795H579.846C582.065 45.6795 583.778 45.1288 584.987 44.0275C586.196 42.9278 586.8 41.7036 586.8 40.3533C586.8 38.3487 586.22 36.7877 585.062 35.6688C583.902 34.5516 582.528 33.9929 580.939 33.9929L579.201 34.0409H574.631V45.6795ZM574.631 67.8666H581.431C584.078 67.8666 585.94 67.252 587.016 66.0183C588.092 64.7877 588.63 63.5779 588.63 62.3952C588.63 60.6523 588.025 59.0594 586.817 57.6102C585.608 56.1673 583.434 55.4411 580.289 55.4411H574.631V67.8666Z" fill="#9D0032"/>
<path id="Vector_10" d="M620.609 2.48315C622.978 2.48315 625.006 3.34024 626.7 5.04804C628.394 6.75585 629.241 8.82757 629.241 11.2616C629.241 13.6621 628.404 15.7066 626.726 17.4001C625.049 19.0935 623.043 19.941 620.709 19.941C618.309 19.941 616.261 19.0776 614.567 17.3506C612.873 15.6269 612.027 13.5296 612.027 11.0652C612.027 8.69826 612.865 6.67764 614.543 5.00016C616.218 3.32269 618.24 2.48315 620.609 2.48315ZM613.857 24.5745H627.362V78.2219H613.857V24.5745Z" fill="#9D0032"/>
<path id="Vector_11" d="M634.829 24.5745H684.987V37.3942H667.08V78.2219H653.576V37.3942H634.828V24.5745H634.829Z" fill="#9D0032"/>
</g>
</g>
</svg>
