<svg width="300" height="50" viewBox="0 0 300 50" fill="none" xmlns="http://www.w3.org/2000/svg">
<path d="M244.892 27.039H247.918V28.8108C248.246 28.1124 248.681 27.5822 249.224 27.22C249.767 26.8579 250.362 26.6768 251.009 26.6768C251.466 26.6768 251.944 26.7976 252.445 27.039L251.345 30.0783C250.931 29.8713 250.591 29.7679 250.324 29.7679C249.78 29.7679 249.319 30.1041 248.94 30.7767C248.569 31.4492 248.384 32.7684 248.384 34.7342L248.396 35.4197V41.1102H244.892V27.039Z" fill="#9D0032"/>
<path d="M255.587 21.2449C256.208 21.2449 256.738 21.4691 257.178 21.9174C257.626 22.3658 257.851 22.909 257.851 23.547C257.851 24.1764 257.631 24.7153 257.191 25.1637C256.751 25.6034 256.225 25.8233 255.613 25.8233C254.984 25.8233 254.445 25.5991 253.997 25.1507C253.557 24.6938 253.337 24.1419 253.337 23.4953C253.337 22.8745 253.557 22.3442 253.997 21.9045C254.436 21.4648 254.967 21.2449 255.587 21.2449ZM253.815 27.039H257.359V41.1102H253.815V27.039Z" fill="#9D0032"/>
<path d="M274.664 35.0963H263.321C263.485 36.0965 263.921 36.894 264.628 37.489C265.343 38.0753 266.253 38.3684 267.356 38.3684C268.676 38.3684 269.809 37.9071 270.758 36.9846L273.733 38.3813C272.991 39.4332 272.103 40.2135 271.068 40.7222C270.034 41.2223 268.805 41.4724 267.382 41.4724C265.175 41.4724 263.377 40.7783 261.989 39.3901C260.601 37.9934 259.907 36.2474 259.907 34.1522C259.907 32.0053 260.597 30.2248 261.976 28.8108C263.364 27.3882 265.102 26.6768 267.188 26.6768C269.404 26.6768 271.206 27.3882 272.594 28.8108C273.983 30.2248 274.677 32.0958 274.677 34.4238L274.664 35.0963ZM271.12 32.3157C270.887 31.5311 270.426 30.8931 269.736 30.4016C269.055 29.9101 268.262 29.6644 267.356 29.6644C266.374 29.6644 265.511 29.9403 264.77 30.4921C264.304 30.837 263.873 31.4449 263.477 32.3157H271.12Z" fill="#9D0032"/>
<path d="M277.535 27.039H281.053V28.4746C281.855 27.802 282.579 27.3364 283.225 27.0778C283.881 26.8105 284.549 26.6768 285.23 26.6768C286.627 26.6768 287.812 27.164 288.787 28.1383C289.606 28.966 290.015 30.1904 290.015 31.8113V41.1102H286.523V34.9411C286.523 33.2598 286.446 32.1433 286.291 31.5914C286.144 31.0396 285.881 30.6215 285.502 30.3369C285.131 30.0438 284.67 29.8972 284.118 29.8972C283.402 29.8972 282.786 30.1386 282.268 30.6215C281.76 31.0957 281.406 31.7553 281.208 32.6002C281.104 33.04 281.053 33.9927 281.053 35.4585V41.1102H277.535V27.039Z" fill="#9D0032"/>
<path d="M293.869 21.8528H297.387V27.039H299.482V30.0783H297.387V41.1102H293.869V30.0783H292.059V27.039H293.869V21.8528Z" fill="#9D0032"/>
<path d="M229.217 20.8047C232.698 20.8047 235.688 22.0655 238.188 24.5873C240.698 27.109 241.954 30.183 241.954 33.8094C241.954 37.4022 240.715 40.4428 238.238 42.931C235.772 45.4193 232.776 46.6634 229.25 46.6634C225.557 46.6634 222.489 45.3858 220.045 42.8306C217.601 40.2754 216.38 37.2404 216.38 33.7257C216.38 31.3713 216.949 29.2067 218.087 27.2317C219.225 25.2567 220.787 23.6946 222.773 22.5453C224.77 21.3849 226.918 20.8047 229.217 20.8047ZM229.167 25.3906C226.89 25.3906 224.977 26.1828 223.426 27.7673C221.875 29.3517 221.099 31.3657 221.099 33.8094C221.099 36.5319 222.076 38.6854 224.028 40.2698C225.546 41.5084 227.286 42.1277 229.25 42.1277C231.471 42.1277 233.362 41.3243 234.924 39.7175C236.486 38.1108 237.267 36.1302 237.267 33.7759C237.267 31.4327 236.481 29.4521 234.907 27.8342C233.334 26.2052 231.421 25.3906 229.167 25.3906Z" fill="#9D0032"/>
<path d="M144.822 26.6768C146.15 26.6768 147.395 27.0088 148.559 27.6727C149.732 28.3366 150.646 29.2376 151.301 30.3757C151.956 31.5138 152.284 32.7425 152.284 34.0617C152.284 35.3895 151.952 36.6311 151.288 37.7864C150.633 38.9418 149.736 39.8471 148.598 40.5024C147.46 41.149 146.206 41.4724 144.835 41.4724C142.817 41.4724 141.093 40.7567 139.661 39.3255C138.239 37.8856 137.527 36.1396 137.527 34.0875C137.527 31.8889 138.334 30.0567 139.946 28.591C141.36 27.3149 142.985 26.6768 144.822 26.6768ZM144.873 30.0007C143.778 30.0007 142.864 30.3843 142.132 31.1517C141.407 31.9105 141.045 32.8848 141.045 34.0746C141.045 35.2989 141.403 36.2905 142.119 37.0492C142.843 37.808 143.757 38.1874 144.861 38.1874C145.964 38.1874 146.882 37.8037 147.615 37.0363C148.348 36.2689 148.715 35.2817 148.715 34.0746C148.715 32.8675 148.352 31.8889 147.628 31.1388C146.913 30.38 145.994 30.0007 144.873 30.0007Z" fill="#9D0032"/>
<path d="M153.5 27.039H154.754C154.763 25.1938 154.793 24.1031 154.845 23.7669C154.94 22.9909 155.263 22.3787 155.815 21.9304C156.375 21.4734 157.164 21.2449 158.182 21.2449C158.915 21.2449 159.742 21.4131 160.665 21.7493V24.4394C160.156 24.2928 159.738 24.2195 159.41 24.2195C158.996 24.2195 158.695 24.3058 158.505 24.4782C158.367 24.6075 158.298 24.8748 158.298 25.2801L158.285 27.039H160.523V30.0395H158.285V41.1102H154.754V30.0395H153.5V27.039Z" fill="#9D0032"/>
<path d="M170.455 21.8528H173.973V27.039H176.068V30.0783H173.973V41.1102H170.455V30.0783H168.645V27.039H170.455V21.8528Z" fill="#9D0032"/>
<path d="M177.982 21.6071H181.487V28.4616C182.177 27.8667 182.871 27.4227 183.569 27.1295C184.268 26.8277 184.975 26.6768 185.69 26.6768C187.087 26.6768 188.264 27.1597 189.221 28.1254C190.04 28.9617 190.45 30.1904 190.45 31.8113V41.1102H186.971V34.9411C186.971 33.3116 186.893 32.2079 186.738 31.6302C186.583 31.0526 186.316 30.6215 185.936 30.3369C185.565 30.0524 185.104 29.9101 184.552 29.9101C183.837 29.9101 183.22 30.1472 182.703 30.6215C182.194 31.0957 181.841 31.7423 181.642 32.5614C181.539 32.9839 181.487 33.9496 181.487 35.4585V41.1102H177.982V21.6071Z" fill="#9D0032"/>
<path d="M207.974 35.0963H196.632C196.796 36.0965 197.231 36.894 197.938 37.489C198.654 38.0753 199.563 38.3684 200.667 38.3684C201.986 38.3684 203.12 37.9071 204.068 36.9846L207.043 38.3813C206.302 39.4332 205.414 40.2135 204.379 40.7222C203.344 41.2223 202.116 41.4724 200.693 41.4724C198.486 41.4724 196.688 40.7783 195.3 39.3901C193.912 37.9934 193.218 36.2474 193.218 34.1522C193.218 32.0053 193.907 30.2248 195.287 28.8108C196.675 27.3882 198.412 26.6768 200.499 26.6768C202.715 26.6768 204.517 27.3882 205.905 28.8108C207.293 30.2248 207.987 32.0958 207.987 34.4238L207.974 35.0963ZM204.431 32.3157C204.198 31.5311 203.737 30.8931 203.047 30.4016C202.366 29.9101 201.572 29.6644 200.667 29.6644C199.684 29.6644 198.822 29.9403 198.08 30.4921C197.615 30.837 197.184 31.4449 196.787 32.3157H204.431Z" fill="#9D0032"/>
<path d="M90.0298 26.6768C91.3576 26.6768 92.6035 27.0088 93.7675 27.6727C94.9401 28.3366 95.854 29.2376 96.5093 30.3757C97.1646 31.5138 97.4922 32.7425 97.4922 34.0617C97.4922 35.3895 97.1603 36.6311 96.4964 37.7864C95.8411 38.9418 94.9444 39.8471 93.8063 40.5024C92.6681 41.149 91.4136 41.4724 90.0427 41.4724C88.0251 41.4724 86.3007 40.7567 84.8695 39.3255C83.4468 37.8856 82.7355 36.1396 82.7355 34.0875C82.7355 31.8889 83.5416 30.0567 85.154 28.591C86.568 27.3149 88.1933 26.6768 90.0298 26.6768ZM90.0815 30.0007C88.9865 30.0007 88.0726 30.3843 87.3397 31.1517C86.6154 31.9105 86.2533 32.8848 86.2533 34.0746C86.2533 35.2989 86.6111 36.2905 87.3268 37.0492C88.051 37.808 88.965 38.1874 90.0686 38.1874C91.1722 38.1874 92.0905 37.8037 92.8233 37.0363C93.5562 36.2689 93.9227 35.2817 93.9227 34.0746C93.9227 32.8675 93.5605 31.8889 92.8363 31.1388C92.1206 30.38 91.2024 30.0007 90.0815 30.0007Z" fill="#9D0032"/>
<path d="M99.5615 27.039H102.588V28.8108C102.916 28.1124 103.351 27.5822 103.894 27.22C104.437 26.8579 105.032 26.6768 105.679 26.6768C106.136 26.6768 106.614 26.7976 107.114 27.039L106.015 30.0783C105.601 29.8713 105.261 29.7679 104.993 29.7679C104.45 29.7679 103.989 30.1041 103.61 30.7767C103.239 31.4492 103.053 32.7684 103.053 34.7342L103.066 35.4197V41.1102H99.5615V27.039Z" fill="#9D0032"/>
<path d="M108.498 21.6071H112.029V41.1102H108.498V21.6071Z" fill="#9D0032"/>
<path d="M125.635 21.6071H129.153V41.1102H125.635V39.6229C124.945 40.2782 124.251 40.7524 123.553 41.0456C122.863 41.3301 122.113 41.4724 121.302 41.4724C119.483 41.4724 117.909 40.7697 116.582 39.3643C115.254 37.9502 114.59 36.1956 114.59 34.1005C114.59 31.9277 115.232 30.1472 116.517 28.7591C117.802 27.3709 119.362 26.6768 121.199 26.6768C122.044 26.6768 122.837 26.8364 123.578 27.1554C124.32 27.4744 125.005 27.9529 125.635 28.591V21.6071ZM121.923 29.936C120.828 29.936 119.918 30.324 119.194 31.1C118.47 31.8674 118.108 32.8546 118.108 34.0617C118.108 35.2774 118.474 36.2776 119.207 37.0622C119.948 37.8468 120.858 38.2391 121.936 38.2391C123.048 38.2391 123.971 37.8554 124.704 37.088C125.436 36.312 125.803 35.2989 125.803 34.0487C125.803 32.8244 125.436 31.8329 124.704 31.0741C123.971 30.3154 123.044 29.936 121.923 29.936Z" fill="#9D0032"/>
<path d="M53.7493 21.424H58.3687L61.9169 37.14L66.3188 21.424H70.2185L74.6705 37.14L78.1853 21.424H82.8047L77.2648 46.0441H72.7625L68.2268 30.1272L63.7747 46.0441H59.3227L53.7493 21.424Z" fill="#9D0032"/>
<path d="M17.4758 21.6071H20.9807V28.4616C21.6705 27.8667 22.3646 27.4227 23.0629 27.1295C23.7613 26.8277 24.4683 26.6768 25.184 26.6768C26.5808 26.6768 27.7577 27.1597 28.7147 28.1254C29.5338 28.9617 29.9434 30.1904 29.9434 31.8113V41.1102H26.4644V34.9411C26.4644 33.3116 26.3868 32.2079 26.2316 31.6302C26.0764 31.0526 25.8091 30.6215 25.4297 30.3369C25.059 30.0524 24.5977 29.9101 24.0459 29.9101C23.3302 29.9101 22.7137 30.1472 22.1964 30.6215C21.6877 31.0957 21.3342 31.7423 21.1359 32.5614C21.0324 32.9839 20.9807 33.9496 20.9807 35.4585V41.1102H17.4758V21.6071Z" fill="#9D0032"/>
<path d="M47.4678 35.0963H36.1254C36.2892 36.0965 36.7247 36.894 37.4317 37.489C38.1473 38.0753 39.0569 38.3684 40.1606 38.3684C41.4797 38.3684 42.6136 37.9071 43.562 36.9846L46.5366 38.3813C45.7951 39.4332 44.907 40.2135 43.8724 40.7222C42.8377 41.2223 41.6091 41.4724 40.1864 41.4724C37.9792 41.4724 36.1815 40.7783 34.7933 39.3901C33.4052 37.9934 32.7111 36.2474 32.7111 34.1522C32.7111 32.0053 33.4008 30.2248 34.7804 28.8108C36.1685 27.3882 37.9059 26.6768 39.9924 26.6768C42.2083 26.6768 44.0103 27.3882 45.3985 28.8108C46.7867 30.2248 47.4807 32.0958 47.4807 34.4238L47.4678 35.0963ZM43.9241 32.3157C43.6913 31.5311 43.23 30.8931 42.5403 30.4016C41.8591 29.9101 41.0659 29.6644 40.1606 29.6644C39.1776 29.6644 38.3154 29.9403 37.5739 30.4921C37.1083 30.837 36.6772 31.4449 36.2806 32.3157H43.9241Z" fill="#9D0032"/>
<path d="M0.482422 21.424H14.0896V26.0434H9.6041V46.0441H4.85078V26.0434H0.482422V21.424Z" fill="#9D0032"/>
<path d="M239.281 20C237.784 20 237.023 19.6648 237 18.9945C237 18.6534 237.064 18.3653 237.193 18.1301C237.322 17.9067 237.48 17.7949 237.667 17.7949C237.796 17.7949 237.942 17.8537 238.106 17.9713C238.269 18.1007 238.486 18.2947 238.755 18.5535C239.047 18.8122 239.281 19.0004 239.457 19.118C239.632 19.2473 239.796 19.312 239.948 19.312C240.229 19.312 240.487 19.0768 240.721 18.6064C240.966 18.136 241.265 17.3069 241.616 16.1191L244.494 6.75193C244.552 6.51672 244.581 6.3462 244.581 6.24035C244.581 6.06395 244.517 5.9287 244.388 5.83462C244.26 5.72878 244.037 5.63469 243.722 5.55237C243.511 5.49357 243.429 5.37008 243.476 5.18192C243.488 5.11136 243.534 5.05255 243.616 5.00551C243.71 4.94671 243.798 4.91731 243.879 4.91731C244.324 4.91731 244.763 4.93495 245.196 4.97023C245.757 4.99375 246.149 5.00551 246.372 5.00551C246.57 5.00551 246.962 4.99375 247.547 4.97023C248.179 4.94671 248.63 4.93495 248.899 4.93495C249.086 4.93495 249.162 5.01727 249.127 5.18192C249.103 5.28776 249.057 5.37008 248.986 5.42889C248.916 5.47593 248.805 5.51709 248.653 5.55237C248.15 5.68173 247.805 5.82874 247.618 5.99338C247.442 6.14627 247.296 6.405 247.179 6.76957L244.564 15.2723C244.166 16.6248 243.417 17.7655 242.318 18.6946C241.861 19.1062 241.37 19.4237 240.843 19.6472C240.329 19.8824 239.808 20 239.281 20Z" fill="black"/>
<path d="M249.863 16.7189C249.418 16.7189 248.997 16.613 248.599 16.4013C248.213 16.1896 247.903 15.8956 247.669 15.5193C247.435 15.1312 247.318 14.6961 247.318 14.2139C247.318 13.4612 247.529 12.6674 247.95 11.8324C248.383 10.9857 248.985 10.2742 249.757 9.69791C250.53 9.12165 251.413 8.83352 252.407 8.83352C253.203 8.83352 253.835 9.05696 254.303 9.50386C254.771 9.95075 255.005 10.5682 255.005 11.3561C255.005 12.1088 254.788 12.9085 254.355 13.7552C253.934 14.5902 253.332 15.2958 252.548 15.8721C251.764 16.4366 250.869 16.7189 249.863 16.7189ZM250.196 16.0309C250.559 16.0309 250.939 15.7016 251.337 15.043C251.735 14.3844 252.068 13.5965 252.337 12.6792C252.606 11.7501 252.741 10.9327 252.741 10.2271C252.741 9.73319 252.542 9.48622 252.144 9.48622C251.828 9.48622 251.466 9.81551 251.056 10.4741C250.647 11.1327 250.296 11.9206 250.003 12.8379C249.722 13.7552 249.582 14.5608 249.582 15.2547C249.582 15.5134 249.635 15.7075 249.74 15.8368C249.857 15.9662 250.009 16.0309 250.196 16.0309Z" fill="black"/>
<path d="M257.181 16.7189C256.888 16.7189 256.625 16.5718 256.391 16.2778C256.157 15.9721 256.04 15.6545 256.04 15.3252C256.04 15.1724 256.064 15.0489 256.11 14.9548L257.743 11.215C257.813 11.0503 257.848 10.9269 257.848 10.8445C257.848 10.7269 257.795 10.6681 257.69 10.6681C257.585 10.6681 257.368 10.7799 257.041 11.0033C256.725 11.2268 256.491 11.4149 256.339 11.5678C256.198 11.7089 256.07 11.7795 255.953 11.7795C255.859 11.7795 255.812 11.7266 255.812 11.6207C255.812 11.4443 255.917 11.2209 256.128 10.9504C256.654 10.3036 257.21 9.78611 257.795 9.39802C258.392 9.00992 258.959 8.81588 259.498 8.81588C259.708 8.81588 259.913 8.93936 260.112 9.18633C260.311 9.42154 260.41 9.65674 260.41 9.89195C260.41 9.98603 260.393 10.0684 260.357 10.1389C260.053 10.8328 259.41 12.2264 258.427 14.3197C258.357 14.4726 258.322 14.6137 258.322 14.7431C258.322 14.896 258.386 14.9724 258.515 14.9724C258.643 14.9724 258.848 14.8078 259.129 14.4785C259.41 14.1492 259.802 13.6435 260.305 12.9614L260.691 12.4498C261.229 11.756 261.797 10.9092 262.393 9.90959C262.639 9.5215 262.832 9.24513 262.972 9.08048C263.124 8.91584 263.288 8.83352 263.464 8.83352C263.745 8.83352 263.99 8.93936 264.201 9.15105C264.411 9.35097 264.517 9.56854 264.517 9.80375C264.517 9.83903 264.505 9.90371 264.482 9.9978L262.727 14.5667C262.692 14.649 262.674 14.7313 262.674 14.8137C262.674 14.9078 262.709 14.9548 262.779 14.9548C262.908 14.9548 263.189 14.8019 263.622 14.4961C264.066 14.1904 264.411 13.914 264.657 13.667C264.692 13.6318 264.716 13.6141 264.727 13.6141C264.786 13.6141 264.838 13.6435 264.885 13.7023C264.932 13.7611 264.955 13.8199 264.955 13.8787C264.955 14.1139 264.751 14.4315 264.341 14.8313C263.943 15.2312 263.475 15.5899 262.937 15.9074C262.411 16.2249 261.978 16.3896 261.639 16.4013C261.58 16.4248 261.492 16.4366 261.375 16.4366C261.176 16.4366 260.983 16.3837 260.796 16.2778C260.621 16.1602 260.492 16.025 260.41 15.8721C260.387 15.8251 260.375 15.7604 260.375 15.6781C260.375 15.5722 260.393 15.4781 260.428 15.3958L260.638 14.9372C261.013 14.1139 261.305 13.4259 261.516 12.8732L261.533 12.8026C261.533 12.7438 261.51 12.7144 261.463 12.7144C261.416 12.7144 261.364 12.7497 261.305 12.8203C260.404 14.0551 259.626 15.0136 258.971 15.6957C258.316 16.3778 257.719 16.7189 257.181 16.7189Z" fill="black"/>
<path d="M267.027 16.7365C266.828 16.7365 266.606 16.6542 266.36 16.4895C266.126 16.3249 266.009 16.1367 266.009 15.925C266.009 15.7721 266.05 15.5781 266.132 15.3429L267.905 10.7387C267.928 10.6917 267.94 10.627 267.94 10.5447C267.94 10.4035 267.864 10.333 267.712 10.333C267.501 10.333 267.331 10.3682 267.203 10.4388C267.074 10.5094 266.899 10.6329 266.676 10.8093C266.63 10.8563 266.565 10.8798 266.483 10.8798C266.366 10.8798 266.308 10.8034 266.308 10.6505C266.308 10.427 266.407 10.2036 266.606 9.98015C266.805 9.74495 267.068 9.53326 267.396 9.34509C267.665 9.19221 267.946 9.06872 268.238 8.97464C268.542 8.88056 268.829 8.83352 269.098 8.83352C269.402 8.83352 269.63 8.91584 269.783 9.08048C269.935 9.24513 270.011 9.47446 270.011 9.76847C270.011 10.086 269.923 10.4564 269.747 10.8798L269.081 12.4851L269.063 12.5557C269.063 12.6027 269.086 12.6262 269.133 12.6262C269.203 12.6262 269.256 12.591 269.291 12.5204C269.958 11.3091 270.578 10.3918 271.151 9.76847C271.736 9.13341 272.327 8.81588 272.924 8.81588C273.287 8.81588 273.567 8.92172 273.766 9.13341C273.965 9.34509 274.065 9.61558 274.065 9.94487C274.065 10.2506 273.994 10.5505 273.854 10.8445C273.714 11.1386 273.538 11.3796 273.328 11.5678C273.129 11.7442 272.936 11.8324 272.748 11.8324C272.62 11.8324 272.52 11.7736 272.45 11.656C272.38 11.5384 272.321 11.3502 272.275 11.0915C272.181 10.5741 272.023 10.3153 271.801 10.3153C271.602 10.3153 271.403 10.4388 271.204 10.6858C271.017 10.921 270.771 11.2973 270.467 11.8148C270.093 12.4146 269.566 13.3201 268.888 14.5314L268.414 15.3605C268.18 15.7721 267.94 16.1073 267.694 16.366C267.448 16.613 267.226 16.7365 267.027 16.7365Z" fill="black"/>
<path d="M275.434 16.7189C275.317 16.7189 275.165 16.6659 274.978 16.5601C274.802 16.466 274.65 16.3308 274.522 16.1544C274.393 15.978 274.328 15.7898 274.328 15.5899C274.328 15.4605 274.352 15.3488 274.399 15.2547L276.171 10.8269C276.206 10.7211 276.224 10.6387 276.224 10.5799C276.224 10.4506 276.154 10.3859 276.013 10.3859C275.417 10.3859 274.943 10.5917 274.592 11.0033C274.533 11.0621 274.475 11.0915 274.416 11.0915C274.299 11.0915 274.235 11.0327 274.223 10.9151C274.211 10.7975 274.288 10.6211 274.451 10.3859C274.615 10.1389 274.767 9.95075 274.908 9.82139C275.586 9.16281 276.399 8.83352 277.347 8.83352C277.663 8.83352 277.903 8.9276 278.067 9.11577C278.242 9.30393 278.33 9.53914 278.33 9.82139C278.33 9.9978 278.295 10.1742 278.225 10.3506L277.294 12.6615L277.277 12.7144C277.277 12.738 277.289 12.7615 277.312 12.785C277.347 12.7968 277.382 12.8026 277.417 12.8026C277.511 12.8026 277.575 12.7732 277.61 12.7144C278.301 11.4678 278.956 10.5094 279.576 9.83903C280.196 9.16869 280.845 8.83352 281.524 8.83352C281.968 8.83352 282.296 8.96876 282.507 9.23925C282.729 9.49798 282.84 9.82727 282.84 10.2271C282.84 10.5799 282.77 10.9151 282.629 11.2326L281.313 14.355C281.243 14.5079 281.208 14.6314 281.208 14.7255C281.208 14.8431 281.266 14.9019 281.383 14.9019C281.512 14.9019 281.729 14.796 282.033 14.5843C282.337 14.3609 282.577 14.1669 282.752 14.0022C282.904 13.8258 283.016 13.7376 283.086 13.7376C283.121 13.7376 283.156 13.7611 283.191 13.8082C283.238 13.8552 283.261 13.9022 283.261 13.9493C283.261 14.161 283.185 14.3727 283.033 14.5843C282.507 15.2076 281.892 15.7192 281.19 16.1191C280.488 16.5189 279.839 16.7189 279.242 16.7189C279.043 16.7189 278.845 16.6365 278.646 16.4719C278.459 16.319 278.365 16.1485 278.365 15.9603C278.365 15.8662 278.377 15.8015 278.4 15.7663C278.576 15.3546 278.739 14.9901 278.891 14.6725C279.043 14.355 279.178 14.0728 279.295 13.8258C279.377 13.6494 279.576 13.226 279.892 12.5557C280.208 11.8853 280.477 11.2444 280.699 10.6329C280.758 10.48 280.787 10.3388 280.787 10.2095C280.787 10.0566 280.711 9.98015 280.559 9.98015C280.371 9.98015 280.167 10.1095 279.944 10.3682C279.722 10.627 279.506 10.9151 279.295 11.2326C279.084 11.5502 278.944 11.756 278.874 11.8501C278.675 12.1205 278.33 12.6615 277.838 13.473C277.359 14.2727 276.943 14.9783 276.592 15.5899C276.382 15.9544 276.183 16.2367 275.996 16.4366C275.82 16.6248 275.633 16.7189 275.434 16.7189Z" fill="black"/>
<path d="M284.554 16.7189C284.308 16.7189 284.068 16.6189 283.834 16.419C283.589 16.219 283.466 16.0191 283.466 15.8192C283.466 15.3017 283.706 14.6725 284.185 13.9316C284.665 13.1907 285.525 12.1382 286.765 10.774C287.28 10.2212 287.754 9.77435 288.187 9.4333C288.631 9.09225 288.965 8.92172 289.187 8.92172C289.491 8.92172 289.836 9.0746 290.222 9.38037C290.316 9.48622 290.369 9.53914 290.38 9.53914H290.415C290.439 9.53914 290.456 9.52738 290.468 9.50386C290.48 9.46858 290.492 9.43918 290.503 9.41566C290.655 9.12165 290.743 8.93348 290.766 8.85116C290.837 8.72179 290.983 8.65711 291.205 8.65711C291.463 8.65711 291.743 8.74531 292.048 8.92172C292.352 9.09813 292.504 9.26277 292.504 9.41566C292.504 9.4627 292.492 9.5215 292.469 9.59206L290.714 14.3903C290.679 14.4726 290.661 14.5432 290.661 14.602C290.661 14.7666 290.743 14.849 290.907 14.849C291.036 14.849 291.234 14.749 291.504 14.5491C291.784 14.3491 292.071 14.0963 292.363 13.7905C292.399 13.7552 292.428 13.7376 292.451 13.7376C292.51 13.7376 292.557 13.767 292.592 13.8258C292.627 13.8728 292.644 13.9375 292.644 14.0198C292.644 14.1845 292.533 14.4138 292.311 14.7078C292.1 14.9901 291.819 15.2782 291.468 15.5722C291.036 15.925 290.614 16.2073 290.205 16.419C289.795 16.6189 289.456 16.7189 289.187 16.7189C288.918 16.7189 288.655 16.613 288.397 16.4013C288.152 16.1896 288.029 15.9721 288.029 15.7486C288.029 15.6781 288.058 15.5428 288.116 15.3429C288.14 15.2488 288.198 15.0959 288.292 14.8842C288.386 14.6608 288.456 14.4903 288.503 14.3727L288.713 13.8787C288.725 13.867 288.731 13.8434 288.731 13.8082C288.731 13.7611 288.713 13.7317 288.678 13.72C288.655 13.7082 288.631 13.7141 288.608 13.7376C287.695 14.7725 286.917 15.5311 286.274 16.0132C285.63 16.4836 285.057 16.7189 284.554 16.7189ZM286.397 14.849C286.596 14.849 286.911 14.6608 287.344 14.2845C287.777 13.9081 288.216 13.4436 288.661 12.8908C289.035 12.4322 289.333 12.0265 289.556 11.6736C289.778 11.3091 289.889 11.0503 289.889 10.8975C289.889 10.7916 289.772 10.6387 289.538 10.4388C289.269 10.2271 289.052 10.1213 288.889 10.1213C288.713 10.1213 288.467 10.2271 288.152 10.4388C287.836 10.6505 287.537 10.8975 287.257 11.1797C286.882 11.556 286.555 12.0441 286.274 12.6439C286.005 13.2437 285.87 13.7729 285.87 14.2315C285.87 14.4315 285.917 14.5843 286.011 14.6902C286.104 14.796 286.233 14.849 286.397 14.849Z" fill="black"/>
<path d="M294.267 16.7189C294.01 16.7189 293.776 16.613 293.565 16.4013C293.366 16.1896 293.267 15.9721 293.267 15.7486C293.267 15.6428 293.296 15.5134 293.355 15.3605L296.321 6.54024C296.426 6.23447 296.479 6.00514 296.479 5.85226C296.479 5.7229 296.444 5.62293 296.373 5.55237C296.315 5.47005 296.221 5.41125 296.093 5.37596C295.952 5.34068 295.853 5.29952 295.794 5.25248C295.747 5.19368 295.712 5.11724 295.689 5.02315V4.95259C295.689 4.89379 295.706 4.84675 295.742 4.81147C295.777 4.77619 295.841 4.74678 295.935 4.72326C296.286 4.62918 296.718 4.52922 297.233 4.42337C297.76 4.31753 298.134 4.22933 298.356 4.15877C298.743 4.05292 298.994 4 299.111 4C299.181 4 299.234 4.04704 299.269 4.14112C299.316 4.22345 299.327 4.29401 299.304 4.35281C299.269 4.55274 299.193 4.81147 299.076 5.129L295.882 14.355C295.847 14.4373 295.829 14.5197 295.829 14.602C295.829 14.7549 295.899 14.8313 296.04 14.8313C296.18 14.8313 296.391 14.7196 296.672 14.4961C296.952 14.2609 297.227 13.9963 297.496 13.7023C297.567 13.6318 297.613 13.5965 297.637 13.5965C297.766 13.5965 297.83 13.6906 297.83 13.8787C297.83 14.1727 297.613 14.5491 297.181 15.0077C296.748 15.4546 296.245 15.8545 295.671 16.2073C295.11 16.5483 294.642 16.7189 294.267 16.7189Z" fill="black"/>
</svg>
