<svg width="300" height="27" viewBox="0 0 300 27" fill="none" xmlns="http://www.w3.org/2000/svg">
<g id="oriental-world-logo-en">
<g id="Vector">
<path d="M244.892 7.03897H247.918V8.81082C248.246 8.11243 248.681 7.58217 249.224 7.22004C249.767 6.85791 250.362 6.67685 251.009 6.67685C251.466 6.67685 251.944 6.79756 252.445 7.03897L251.345 10.0783C250.931 9.87133 250.591 9.76787 250.324 9.76787C249.78 9.76787 249.319 10.1041 248.94 10.7767C248.569 11.4492 248.384 12.7684 248.384 14.7342L248.396 15.4197V21.1102H244.892V7.03897Z" fill="#9D0032"/>
<path d="M255.587 1.24492C256.208 1.24492 256.738 1.4691 257.178 1.91745C257.626 2.3658 257.851 2.90899 257.851 3.54702C257.851 4.17644 257.631 4.71532 257.191 5.16367C256.751 5.60339 256.225 5.82326 255.613 5.82326C254.984 5.82326 254.445 5.59908 253.997 5.15073C253.557 4.69376 253.337 4.14195 253.337 3.49529C253.337 2.8745 253.557 2.34424 253.997 1.90451C254.436 1.46479 254.967 1.24492 255.587 1.24492ZM253.815 7.03897H257.359V21.1102H253.815V7.03897Z" fill="#9D0032"/>
<path d="M274.664 15.0963H263.321C263.485 16.0965 263.921 16.894 264.628 17.489C265.343 18.0753 266.253 18.3684 267.356 18.3684C268.676 18.3684 269.809 17.9071 270.758 16.9846L273.733 18.3813C272.991 19.4332 272.103 20.2135 271.068 20.7222C270.034 21.2223 268.805 21.4724 267.382 21.4724C265.175 21.4724 263.377 20.7783 261.989 19.3901C260.601 17.9934 259.907 16.2474 259.907 14.1522C259.907 12.0053 260.597 10.2248 261.976 8.81082C263.364 7.38817 265.102 6.67685 267.188 6.67685C269.404 6.67685 271.206 7.38817 272.594 8.81082C273.983 10.2248 274.677 12.0958 274.677 14.4238L274.664 15.0963ZM271.12 12.3157C270.887 11.5311 270.426 10.8931 269.736 10.4016C269.055 9.91013 268.262 9.6644 267.356 9.6644C266.374 9.6644 265.511 9.94031 264.77 10.4921C264.304 10.837 263.873 11.4449 263.477 12.3157H271.12Z" fill="#9D0032"/>
<path d="M277.535 7.03897H281.053V8.47455C281.855 7.80203 282.579 7.33644 283.225 7.07777C283.881 6.81049 284.549 6.67685 285.23 6.67685C286.627 6.67685 287.812 7.16399 288.787 8.13829C289.606 8.96601 290.015 10.1904 290.015 11.8113V21.1102H286.523V14.9411C286.523 13.2598 286.446 12.1433 286.291 11.5914C286.144 11.0396 285.881 10.6215 285.502 10.3369C285.131 10.0438 284.67 9.8972 284.118 9.8972C283.402 9.8972 282.786 10.1386 282.268 10.6215C281.76 11.0957 281.406 11.7553 281.208 12.6002C281.104 13.04 281.053 13.9927 281.053 15.4585V21.1102H277.535V7.03897Z" fill="#9D0032"/>
<path d="M293.869 1.85278H297.387V7.03897H299.482V10.0783H297.387V21.1102H293.869V10.0783H292.059V7.03897H293.869V1.85278Z" fill="#9D0032"/>
<path d="M229.217 0.804688C232.698 0.804688 235.688 2.06554 238.188 4.58725C240.698 7.10897 241.954 10.183 241.954 13.8094C241.954 17.4022 240.715 20.4428 238.238 22.931C235.772 25.4193 232.776 26.6634 229.25 26.6634C225.557 26.6634 222.489 25.3858 220.045 22.8306C217.601 20.2754 216.38 17.2404 216.38 13.7257C216.38 11.3713 216.949 9.20667 218.087 7.2317C219.225 5.25673 220.787 3.69461 222.773 2.54534C224.77 1.3849 226.918 0.804688 229.217 0.804688ZM229.167 5.39063C226.89 5.39063 224.977 6.18285 223.426 7.76729C221.875 9.35173 221.099 11.3657 221.099 13.8094C221.099 16.5319 222.076 18.6854 224.028 20.2698C225.546 21.5084 227.286 22.1277 229.25 22.1277C231.471 22.1277 233.362 21.3243 234.924 19.7175C236.486 18.1108 237.267 16.1302 237.267 13.7759C237.267 11.4327 236.481 9.45215 234.907 7.83424C233.334 6.20517 231.421 5.39063 229.167 5.39063Z" fill="#9D0032"/>
<path d="M144.822 6.67685C146.15 6.67685 147.395 7.0088 148.559 7.6727C149.732 8.3366 150.646 9.23761 151.301 10.3757C151.956 11.5138 152.284 12.7425 152.284 14.0617C152.284 15.3895 151.952 16.6311 151.288 17.7864C150.633 18.9418 149.736 19.8471 148.598 20.5024C147.46 21.149 146.206 21.4724 144.835 21.4724C142.817 21.4724 141.093 20.7567 139.661 19.3255C138.239 17.8856 137.527 16.1396 137.527 14.0875C137.527 11.8889 138.334 10.0567 139.946 8.59095C141.36 7.31488 142.985 6.67685 144.822 6.67685ZM144.873 10.0007C143.778 10.0007 142.864 10.3843 142.132 11.1517C141.407 11.9105 141.045 12.8848 141.045 14.0746C141.045 15.2989 141.403 16.2905 142.119 17.0492C142.843 17.808 143.757 18.1874 144.861 18.1874C145.964 18.1874 146.882 17.8037 147.615 17.0363C148.348 16.2689 148.715 15.2817 148.715 14.0746C148.715 12.8675 148.352 11.8889 147.628 11.1388C146.913 10.38 145.994 10.0007 144.873 10.0007Z" fill="#9D0032"/>
<path d="M153.5 7.03897H154.754C154.763 5.19384 154.793 4.10315 154.845 3.76689C154.94 2.9909 155.263 2.37873 155.815 1.93038C156.375 1.47341 157.164 1.24492 158.182 1.24492C158.915 1.24492 159.742 1.41305 160.665 1.74931V4.43941C160.156 4.29283 159.738 4.21955 159.41 4.21955C158.996 4.21955 158.695 4.30577 158.505 4.47821C158.367 4.60754 158.298 4.87483 158.298 5.28007L158.285 7.03897H160.523V10.0395H158.285V21.1102H154.754V10.0395H153.5V7.03897Z" fill="#9D0032"/>
<path d="M170.455 1.85278H173.973V7.03897H176.068V10.0783H173.973V21.1102H170.455V10.0783H168.645V7.03897H170.455V1.85278Z" fill="#9D0032"/>
<path d="M177.982 1.60705H181.487V8.46162C182.177 7.8667 182.871 7.42266 183.569 7.12951C184.268 6.82773 184.975 6.67685 185.69 6.67685C187.087 6.67685 188.264 7.15968 189.221 8.12536C190.04 8.9617 190.45 10.1904 190.45 11.8113V21.1102H186.971V14.9411C186.971 13.3116 186.893 12.2079 186.738 11.6302C186.583 11.0526 186.316 10.6215 185.936 10.3369C185.565 10.0524 185.104 9.91013 184.552 9.91013C183.837 9.91013 183.22 10.1472 182.703 10.6215C182.194 11.0957 181.841 11.7423 181.642 12.5614C181.539 12.9839 181.487 13.9496 181.487 15.4585V21.1102H177.982V1.60705Z" fill="#9D0032"/>
<path d="M207.974 15.0963H196.632C196.796 16.0965 197.231 16.894 197.938 17.489C198.654 18.0753 199.563 18.3684 200.667 18.3684C201.986 18.3684 203.12 17.9071 204.068 16.9846L207.043 18.3813C206.302 19.4332 205.414 20.2135 204.379 20.7222C203.344 21.2223 202.116 21.4724 200.693 21.4724C198.486 21.4724 196.688 20.7783 195.3 19.3901C193.912 17.9934 193.218 16.2474 193.218 14.1522C193.218 12.0053 193.907 10.2248 195.287 8.81082C196.675 7.38817 198.412 6.67685 200.499 6.67685C202.715 6.67685 204.517 7.38817 205.905 8.81082C207.293 10.2248 207.987 12.0958 207.987 14.4238L207.974 15.0963ZM204.431 12.3157C204.198 11.5311 203.737 10.8931 203.047 10.4016C202.366 9.91013 201.572 9.6644 200.667 9.6644C199.684 9.6644 198.822 9.94031 198.08 10.4921C197.615 10.837 197.184 11.4449 196.787 12.3157H204.431Z" fill="#9D0032"/>
<path d="M90.0298 6.67685C91.3576 6.67685 92.6035 7.0088 93.7675 7.6727C94.9401 8.3366 95.854 9.23761 96.5093 10.3757C97.1646 11.5138 97.4922 12.7425 97.4922 14.0617C97.4922 15.3895 97.1603 16.6311 96.4964 17.7864C95.8411 18.9418 94.9444 19.8471 93.8063 20.5024C92.6681 21.149 91.4136 21.4724 90.0427 21.4724C88.0251 21.4724 86.3007 20.7567 84.8695 19.3255C83.4468 17.8856 82.7355 16.1396 82.7355 14.0875C82.7355 11.8889 83.5417 10.0567 85.154 8.59095C86.568 7.31488 88.1933 6.67685 90.0298 6.67685ZM90.0815 10.0007C88.9865 10.0007 88.0726 10.3843 87.3397 11.1517C86.6154 11.9105 86.2533 12.8848 86.2533 14.0746C86.2533 15.2989 86.6111 16.2905 87.3268 17.0492C88.051 17.808 88.965 18.1874 90.0686 18.1874C91.1722 18.1874 92.0905 17.8037 92.8233 17.0363C93.5562 16.2689 93.9227 15.2817 93.9227 14.0746C93.9227 12.8675 93.5605 11.8889 92.8363 11.1388C92.1206 10.38 91.2024 10.0007 90.0815 10.0007Z" fill="#9D0032"/>
<path d="M99.5615 7.03897H102.588V8.81082C102.916 8.11243 103.351 7.58217 103.894 7.22004C104.437 6.85791 105.032 6.67685 105.679 6.67685C106.136 6.67685 106.614 6.79756 107.114 7.03897L106.015 10.0783C105.601 9.87133 105.261 9.76787 104.993 9.76787C104.45 9.76787 103.989 10.1041 103.61 10.7767C103.239 11.4492 103.053 12.7684 103.053 14.7342L103.066 15.4197V21.1102H99.5615V7.03897Z" fill="#9D0032"/>
<path d="M108.498 1.60705H112.029V21.1102H108.498V1.60705Z" fill="#9D0032"/>
<path d="M125.635 1.60705H129.153V21.1102H125.635V19.6229C124.945 20.2782 124.251 20.7524 123.553 21.0456C122.863 21.3301 122.113 21.4724 121.302 21.4724C119.483 21.4724 117.909 20.7697 116.582 19.3643C115.254 17.9502 114.59 16.1956 114.59 14.1005C114.59 11.9277 115.232 10.1472 116.517 8.75908C117.802 7.37092 119.362 6.67685 121.199 6.67685C122.044 6.67685 122.837 6.83635 123.578 7.15537C124.32 7.47439 125.005 7.95292 125.635 8.59095V1.60705ZM121.923 9.936C120.828 9.936 119.918 10.324 119.194 11.1C118.47 11.8674 118.108 12.8546 118.108 14.0617C118.108 15.2774 118.474 16.2776 119.207 17.0622C119.948 17.8468 120.858 18.2391 121.936 18.2391C123.048 18.2391 123.971 17.8554 124.704 17.088C125.436 16.312 125.803 15.2989 125.803 14.0487C125.803 12.8244 125.436 11.8329 124.704 11.0741C123.971 10.3154 123.044 9.936 121.923 9.936Z" fill="#9D0032"/>
<path d="M53.7493 1.42396H58.3687L61.9169 17.14L66.3188 1.42396H70.2185L74.6705 17.14L78.1853 1.42396H82.8047L77.2648 26.0441H72.7625L68.2268 10.1272L63.7747 26.0441H59.3227L53.7493 1.42396Z" fill="#9D0032"/>
<path d="M17.4758 1.60705H20.9807V8.46162C21.6705 7.8667 22.3646 7.42266 23.0629 7.12951C23.7613 6.82773 24.4683 6.67685 25.184 6.67685C26.5808 6.67685 27.7577 7.15968 28.7147 8.12536C29.5338 8.9617 29.9434 10.1904 29.9434 11.8113V21.1102H26.4644V14.9411C26.4644 13.3116 26.3868 12.2079 26.2316 11.6302C26.0764 11.0526 25.8091 10.6215 25.4297 10.3369C25.059 10.0524 24.5977 9.91013 24.0459 9.91013C23.3302 9.91013 22.7137 10.1472 22.1964 10.6215C21.6877 11.0957 21.3342 11.7423 21.1359 12.5614C21.0324 12.9839 20.9807 13.9496 20.9807 15.4585V21.1102H17.4758V1.60705Z" fill="#9D0032"/>
<path d="M47.4678 15.0963H36.1254C36.2892 16.0965 36.7247 16.894 37.4317 17.489C38.1473 18.0753 39.0569 18.3684 40.1606 18.3684C41.4797 18.3684 42.6136 17.9071 43.562 16.9846L46.5366 18.3813C45.7951 19.4332 44.907 20.2135 43.8724 20.7222C42.8377 21.2223 41.6091 21.4724 40.1864 21.4724C37.9792 21.4724 36.1815 20.7783 34.7933 19.3901C33.4052 17.9934 32.7111 16.2474 32.7111 14.1522C32.7111 12.0053 33.4008 10.2248 34.7804 8.81082C36.1685 7.38817 37.9059 6.67685 39.9924 6.67685C42.2083 6.67685 44.0103 7.38817 45.3985 8.81082C46.7867 10.2248 47.4807 12.0958 47.4807 14.4238L47.4678 15.0963ZM43.9241 12.3157C43.6913 11.5311 43.23 10.8931 42.5403 10.4016C41.8591 9.91013 41.0659 9.6644 40.1606 9.6644C39.1776 9.6644 38.3154 9.94031 37.5739 10.4921C37.1083 10.837 36.6772 11.4449 36.2806 12.3157H43.9241Z" fill="#9D0032"/>
<path d="M0.482422 1.42396H14.0896V6.04337H9.6041V26.0441H4.85078V6.04337H0.482422V1.42396Z" fill="#9D0032"/>
</g>
</g>
</svg>
