<svg width="300" height="50" viewBox="0 0 300 50" fill="none" xmlns="http://www.w3.org/2000/svg">
<path d="M244.265 28.9179H247.326V30.7101C247.658 30.0037 248.098 29.4673 248.648 29.101C249.197 28.7348 249.799 28.5516 250.453 28.5516C250.915 28.5516 251.399 28.6737 251.905 28.9179L250.793 31.9921C250.374 31.7828 250.03 31.6781 249.76 31.6781C249.21 31.6781 248.744 32.0182 248.36 32.6985C247.985 33.3787 247.797 34.713 247.797 36.7014L247.81 37.3947V43.1506H244.265V28.9179Z" fill="#9D0032"/>
<path d="M255.084 23.0574C255.712 23.0574 256.248 23.2841 256.693 23.7376C257.146 24.1911 257.373 24.7405 257.373 25.3859C257.373 26.0225 257.151 26.5676 256.706 27.0211C256.261 27.4658 255.729 27.6882 255.11 27.6882C254.473 27.6882 253.928 27.4615 253.475 27.008C253.03 26.5458 252.808 25.9876 252.808 25.3336C252.808 24.7056 253.03 24.1693 253.475 23.7245C253.919 23.2798 254.456 23.0574 255.084 23.0574ZM253.292 28.9179H256.876V43.1506H253.292V28.9179Z" fill="#9D0032"/>
<path d="M274.379 37.0677H262.906C263.072 38.0793 263.513 38.886 264.228 39.4878C264.952 40.0808 265.872 40.3773 266.988 40.3773C268.322 40.3773 269.469 39.9107 270.428 38.9776L273.437 40.3904C272.687 41.4544 271.789 42.2436 270.742 42.7582C269.696 43.264 268.453 43.5169 267.014 43.5169C264.781 43.5169 262.963 42.8148 261.559 41.4108C260.155 39.998 259.453 38.2319 259.453 36.1127C259.453 33.9412 260.151 32.1403 261.546 30.7101C262.95 29.2711 264.707 28.5516 266.818 28.5516C269.059 28.5516 270.882 29.2711 272.286 30.7101C273.69 32.1403 274.392 34.0328 274.392 36.3875L274.379 37.0677ZM270.795 34.2552C270.559 33.4615 270.093 32.8162 269.395 32.3191C268.706 31.822 267.904 31.5734 266.988 31.5734C265.994 31.5734 265.122 31.8525 264.372 32.4107C263.901 32.7595 263.465 33.3743 263.063 34.2552H270.795Z" fill="#9D0032"/>
<path d="M277.283 28.9179H280.841V30.3699C281.652 29.6897 282.385 29.2188 283.039 28.9571C283.702 28.6868 284.378 28.5516 285.067 28.5516C286.479 28.5516 287.679 29.0444 288.664 30.0298C289.493 30.867 289.907 32.1054 289.907 33.745V43.1506H286.375V36.9107C286.375 35.2101 286.296 34.0807 286.139 33.5226C285.991 32.9645 285.725 32.5415 285.341 32.2537C284.966 31.9572 284.5 31.8089 283.942 31.8089C283.218 31.8089 282.594 32.0531 282.071 32.5415C281.556 33.0211 281.199 33.6883 280.998 34.543C280.894 34.9877 280.841 35.9514 280.841 37.434V43.1506H277.283V28.9179Z" fill="#9D0032"/>
<path d="M293.805 23.6722H297.363V28.9179H299.482V31.9921H297.363V43.1506H293.805V31.9921H291.974V28.9179H293.805V23.6722Z" fill="#9D0032"/>
<path d="M228.807 18C232.328 18 235.353 19.2753 237.881 21.826C240.42 24.3766 241.69 27.4859 241.69 31.1539C241.69 34.788 240.437 37.8634 237.931 40.3802C235.437 42.897 232.407 44.1554 228.841 44.1554C225.105 44.1554 222.001 42.8631 219.53 40.2786C217.058 37.6941 215.822 34.6243 215.822 31.0692C215.822 28.6879 216.398 26.4984 217.549 24.5008C218.7 22.5031 220.28 20.9231 222.289 19.7606C224.309 18.5869 226.482 18 228.807 18ZM228.756 22.6386C226.454 22.6386 224.518 23.4399 222.949 25.0425C221.38 26.6451 220.596 28.6822 220.596 31.1539C220.596 33.9077 221.584 36.0859 223.559 37.6885C225.094 38.9412 226.854 39.5676 228.841 39.5676C231.086 39.5676 232.999 38.755 234.58 37.1298C236.16 35.5046 236.95 33.5014 236.95 31.12C236.95 28.7499 236.154 26.7467 234.563 25.1102C232.971 23.4624 231.036 22.6386 228.756 22.6386Z" fill="#9D0032"/>
<path d="M144.468 28.5637C145.811 28.5637 147.071 28.8995 148.248 29.571C149.434 30.2425 150.359 31.1539 151.022 32.305C151.684 33.4562 152.016 34.699 152.016 36.0333C152.016 37.3763 151.68 38.6322 151.009 39.8008C150.346 40.9694 149.439 41.8851 148.288 42.5479C147.136 43.202 145.867 43.529 144.481 43.529C142.44 43.529 140.696 42.8052 139.248 41.3575C137.809 39.9011 137.09 38.1351 137.09 36.0594C137.09 33.8356 137.905 31.9824 139.536 30.4998C140.966 29.2091 142.61 28.5637 144.468 28.5637ZM144.52 31.9257C143.413 31.9257 142.488 32.3138 141.747 33.0899C141.014 33.8574 140.648 34.8429 140.648 36.0464C140.648 37.2848 141.01 38.2877 141.734 39.0551C142.466 39.8226 143.391 40.2063 144.507 40.2063C145.623 40.2063 146.552 39.8182 147.293 39.042C148.035 38.2659 148.405 37.2673 148.405 36.0464C148.405 34.8254 148.039 33.8356 147.306 33.0769C146.583 32.3094 145.654 31.9257 144.52 31.9257Z" fill="#9D0032"/>
<path d="M153.245 28.93H154.514C154.523 27.0637 154.554 25.9605 154.606 25.6204C154.702 24.8355 155.029 24.2163 155.587 23.7628C156.154 23.3006 156.952 23.0695 157.981 23.0695C158.722 23.0695 159.559 23.2395 160.493 23.5797V26.3006C159.978 26.1524 159.555 26.0782 159.224 26.0782C158.805 26.0782 158.5 26.1654 158.308 26.3399C158.168 26.4707 158.099 26.741 158.099 27.1509L158.086 28.93H160.349V31.9649H158.086V43.1627H154.514V31.9649H153.245V28.93Z" fill="#9D0032"/>
<path d="M170.395 23.6843H173.954V28.93H176.073V32.0042H173.954V43.1627H170.395V32.0042H168.564V28.93H170.395V23.6843Z" fill="#9D0032"/>
<path d="M178.009 23.4358H181.554V30.369C182.252 29.7672 182.954 29.3181 183.66 29.0216C184.366 28.7163 185.082 28.5637 185.805 28.5637C187.218 28.5637 188.409 29.0521 189.377 30.0289C190.205 30.8748 190.619 32.1175 190.619 33.7571V43.1627H187.1V36.9228C187.1 35.2746 187.022 34.1583 186.865 33.574C186.708 32.9896 186.438 32.5536 186.054 32.2658C185.679 31.978 185.212 31.8341 184.654 31.8341C183.93 31.8341 183.307 32.0739 182.784 32.5536C182.269 33.0333 181.911 33.6873 181.711 34.5158C181.606 34.9432 181.554 35.9199 181.554 37.4461V43.1627H178.009V23.4358Z" fill="#9D0032"/>
<path d="M208.345 37.0798H196.872C197.038 38.0914 197.478 38.8981 198.194 39.4999C198.917 40.0929 199.838 40.3894 200.954 40.3894C202.288 40.3894 203.435 39.9229 204.394 38.9897L207.403 40.4025C206.653 41.4665 205.755 42.2557 204.708 42.7703C203.662 43.2761 202.419 43.529 200.98 43.529C198.747 43.529 196.929 42.827 195.525 41.4229C194.121 40.0101 193.419 38.2441 193.419 36.1249C193.419 33.9533 194.117 32.1524 195.512 30.7222C196.916 29.2832 198.673 28.5637 200.784 28.5637C203.025 28.5637 204.848 29.2832 206.252 30.7222C207.656 32.1524 208.358 34.0449 208.358 36.3996L208.345 37.0798ZM204.761 34.2673C204.525 33.4737 204.059 32.8283 203.361 32.3312C202.672 31.8341 201.87 31.5856 200.954 31.5856C199.96 31.5856 199.088 31.8646 198.338 32.4228C197.867 32.7716 197.431 33.3865 197.029 34.2673H204.761Z" fill="#9D0032"/>
<path d="M89.1043 28.5637C90.4473 28.5637 91.7075 28.8995 92.8848 29.571C94.0709 30.2425 94.9953 31.1539 95.6581 32.305C96.3209 33.4562 96.6523 34.699 96.6523 36.0333C96.6523 37.3763 96.3166 38.6322 95.645 39.8008C94.9822 40.9694 94.0752 41.8851 92.9241 42.5479C91.7729 43.202 90.504 43.529 89.1173 43.529C87.0766 43.529 85.3324 42.8052 83.8847 41.3575C82.4458 39.9011 81.7263 38.1351 81.7263 36.0594C81.7263 33.8356 82.5417 31.9824 84.1725 30.4998C85.6028 29.2091 87.2467 28.5637 89.1043 28.5637ZM89.1566 31.9257C88.049 31.9257 87.1246 32.3138 86.3833 33.0899C85.6507 33.8574 85.2845 34.8429 85.2845 36.0464C85.2845 37.2848 85.6464 38.2877 86.3702 39.0551C87.1028 39.8226 88.0272 40.2063 89.1435 40.2063C90.2598 40.2063 91.1886 39.8182 91.9299 39.042C92.6712 38.2659 93.0418 37.2673 93.0418 36.0464C93.0418 34.8254 92.6755 33.8356 91.943 33.0769C91.2191 32.3094 90.2903 31.9257 89.1566 31.9257Z" fill="#9D0032"/>
<path d="M98.7454 28.93H101.806V30.7222C102.138 30.0158 102.578 29.4794 103.128 29.1132C103.677 28.7469 104.279 28.5637 104.933 28.5637C105.395 28.5637 105.879 28.6858 106.385 28.93L105.273 32.0042C104.854 31.7949 104.51 31.6902 104.24 31.6902C103.69 31.6902 103.224 32.0303 102.84 32.7106C102.465 33.3908 102.277 34.7251 102.277 36.7135L102.29 37.4068V43.1627H98.7454V28.93Z" fill="#9D0032"/>
<path d="M107.785 23.4358H111.356V43.1627H107.785V23.4358Z" fill="#9D0032"/>
<path d="M125.118 23.4358H128.676V43.1627H125.118V41.6583C124.42 42.3211 123.718 42.8008 123.012 43.0973C122.314 43.3851 121.555 43.529 120.735 43.529C118.895 43.529 117.304 42.8182 115.961 41.3967C114.618 39.9665 113.946 38.1917 113.946 36.0725C113.946 33.8748 114.596 32.0739 115.895 30.6699C117.195 29.2658 118.773 28.5637 120.631 28.5637C121.485 28.5637 122.288 28.7251 123.038 29.0477C123.788 29.3704 124.481 29.8544 125.118 30.4998V23.4358ZM121.363 31.8603C120.256 31.8603 119.336 32.2527 118.603 33.0376C117.871 33.8138 117.504 34.8123 117.504 36.0333C117.504 37.263 117.875 38.2746 118.616 39.0682C119.366 39.8618 120.286 40.2586 121.376 40.2586C122.501 40.2586 123.435 39.8705 124.176 39.0944C124.917 38.3095 125.288 37.2848 125.288 36.0202C125.288 34.7818 124.917 33.7789 124.176 33.0115C123.435 32.244 122.497 31.8603 121.363 31.8603Z" fill="#9D0032"/>
<path d="M52.3375 18.6264H57.0099L60.5988 34.5228L65.0512 18.6264H68.9956L73.4988 34.5228L77.0539 18.6264H81.7263L76.1228 43.529H71.5688L66.9811 27.4295L62.478 43.529H57.9748L52.3375 18.6264Z" fill="#9D0032"/>
<path d="M16.6838 23.4358H20.2289V30.369C20.9266 29.7672 21.6286 29.3181 22.335 29.0216C23.0414 28.7163 23.7565 28.5637 24.4804 28.5637C25.8932 28.5637 27.0836 29.0521 28.0516 30.0289C28.8801 30.8748 29.2944 32.1175 29.2944 33.7571V43.1627H25.7754V36.9228C25.7754 35.2746 25.697 34.1583 25.54 33.574C25.383 32.9896 25.1126 32.5536 24.7289 32.2658C24.3539 31.978 23.8873 31.8341 23.3292 31.8341C22.6054 31.8341 21.9818 32.0739 21.4585 32.5536C20.944 33.0333 20.5864 33.6873 20.3858 34.5158C20.2812 34.9432 20.2289 35.9199 20.2289 37.4461V43.1627H16.6838V23.4358Z" fill="#9D0032"/>
<path d="M47.0199 37.0798H35.5474C35.7131 38.0914 36.1535 38.8981 36.8686 39.4999C37.5924 40.0929 38.5125 40.3894 39.6288 40.3894C40.9631 40.3894 42.1099 39.9229 43.0692 38.9897L46.078 40.4025C45.328 41.4665 44.4297 42.2557 43.3832 42.7703C42.3367 43.2761 41.0939 43.529 39.655 43.529C37.4224 43.529 35.604 42.827 34.2 41.4229C32.7959 40.0101 32.0938 38.2441 32.0938 36.1249C32.0938 33.9533 32.7915 32.1524 34.1869 30.7222C35.591 29.2832 37.3482 28.5637 39.4587 28.5637C41.7 28.5637 43.5227 29.2832 44.9268 30.7222C46.3309 32.1524 47.0329 34.0449 47.0329 36.3996L47.0199 37.0798ZM43.4355 34.2673C43.2001 33.4737 42.7335 32.8283 42.0358 32.3312C41.3468 31.8341 40.5445 31.5856 39.6288 31.5856C38.6346 31.5856 37.7625 31.8646 37.0125 32.4228C36.5415 32.7716 36.1055 33.3865 35.7043 34.2673H43.4355Z" fill="#9D0032"/>
<path d="M0.482422 18.6264H14.2457V23.2988H9.70875V43.529H4.9009V23.2988H0.482422V18.6264Z" fill="#9D0032"/>
<path d="M296.864 11.694C296.64 11.8033 296.417 11.9126 296.193 11.9126C295.857 11.9126 295.521 11.8033 295.297 11.4754C295.073 11.1475 294.961 10.8197 294.961 10.2732C294.961 10.0546 294.961 9.72678 295.073 9.39891C296.64 7.86885 297.872 6.22951 298.656 4.80874C299.552 3.27869 300 1.96721 300 0.983606C300 0.655737 300 0.437159 299.888 0.21858C299.888 0.10929 299.776 0 299.552 0C299.44 0 299.216 0.10929 298.992 0.21858C298.432 0.546449 297.76 1.0929 297.2 1.85792C296.528 2.62295 295.857 3.60656 295.297 4.69945C294.737 5.79235 294.177 6.88525 293.841 7.86885C293.505 8.74317 293.393 9.61749 293.281 10.2732C292.385 11.0383 291.601 11.4754 291.153 11.4754C290.593 11.4754 290.369 11.1475 290.369 10.6011C290.369 10.2732 290.481 9.94536 290.593 9.72678C290.705 9.5082 291.041 9.18033 291.377 8.63388C291.713 8.19672 291.937 7.75956 291.937 7.65027C291.937 7.54098 291.937 7.4317 291.825 7.32241C291.825 7.21312 291.713 7.10382 291.601 6.88525C291.489 6.66667 291.489 6.55738 291.377 6.44809C291.601 6.3388 291.825 6.22951 291.937 6.22951C292.049 6.12022 292.049 6.12022 292.049 5.90164C292.049 5.79235 292.049 5.68306 291.937 5.57377C291.825 5.35519 291.713 5.2459 291.601 5.13661C291.489 5.02732 291.265 4.91803 291.153 4.91803C290.593 4.91803 289.697 5.13661 288.578 5.68306C287.458 6.22951 286.338 6.99454 285.218 7.97814C284.77 8.4153 284.434 8.74317 284.21 8.96175C283.986 9.18033 283.874 9.39891 283.762 9.72678C283.762 9.83607 283.65 10.0546 283.65 10.2732C283.09 10.7104 282.642 11.0383 282.306 11.2568C281.971 11.4754 281.635 11.5847 281.411 11.5847C281.187 11.5847 280.963 11.4754 280.963 11.1475C280.963 10.6011 281.635 9.5082 282.978 8.08743C283.314 7.75956 283.426 7.54098 283.426 7.32241C283.426 6.99454 283.314 6.66667 283.202 6.3388C283.09 6.01093 282.978 5.79235 282.866 5.79235C282.642 5.79235 282.306 5.90164 281.859 6.22951C281.187 6.66667 280.515 7.21312 279.955 7.65027C279.395 8.19672 278.835 8.63388 278.499 9.07104C278.051 9.5082 277.715 9.94535 277.491 10.1639C277.267 10.4918 277.043 10.6011 276.931 10.6011C276.819 10.6011 276.707 10.4918 276.707 10.2732C276.707 9.83607 277.267 9.07104 278.499 7.75956C278.723 7.54098 278.835 7.4317 278.835 7.32241C278.947 7.21312 278.947 7.21312 278.947 7.10383C278.947 6.99454 279.059 6.99453 279.059 6.88525C279.059 6.66667 278.947 6.55738 278.835 6.55738C278.723 6.44809 278.499 6.44809 278.275 6.44809C277.939 6.44809 277.603 6.66667 277.155 6.99454C276.819 7.3224 276.371 7.97814 275.811 8.74317C275.475 9.18033 275.363 9.5082 275.251 9.72678C275.251 9.83607 275.139 10.0546 275.139 10.2732C274.132 11.0383 273.46 11.4754 273.012 11.4754C272.564 11.4754 272.34 11.2568 272.34 10.929C272.34 10.7104 272.452 10.2732 272.788 9.83607C273.124 9.39891 273.348 8.85246 273.796 8.4153C274.132 8.08743 274.356 7.75956 274.58 7.65027C274.692 7.43169 274.804 7.3224 274.804 7.10383C274.804 6.88525 274.804 6.55738 274.692 6.3388C274.58 6.12022 274.468 5.90164 274.356 5.90164C274.244 5.90164 274.132 5.90164 274.02 5.90164C273.572 5.90164 272.564 6.01093 270.996 6.22951C271.22 5.79235 271.332 5.57377 271.332 5.46448C271.332 5.35519 271.22 5.2459 271.108 5.2459C270.996 5.2459 270.884 5.2459 270.772 5.35519C270.548 5.46448 270.212 5.68306 269.876 6.01093C269.54 6.3388 269.204 6.77596 268.98 7.21312C268.756 7.65027 268.644 7.97814 268.644 8.19672C268.644 8.4153 268.644 8.63388 268.756 8.74317C268.868 8.85246 269.092 8.96175 269.316 9.07104C269.092 9.39891 268.756 9.83607 268.42 10.2732C267.861 10.7104 267.413 10.929 267.189 11.1475C266.853 11.3661 266.517 11.4754 266.293 11.4754C265.957 11.4754 265.845 11.2568 265.845 10.929C265.845 10.7104 265.957 10.4918 266.069 10.1639C266.181 9.83607 266.405 9.5082 266.629 9.18033C267.077 8.63388 267.413 8.08743 267.637 7.75956C267.972 7.32241 268.084 7.10382 268.196 6.88525C268.308 6.77596 268.308 6.55738 268.42 6.55738C268.532 6.55738 268.42 6.3388 268.42 6.22951C268.42 5.90164 268.42 5.68306 268.308 5.57377C268.196 5.46448 268.084 5.35519 267.972 5.35519C267.749 5.35519 267.637 5.46448 267.413 5.57377C267.189 5.79235 266.853 6.12022 266.293 6.66667C266.069 6.88525 265.733 7.32241 265.285 7.75956C264.837 8.30601 264.501 8.63388 264.277 8.85246C263.829 9.18033 263.381 9.61749 262.933 10.0546C262.373 10.4918 262.037 10.8197 261.813 10.929C261.589 11.0383 261.477 11.1475 261.365 11.1475C261.141 11.1475 261.029 11.0383 261.029 10.7104C261.029 10.4918 261.141 10.1639 261.253 9.72678C261.925 9.28962 262.485 8.74317 263.045 8.19672C263.493 7.65027 263.941 7.21311 264.165 6.88525C264.389 6.55738 264.501 6.3388 264.501 6.12022C264.501 6.01093 264.389 6.01093 264.165 5.90164C263.941 5.79235 263.717 5.79235 263.493 5.79235C263.157 5.79235 262.933 5.79235 262.709 5.90164C262.597 6.01093 262.373 6.12022 262.261 6.22951C262.149 6.44809 261.925 6.66667 261.701 6.88525C261.365 7.3224 261.029 7.65027 260.694 7.97814C260.47 8.30601 260.246 8.63388 260.022 8.96175C259.91 9.28962 259.798 9.5082 259.686 9.72678C259.686 9.83607 259.686 10.0546 259.686 10.2732C259.462 10.3825 259.35 10.4918 259.35 10.6011C259.238 10.7104 259.126 10.7104 259.014 10.8197C258.902 10.929 258.79 10.929 258.678 10.929H258.454L258.23 10.7104C258.566 10.2732 258.79 9.72678 258.902 9.18033C259.126 8.63388 259.126 8.19672 259.126 7.86885C259.126 7.54098 259.126 7.21312 259.014 7.10383C258.902 6.99454 258.678 6.88525 258.454 6.77596C258.678 6.55738 258.678 6.44809 258.678 6.22951C258.678 6.01093 258.566 5.90164 258.342 5.79235C258.454 5.46448 258.118 5.46448 257.782 5.46448C257.222 5.46448 256.774 5.57377 256.102 5.90164C255.542 6.22951 254.982 6.66667 254.422 7.10383C253.862 7.65027 253.527 8.19672 253.191 8.74317C252.967 9.18033 252.855 9.61749 252.743 10.0546L250.391 11.2568C251.063 9.94535 251.623 8.85246 252.071 8.08743C252.407 7.3224 253.75 4.37158 254.198 2.62295C254.31 2.29508 254.31 1.96721 254.31 1.74863C254.31 1.20219 254.198 0.765027 253.862 0.437158C253.639 0.109289 253.191 0 252.743 0C252.295 0 251.735 0.218579 251.063 0.546448C250.391 0.874317 249.607 1.42076 248.823 2.0765C245.464 4.69945 244.792 9.28962 244.792 10.3825C244.792 10.8197 244.792 11.1475 244.904 11.3661C245.016 11.5847 245.128 11.694 245.352 11.694C245.576 11.694 245.8 11.5847 246.136 11.3661C246.472 11.1475 246.695 10.929 246.919 10.7104C247.255 10.2732 247.591 9.83607 248.039 9.28962C248.487 8.74317 248.711 8.52459 248.711 8.4153C248.711 8.30601 248.599 8.30601 248.487 8.4153C248.375 8.4153 248.263 8.52459 248.151 8.63388C247.927 8.74317 247.815 8.85246 247.703 9.07104C247.591 9.18033 247.367 9.39891 247.367 9.5082C247.367 9.61749 247.031 9.61749 246.919 9.72678C246.919 9.39891 246.919 9.18033 246.919 9.07104C246.919 8.74317 247.031 8.30601 247.143 7.65027C247.703 5.2459 250.167 2.95082 251.623 2.0765C252.071 1.85792 252.407 1.53005 252.855 1.53005C253.191 1.53005 253.191 1.74863 253.191 2.18579C253.191 3.06011 251.623 6.66667 251.063 7.97814C250.503 9.28962 249.607 10.7104 248.711 12.3497C246.695 13.7705 245.24 14.9727 244.344 16.1749C243.448 17.377 243 18.3607 243 19.235C243 19.4536 243.112 19.6721 243.224 19.7814C243.336 19.8907 243.56 20 243.784 20C244.008 20 244.232 19.7814 244.68 19.4536C245.016 19.1257 245.464 18.5792 246.024 17.9235C246.583 17.2678 247.143 16.5027 247.815 15.5191C248.487 14.5355 249.159 13.4426 249.831 12.3497L252.855 10.7104C252.855 11.1475 252.967 11.4754 253.079 11.9126C253.303 12.3497 253.527 12.7869 253.974 13.0055C254.31 13.3333 254.758 13.4426 255.094 13.4426C255.878 13.4426 256.774 12.8962 257.67 11.694C258.23 11.694 258.678 11.694 259.014 11.4754C259.238 11.3661 259.574 11.1475 260.022 10.8197C260.022 11.1475 260.134 11.3661 260.134 11.5847C260.246 12.0219 260.47 12.3497 260.694 12.5683C260.917 12.7869 261.253 12.8962 261.477 12.8962C261.813 12.8962 262.373 12.5683 262.933 12.0219C263.493 11.3661 264.389 10.3825 265.509 8.96175C265.061 9.83607 264.725 10.6011 264.613 11.0383C264.389 11.4754 264.277 11.9126 264.277 12.2404C264.277 13.0055 264.613 13.3333 265.285 13.3333C265.621 13.3333 265.845 13.224 266.181 13.0055C266.517 12.7869 266.853 12.5683 267.301 12.1311C267.749 11.694 268.42 11.1475 269.316 10.3825V10.2732C269.988 9.61749 270.548 8.85246 270.996 8.08743C271.108 8.08743 271.332 7.97814 271.668 7.97814C272.004 7.97814 272.228 7.86885 272.564 7.86885C272.788 7.86885 273.124 7.75956 273.236 7.75956C272.788 8.19672 272.452 8.74317 272.116 9.18033C271.78 9.61749 271.556 10.0546 271.332 10.4918C271.108 10.929 271.108 11.2568 271.108 11.5847C271.108 12.1311 271.22 12.5683 271.444 12.7869C271.668 13.1148 271.892 13.224 272.228 13.224C272.452 13.224 272.788 13.1148 273.124 12.8962C273.46 12.6776 273.908 12.3497 274.244 12.0219C274.58 11.694 275.028 11.2568 275.587 10.8197C275.587 11.3661 275.699 11.8033 275.923 12.2404C276.147 12.7869 276.371 13.0055 276.595 13.0055C276.707 13.0055 276.931 12.8962 277.043 12.7869C277.155 12.6776 277.491 12.3497 277.827 11.9126C278.163 11.4754 278.499 11.0383 278.835 10.7104C279.171 10.3825 279.507 9.94536 279.955 9.5082C280.627 8.85246 281.187 8.4153 281.635 8.19672C281.299 8.74317 280.963 9.28962 280.627 9.83607C280.403 10.2732 280.179 10.7104 280.067 10.929C279.955 11.1475 279.843 11.4754 279.731 11.694C279.619 11.9126 279.619 12.1311 279.619 12.3497C279.619 13.1148 279.955 13.5519 280.515 13.5519C280.851 13.5519 281.411 13.3333 281.971 12.8962C282.53 12.459 283.202 11.8033 284.21 10.929C284.21 11.2568 284.322 11.5847 284.434 11.9126C284.658 12.3497 284.882 12.7869 285.106 13.0055C285.33 13.224 285.554 13.4426 285.778 13.4426C286.114 13.4426 286.562 13.224 287.122 12.6776C287.682 12.1311 288.466 11.2568 289.585 10.0546C289.138 11.1475 288.914 12.0219 288.914 12.5683C288.914 12.8962 289.026 13.224 289.138 13.4426C289.25 13.6612 289.473 13.7705 289.809 13.7705C290.593 13.7705 291.825 12.8962 293.617 11.0383C293.617 11.8033 293.841 12.3497 294.065 12.8962C294.401 13.4426 294.849 13.7705 295.297 13.7705C296.305 13.7705 297.648 12.7869 299.216 10.7104V9.83607C298.544 10.4918 297.984 10.929 297.76 11.1475C297.536 11.3661 297.088 11.4754 296.864 11.694ZM296.752 4.48087C297.312 3.38798 297.872 2.62295 298.32 2.29508C298.432 2.18579 298.544 2.18579 298.544 2.18579C298.656 2.18579 298.768 2.29508 298.768 2.40437C298.768 2.62295 298.656 2.95082 298.432 3.38798C298.208 3.82514 297.984 4.37158 297.648 4.91803C297.312 5.46448 296.976 6.01093 296.64 6.44809C296.305 6.88525 295.857 7.32241 295.521 7.75956C295.745 6.66667 296.193 5.57377 296.752 4.48087ZM256.998 8.63388C256.774 9.07104 256.662 9.61749 256.662 10.0546C256.662 10.3825 256.774 10.7104 256.886 11.0383C256.102 11.5847 255.542 11.9126 255.206 11.9126C254.534 11.9126 254.198 11.694 254.198 11.1475C254.198 11.0383 254.31 10.6011 254.534 9.83607C254.646 9.5082 254.87 9.18033 255.206 8.85246C255.542 8.52459 255.878 8.19672 256.326 7.97814C256.774 7.65027 257.334 7.3224 258.006 6.99454C257.446 7.65027 257.222 8.19672 256.998 8.63388ZM288.578 9.72678C287.906 10.4918 287.122 11.0383 286.338 11.5847C286.114 11.694 286.002 11.694 285.89 11.694C285.778 11.694 285.666 11.5847 285.554 11.4754C285.442 11.3661 285.442 11.1475 285.442 10.929C285.442 10.2732 285.89 9.61749 286.674 8.96175C287.57 8.30601 288.914 7.54098 290.929 6.66667C290.033 7.97814 289.138 8.96175 288.578 9.72678Z" fill="#1D1D1B"/>
</svg>
