<svg width="1146" height="100" viewBox="0 0 1146 100" fill="none" xmlns="http://www.w3.org/2000/svg">
<g id="oriental-world-logo-en">
<g id="Vector">
<path d="M936.203 24.6726H947.789V31.4561C949.044 28.7824 950.711 26.7523 952.79 25.3659C954.87 23.9794 957.147 23.2862 959.623 23.2862C961.373 23.2862 963.205 23.7484 965.119 24.6726L960.911 36.3086C959.326 35.5163 958.022 35.1202 956.999 35.1202C954.919 35.1202 953.153 36.4076 951.701 38.9824C950.281 41.5571 949.572 46.6076 949.572 54.1338L949.621 56.7581V78.5445H936.203V24.6726Z" fill="#9D0032"/>
<path d="M977.151 2.49012C979.528 2.49012 981.558 3.34838 983.242 5.06488C984.958 6.78139 985.816 8.861 985.816 11.3037C985.816 13.7134 984.975 15.7765 983.291 17.493C981.608 19.1765 979.594 20.0183 977.25 20.0183C974.841 20.0183 972.778 19.16 971.061 17.4435C969.378 15.694 968.536 13.5814 968.536 11.1057C968.536 8.72896 969.378 6.69886 971.061 5.01537C972.745 3.33187 974.775 2.49012 977.151 2.49012ZM970.368 24.6726H983.935V78.5445H970.368V24.6726Z" fill="#9D0032"/>
<path d="M1050.19 55.5202H1006.76C1007.39 59.3493 1009.06 62.4027 1011.76 64.6804C1014.5 66.9251 1017.98 68.0474 1022.21 68.0474C1027.26 68.0474 1031.6 66.2814 1035.23 62.7493L1046.62 68.0969C1043.78 72.1241 1040.38 75.1115 1036.42 77.0591C1032.46 78.9736 1027.76 79.9309 1022.31 79.9309C1013.86 79.9309 1006.98 77.2736 1001.66 71.9591C996.346 66.6115 993.689 59.927 993.689 51.9057C993.689 43.6862 996.33 36.8697 1001.61 31.4561C1006.93 26.0095 1013.58 23.2862 1021.57 23.2862C1030.05 23.2862 1036.95 26.0095 1042.26 31.4561C1047.58 36.8697 1050.23 44.0328 1050.23 52.9455L1050.19 55.5202ZM1036.62 44.8746C1035.73 41.8707 1033.96 39.428 1031.32 37.5464C1028.71 35.6649 1025.68 34.7241 1022.21 34.7241C1018.45 34.7241 1015.15 35.7804 1012.31 37.893C1010.52 39.2134 1008.87 41.5406 1007.36 44.8746H1036.62Z" fill="#9D0032"/>
<path d="M1061.18 24.6726H1074.65V30.1688C1077.72 27.594 1080.49 25.8115 1082.96 24.8212C1085.47 23.7979 1088.03 23.2862 1090.64 23.2862C1095.99 23.2862 1100.53 25.1513 1104.26 28.8814C1107.39 32.0503 1108.96 36.7377 1108.96 42.9435V78.5445H1095.59V54.926C1095.59 48.4892 1095.29 44.2144 1094.7 42.1018C1094.14 39.9892 1093.13 38.3882 1091.68 37.2989C1090.26 36.1765 1088.49 35.6154 1086.38 35.6154C1083.64 35.6154 1081.28 36.5396 1079.3 38.3882C1077.35 40.2037 1076 42.729 1075.24 45.9639C1074.84 47.6474 1074.65 51.295 1074.65 56.9066V78.5445H1061.18V24.6726Z" fill="#9D0032"/>
<path d="M1123.71 4.81731H1137.18V24.6726H1145.2V36.3086H1137.18V78.5445H1123.71V36.3086H1116.78V24.6726H1123.71V4.81731Z" fill="#9D0032"/>
<path d="M876.192 0.804688C889.52 0.804688 900.969 5.63187 910.537 15.2862C920.149 24.9406 924.955 36.7095 924.955 50.593C924.955 64.3484 920.213 75.9892 910.73 85.5154C901.289 95.0416 889.819 99.8047 876.32 99.8047C862.18 99.8047 850.433 94.9134 841.077 85.1309C831.722 75.3484 827.044 63.729 827.044 50.2726C827.044 41.2591 829.223 32.9717 833.58 25.4105C837.937 17.8493 843.918 11.8688 851.522 7.46877C859.169 3.02605 867.392 0.804688 876.192 0.804688ZM876 18.362C867.285 18.362 859.959 21.395 854.021 27.461C848.083 33.527 845.114 41.2377 845.114 50.593C845.114 61.0163 848.852 69.261 856.328 75.327C862.137 80.0688 868.802 82.4396 876.32 82.4396C884.821 82.4396 892.062 79.3639 898.042 73.2125C904.023 67.061 907.013 59.4785 907.013 50.4649C907.013 41.494 904.002 33.9115 897.978 27.7173C891.955 21.4804 884.629 18.362 876 18.362Z" fill="#9D0032"/>
<path d="M553.085 23.2862C558.169 23.2862 562.939 24.5571 567.395 27.0989C571.884 29.6406 575.383 33.0901 577.892 37.4474C580.401 41.8047 581.655 46.5086 581.655 51.5591C581.655 56.6426 580.384 61.396 577.843 65.8193C575.334 70.2426 571.901 73.7086 567.544 76.2173C563.186 78.693 558.383 79.9309 553.135 79.9309C545.411 79.9309 538.809 77.1911 533.329 71.7115C527.882 66.1989 525.159 59.5144 525.159 51.6581C525.159 43.2406 528.246 36.226 534.418 30.6144C539.832 25.729 546.054 23.2862 553.085 23.2862ZM553.283 36.0115C549.091 36.0115 545.592 37.4804 542.786 40.4183C540.013 43.3231 538.627 47.0532 538.627 51.6086C538.627 56.296 539.997 60.0921 542.737 62.9969C545.51 65.9018 549.009 67.3542 553.234 67.3542C557.459 67.3542 560.975 65.8853 563.78 62.9474C566.586 60.0095 567.989 56.2299 567.989 51.6086C567.989 46.9872 566.603 43.2406 563.83 40.3688C561.09 37.4639 557.575 36.0115 553.283 36.0115Z" fill="#9D0032"/>
<path d="M586.31 24.6726H591.112C591.146 17.6086 591.261 13.4328 591.459 12.1455C591.822 9.17459 593.06 6.8309 595.173 5.1144C597.318 3.36488 600.339 2.49012 604.234 2.49012C607.04 2.49012 610.209 3.13381 613.741 4.42119V14.7202C611.793 14.1591 610.192 13.8785 608.938 13.8785C607.353 13.8785 606.198 14.2086 605.472 14.8688C604.944 15.3639 604.679 16.3872 604.679 17.9387L604.63 24.6726H613.196V36.16H604.63V78.5445H591.112V36.16H586.31V24.6726Z" fill="#9D0032"/>
<path d="M651.223 4.81731H664.691V24.6726H672.712V36.3086H664.691V78.5445H651.223V36.3086H644.291V24.6726H651.223V4.81731Z" fill="#9D0032"/>
<path d="M680.041 3.87653H693.459V30.1193C696.1 27.8416 698.757 26.1416 701.431 25.0193C704.105 23.8639 706.812 23.2862 709.551 23.2862C714.899 23.2862 719.405 25.1348 723.069 28.8319C726.205 32.0338 727.773 36.7377 727.773 42.9435V78.5445H714.453V54.926C714.453 48.6872 714.156 44.462 713.562 42.2503C712.968 40.0387 711.945 38.3882 710.492 37.2989C709.073 36.2095 707.307 35.6649 705.194 35.6649C702.454 35.6649 700.094 36.5726 698.113 38.3882C696.166 40.2037 694.812 42.6794 694.053 45.8154C693.657 47.4328 693.459 51.1299 693.459 56.9066V78.5445H680.041V3.87653Z" fill="#9D0032"/>
<path d="M794.865 55.5202H751.441C752.068 59.3493 753.735 62.4027 756.442 64.6804C759.181 66.9251 762.664 68.0474 766.889 68.0474C771.94 68.0474 776.28 66.2814 779.912 62.7493L791.3 68.0969C788.461 72.1241 785.061 75.1115 781.1 77.0591C777.139 78.9736 772.435 79.9309 766.988 79.9309C758.538 79.9309 751.655 77.2736 746.341 71.9591C741.026 66.6115 738.369 59.927 738.369 51.9057C738.369 43.6862 741.01 36.8697 746.291 31.4561C751.606 26.0095 758.257 23.2862 766.245 23.2862C774.729 23.2862 781.628 26.0095 786.943 31.4561C792.257 36.8697 794.914 44.0328 794.914 52.9455L794.865 55.5202ZM781.298 44.8746C780.407 41.8707 778.641 39.428 776 37.5464C773.392 35.6649 770.355 34.7241 766.889 34.7241C763.126 34.7241 759.825 35.7804 756.986 37.893C755.204 39.2134 753.553 41.5406 752.035 44.8746H781.298Z" fill="#9D0032"/>
<path d="M343.314 23.2862C348.398 23.2862 353.168 24.5571 357.624 27.0989C362.113 29.6406 365.613 33.0901 368.121 37.4474C370.63 41.8047 371.884 46.5086 371.884 51.5591C371.884 56.6426 370.613 61.396 368.072 65.8193C365.563 70.2426 362.13 73.7086 357.773 76.2173C353.415 78.693 348.613 79.9309 343.364 79.9309C335.64 79.9309 329.038 77.1911 323.558 71.7115C318.112 66.1989 315.388 59.5144 315.388 51.6581C315.388 43.2406 318.475 36.226 324.647 30.6144C330.061 25.729 336.283 23.2862 343.314 23.2862ZM343.513 36.0115C339.32 36.0115 335.821 37.4804 333.015 40.4183C330.243 43.3231 328.856 47.0532 328.856 51.6086C328.856 56.296 330.226 60.0921 332.966 62.9969C335.739 65.9018 339.238 67.3542 343.463 67.3542C347.688 67.3542 351.204 65.8853 354.01 62.9474C356.815 60.0095 358.218 56.2299 358.218 51.6086C358.218 46.9872 356.832 43.2406 354.059 40.3688C351.319 37.4639 347.804 36.0115 343.513 36.0115Z" fill="#9D0032"/>
<path d="M379.807 24.6726H391.393V31.4561C392.647 28.7824 394.314 26.7523 396.394 25.3659C398.474 23.9794 400.751 23.2862 403.227 23.2862C404.977 23.2862 406.809 23.7484 408.723 24.6726L404.514 36.3086C402.93 35.5163 401.626 35.1202 400.603 35.1202C398.523 35.1202 396.757 36.4076 395.305 38.9824C393.885 41.5571 393.176 46.6076 393.176 54.1338L393.225 56.7581V78.5445H379.807V24.6726Z" fill="#9D0032"/>
<path d="M414.021 3.87653H427.539V78.5445H414.021V3.87653Z" fill="#9D0032"/>
<path d="M479.628 3.87653H493.096V78.5445H479.628V72.8503C476.987 75.3591 474.33 77.1746 471.656 78.2969C469.015 79.3862 466.144 79.9309 463.041 79.9309C456.076 79.9309 450.051 77.2406 444.968 71.86C439.884 66.4464 437.343 59.729 437.343 51.7076C437.343 43.3892 439.802 36.5726 444.72 31.2581C449.639 25.9435 455.613 23.2862 462.645 23.2862C465.879 23.2862 468.916 23.8969 471.755 25.1183C474.594 26.3396 477.218 28.1717 479.628 30.6144V3.87653ZM465.417 35.7639C461.225 35.7639 457.743 37.2493 454.97 40.2202C452.197 43.1581 450.811 46.9377 450.811 51.5591C450.811 56.2134 452.213 60.0426 455.019 63.0464C457.858 66.0503 461.341 67.5523 465.467 67.5523C469.725 67.5523 473.257 66.0833 476.063 63.1455C478.869 60.1746 480.272 56.296 480.272 51.5095C480.272 46.8222 478.869 43.026 476.063 40.1212C473.257 37.2163 469.709 35.7639 465.417 35.7639Z" fill="#9D0032"/>
<path d="M204.414 3.17556H222.1L235.684 63.3445L252.537 3.17556H267.467L284.512 63.3445L297.968 3.17556H315.653L294.444 97.4338H277.207L259.842 36.496L242.797 97.4338H225.752L204.414 3.17556Z" fill="#9D0032"/>
<path d="M65.5416 3.87653H78.9601V30.1193C81.6009 27.8416 84.2581 26.1416 86.9319 25.0193C89.6057 23.8639 92.3125 23.2862 95.0523 23.2862C100.4 23.2862 104.906 25.1348 108.57 28.8319C111.706 32.0338 113.274 36.7377 113.274 42.9435V78.5445H99.9543V54.926C99.9543 48.6872 99.6572 44.462 99.063 42.2503C98.4688 40.0387 97.4455 38.3882 95.9931 37.2989C94.5737 36.2095 92.8077 35.6649 90.695 35.6649C87.9552 35.6649 85.595 36.5726 83.6145 38.3882C81.6669 40.2037 80.3135 42.6794 79.5543 45.8154C79.1581 47.4328 78.9601 51.1299 78.9601 56.9066V78.5445H65.5416V3.87653Z" fill="#9D0032"/>
<path d="M180.366 55.5202H136.942C137.569 59.3493 139.236 62.4027 141.943 64.6804C144.682 66.9251 148.165 68.0474 152.39 68.0474C157.441 68.0474 161.781 66.2814 165.413 62.7493L176.801 68.0969C173.962 72.1241 170.562 75.1115 166.601 77.0591C162.64 78.9736 157.936 79.9309 152.489 79.9309C144.039 79.9309 137.156 77.2736 131.842 71.9591C126.527 66.6115 123.87 59.927 123.87 51.9057C123.87 43.6862 126.511 36.8697 131.792 31.4561C137.107 26.0095 143.758 23.2862 151.746 23.2862C160.23 23.2862 167.129 26.0095 172.444 31.4561C177.758 36.8697 180.415 44.0328 180.415 52.9455L180.366 55.5202ZM166.799 44.8746C165.908 41.8707 164.142 39.428 161.501 37.5464C158.893 35.6649 155.856 34.7241 152.39 34.7241C148.627 34.7241 145.326 35.7804 142.487 37.893C140.705 39.2134 139.054 41.5406 137.536 44.8746H166.799Z" fill="#9D0032"/>
<path d="M0.482422 3.17556H52.5776V20.861H35.4048V97.4338H17.2067V20.861H0.482422V3.17556Z" fill="#9D0032"/>
</g>
</g>
</svg>
